<svg id="falco" xmlns="http://www.w3.org/2000/svg" xmlns:xlink="http://www.w3.org/1999/xlink" width="381.814" height="530.068" viewBox="0 0 381.814 530.068">
  <defs>
    <linearGradient id="linear-gradient" y1="0.5" x2="1" y2="0.5" gradientUnits="objectBoundingBox">
      <stop offset="0" stop-color="#ff8930"/>
      <stop offset="0.019" stop-color="#ff852d"/>
      <stop offset="0.236" stop-color="#ff6214"/>
      <stop offset="0.414" stop-color="#ff4c05"/>
      <stop offset="0.529" stop-color="#ff4500"/>
      <stop offset="0.536" stop-color="#fd4503"/>
      <stop offset="0.7" stop-color="#d24547"/>
      <stop offset="0.838" stop-color="#b44578"/>
      <stop offset="0.942" stop-color="#a14597"/>
      <stop offset="1" stop-color="#9a45a3"/>
    </linearGradient>
    <linearGradient id="linear-gradient-35" x1="0.5" y1="0.004" x2="0.5" y2="0.989" gradientUnits="objectBoundingBox">
      <stop offset="0" stop-color="#9c4999"/>
      <stop offset="0.363" stop-color="#9b479c" stop-opacity="0.608"/>
      <stop offset="0.796" stop-color="#9a45a1" stop-opacity="0.173"/>
      <stop offset="1" stop-color="#9a45a3" stop-opacity="0"/>
    </linearGradient>
    <linearGradient id="linear-gradient-37" x1="0.5" y1="0.004" x2="0.5" y2="0.989" xlink:href="#linear-gradient-35"/>
    <linearGradient id="linear-gradient-38" x1="0.5" y1="0.004" x2="0.5" y2="0.989" gradientUnits="objectBoundingBox">
      <stop offset="0" stop-color="#ff8930"/>
      <stop offset="0.18" stop-color="#eb7b46" stop-opacity="0.804"/>
      <stop offset="0.587" stop-color="#bf5e77" stop-opacity="0.376"/>
      <stop offset="0.869" stop-color="#a44c96" stop-opacity="0.106"/>
      <stop offset="1" stop-color="#9a45a3" stop-opacity="0"/>
    </linearGradient>
    <linearGradient id="linear-gradient-39" x1="0.5" y1="0.004" x2="0.5" y2="0.989" xlink:href="#linear-gradient-38"/>
    <linearGradient id="linear-gradient-41" x1="0.5" y1="0.004" x2="0.5" y2="0.989" xlink:href="#linear-gradient-38"/>
    <linearGradient id="linear-gradient-42" x1="0.5" y1="0.004" x2="0.5" y2="0.989" xlink:href="#linear-gradient-38"/>
    <linearGradient id="linear-gradient-44" x1="0.5" y1="0.004" x2="0.5" y2="0.989" xlink:href="#linear-gradient-38"/>
    <linearGradient id="linear-gradient-45" x1="0.5" y1="0.004" x2="0.5" y2="0.989" xlink:href="#linear-gradient-35"/>
  </defs>
  <g id="falcon">
    <g id="Group_2517" data-name="Group 2517" transform="translate(19.642 86.06)">
      <path id="Path_9112" data-name="Path 9112" d="M2569.518-3453a2.366,2.366,0,0,1,2.333-2.393h0a2.362,2.362,0,0,1,2.4,2.333h0a2.369,2.369,0,0,1-2.334,2.4h-.035A2.378,2.378,0,0,1,2569.518-3453Zm-15.588,1.753h0a2.365,2.365,0,0,1-2.144-2.57h0a2.376,2.376,0,0,1,2.571-2.156h0a2.37,2.37,0,0,1,2.144,2.582h0a2.36,2.36,0,0,1-2.358,2.156h0C2554.072-3451.238,2554-3451.25,2553.93-3451.25Zm33.331-2.44a2.375,2.375,0,0,1,2.181-2.547h0v-.012h0a2.389,2.389,0,0,1,2.558,2.179h0a2.373,2.373,0,0,1-2.178,2.547h0a1.082,1.082,0,0,1-.191.012h0A2.394,2.394,0,0,1,2587.261-3453.69Zm17.7-1.777a2.376,2.376,0,0,1,2.026-2.677H2607a2.37,2.37,0,0,1,2.653,2.037h0a2.372,2.372,0,0,1-2.025,2.665h0a2.871,2.871,0,0,1-.321.012h0A2.36,2.36,0,0,1,2604.959-3455.467Zm-68.834,1.718h0a2.37,2.37,0,0,1-1.894-2.772h0a2.353,2.353,0,0,1,2.76-1.884h0a2.361,2.361,0,0,1,1.9,2.76h0a2.372,2.372,0,0,1-2.333,1.931h0A2.591,2.591,0,0,1,2536.125-3453.749Zm86.4-4.454a2.367,2.367,0,0,1,1.9-2.76h0a2.351,2.351,0,0,1,2.76,1.884h0a2.37,2.37,0,0,1-1.884,2.772h0a3,3,0,0,1-.45.035h0A2.367,2.367,0,0,1,2622.526-3458.2Zm-103.9.545a2.356,2.356,0,0,1-1.706-2.878h0a2.356,2.356,0,0,1,2.878-1.706h0a2.356,2.356,0,0,1,1.706,2.879h0a2.362,2.362,0,0,1-2.286,1.777h0A2.531,2.531,0,0,1,2518.631-3457.658Zm121.295-4.146a2.391,2.391,0,0,1,1.755-2.867h0a2.38,2.38,0,0,1,2.866,1.753h0a2.383,2.383,0,0,1-1.754,2.854h0a2.3,2.3,0,0,1-.556.071h0A2.379,2.379,0,0,1,2639.926-3461.8Zm-138.5-.581h-.01a2.371,2.371,0,0,1-1.612-2.937h0a2.371,2.371,0,0,1,2.939-1.611h0v-.012h0a2.371,2.371,0,0,1,1.611,2.938h0a2.364,2.364,0,0,1-2.274,1.718h0A2.491,2.491,0,0,1,2501.43-3462.384Zm155.708-3.909a2.38,2.38,0,0,1,1.6-2.949h0v.012h0a2.346,2.346,0,0,1,2.938,1.587h0a2.365,2.365,0,0,1-1.587,2.949h0a2.225,2.225,0,0,1-.675.094h0A2.365,2.365,0,0,1,2657.138-3466.293Zm-172.764-1.113h0a2.369,2.369,0,0,1-1.611-2.938h0a2.369,2.369,0,0,1,2.938-1.611h0a2.369,2.369,0,0,1,1.611,2.938h0a2.353,2.353,0,0,1-2.274,1.706h0A2.136,2.136,0,0,1,2484.374-3467.406Zm189.691-4.312a2.368,2.368,0,0,1,1.422-3.032h0a2.36,2.36,0,0,1,3.031,1.41h0a2.369,2.369,0,0,1-1.408,3.044h0a2.48,2.48,0,0,1-.817.142h0A2.391,2.391,0,0,1,2674.065-3471.719Zm-206.738-.415a2.374,2.374,0,0,1-1.7-2.89h0a2.364,2.364,0,0,1,2.878-1.706h0a2.375,2.375,0,0,1,1.706,2.891h0a2.366,2.366,0,0,1-2.3,1.777h0A2.44,2.44,0,0,1,2467.327-3472.133Zm-71.617-2.949a2.365,2.365,0,0,1,1.458-3.021h0a2.366,2.366,0,0,1,3.009,1.457h0a2.356,2.356,0,0,1-1.458,3.021h0a2.2,2.2,0,0,1-.782.13h0A2.359,2.359,0,0,1,2395.71-3475.083Zm54.441-.865a2.37,2.37,0,0,1-1.919-2.748h0a2.369,2.369,0,0,1,2.76-1.907h0a2.355,2.355,0,0,1,1.908,2.736h0a2.359,2.359,0,0,1-2.322,1.955h0A2.618,2.618,0,0,1,2450.151-3475.947Zm240.438-2.334a2.383,2.383,0,0,1,1.149-3.151h0a2.383,2.383,0,0,1,3.151,1.149h0a2.383,2.383,0,0,1-1.149,3.151h0a2.3,2.3,0,0,1-1,.225h0A2.371,2.371,0,0,1,2690.589-3478.281Zm-277.726-1.291a2.372,2.372,0,0,1,2.061-2.641h0a2.356,2.356,0,0,1,2.642,2.061h0a2.37,2.37,0,0,1-2.062,2.642h0a2.237,2.237,0,0,1-.283.012h0A2.376,2.376,0,0,1,2412.864-3479.572Zm19.948,1.54a2.37,2.37,0,0,1-2.227-2.5h0a2.368,2.368,0,0,1,2.487-2.239h0a2.373,2.373,0,0,1,2.24,2.5h0a2.376,2.376,0,0,1-2.369,2.239h-.13Zm273.521-8.493a2.38,2.38,0,0,1,.64-3.293h0a2.373,2.373,0,0,1,3.28.639h0a2.375,2.375,0,0,1-.626,3.293h0a2.363,2.363,0,0,1-1.327.4h0A2.381,2.381,0,0,1,2706.332-3486.525Z" transform="translate(-2395.574 3490.218)" fill="url(#linear-gradient)"/>
    </g>
    <g id="Group_2518" data-name="Group 2518" transform="translate(43.163 69.493)">
      <path id="Path_9113" data-name="Path 9113" d="M2555.584-3465.477v-.012a2.363,2.363,0,0,1-2.287-2.452h0a2.369,2.369,0,0,1,2.453-2.274h0a2.362,2.362,0,0,1,2.285,2.452h0a2.375,2.375,0,0,1-2.369,2.286h-.082Zm15.481-2.369a2.37,2.37,0,0,1,2.287-2.452h0a2.378,2.378,0,0,1,2.451,2.286h0a2.37,2.37,0,0,1-2.285,2.452h-.084A2.376,2.376,0,0,1,2571.065-3467.846Zm17.745-.948a2.367,2.367,0,0,1,2.156-2.57h0a2.346,2.346,0,0,1,2.557,2.144h0a2.364,2.364,0,0,1-2.143,2.57h0a1.275,1.275,0,0,1-.213.012h0A2.368,2.368,0,0,1,2588.811-3468.794Zm-51.172,1.623a2.372,2.372,0,0,1-1.99-2.7h0a2.367,2.367,0,0,1,2.7-1.978h0a2.366,2.366,0,0,1,1.99,2.688h0a2.366,2.366,0,0,1-2.333,2.014h0A1.909,1.909,0,0,1,2537.639-3467.171Zm68.833-3.565a2.385,2.385,0,0,1,2-2.689h0a2.37,2.37,0,0,1,2.69,2h0a2.36,2.36,0,0,1-2,2.689h0a1.609,1.609,0,0,1-.344.024h0A2.368,2.368,0,0,1,2606.472-3470.736Zm-86.459,0a2.372,2.372,0,0,1-1.718-2.878h0a2.367,2.367,0,0,1,2.878-1.718h0a2.365,2.365,0,0,1,1.716,2.879h0a2.375,2.375,0,0,1-2.3,1.789h0A2.434,2.434,0,0,1,2520.013-3470.736ZM2624-3473.7a2.366,2.366,0,0,1,1.824-2.808h0a2.366,2.366,0,0,1,2.807,1.836h0a2.35,2.35,0,0,1-1.824,2.8h0a2.387,2.387,0,0,1-.5.059h0A2.375,2.375,0,0,1,2624-3473.7Zm-121.2-2.049a2.385,2.385,0,0,1-1.515-3h0a2.367,2.367,0,0,1,2.985-1.516h0a2.369,2.369,0,0,1,1.516,2.985h0a2.358,2.358,0,0,1-2.251,1.634h0A2.7,2.7,0,0,1,2502.8-3475.747Zm138.5-2.049a2.351,2.351,0,0,1,1.623-2.926h0a2.36,2.36,0,0,1,2.927,1.623h0a2.386,2.386,0,0,1-1.623,2.938v-.012a2.134,2.134,0,0,1-.663.095h0A2.361,2.361,0,0,1,2641.3-3477.8Zm-155.35-3.8v.012a2.363,2.363,0,0,1-1.421-3.032h0a2.352,2.352,0,0,1,3.021-1.433h0a2.374,2.374,0,0,1,1.433,3.032h0a2.353,2.353,0,0,1-2.227,1.564h0A2.345,2.345,0,0,1,2485.946-3481.6Zm172.267-1.611a2.381,2.381,0,0,1,1.349-3.068h0a2.372,2.372,0,0,1,3.069,1.351h0a2.37,2.37,0,0,1-1.352,3.068h0a2.411,2.411,0,0,1-.852.166h0A2.389,2.389,0,0,1,2658.212-3483.209Zm-188.97-4.288a2.363,2.363,0,0,1-1.491-3h0a2.362,2.362,0,0,1,3-1.493h0a2.363,2.363,0,0,1,1.493,3h0a2.372,2.372,0,0,1-2.25,1.623h0A2.357,2.357,0,0,1,2469.242-3487.5Zm205.234-2.855a2.375,2.375,0,0,1,.936-3.222h0a2.369,2.369,0,0,1,3.21.924h0a2.36,2.36,0,0,1-.924,3.222h0a2.343,2.343,0,0,1-1.149.3h0A2.375,2.375,0,0,1,2674.476-3490.352Zm-222.066-2.073a2.365,2.365,0,0,1-1.777-2.843h0a2.38,2.38,0,0,1,2.856-1.765h0a2.373,2.373,0,0,1,1.765,2.843h0a2.371,2.371,0,0,1-2.3,1.836h0A2.166,2.166,0,0,1,2452.41-3492.425Zm-36.9-2.227a2.382,2.382,0,0,1,1.67-2.914h0v.012h0a2.354,2.354,0,0,1,2.9,1.67h0a2.369,2.369,0,0,1-1.669,2.9h0a2.761,2.761,0,0,1-.616.083h0A2.375,2.375,0,0,1,2415.513-3494.652Zm19.805-.19a2.361,2.361,0,0,1-2.286-2.452h0a2.359,2.359,0,0,1,2.44-2.286h0a2.359,2.359,0,0,1,2.285,2.44h0a2.369,2.369,0,0,1-2.369,2.3h-.07Zm253.94-5.319a2.361,2.361,0,0,1,.01-3.352h0a2.363,2.363,0,0,1,3.352.012h0a2.373,2.373,0,0,1-.011,3.352h0a2.35,2.35,0,0,1-1.67.687h0A2.387,2.387,0,0,1,2689.259-3500.16Z" transform="translate(-2415.43 3504.204)" fill="url(#linear-gradient)"/>
    </g>
    <g id="Group_2519" data-name="Group 2519" transform="translate(147.092 81.613)">
      <path id="Path_9114" data-name="Path 9114" d="M2558.346-3482.646a2.369,2.369,0,0,1-2.3-2.44h0a2.369,2.369,0,0,1,2.44-2.3h0a2.363,2.363,0,0,1,2.3,2.44h0a2.378,2.378,0,0,1-2.369,2.3h-.071Zm15.47-2.488a2.365,2.365,0,0,1,2.2-2.535h0a2.361,2.361,0,0,1,2.523,2.191h0a2.374,2.374,0,0,1-2.2,2.535h-.165A2.356,2.356,0,0,1,2573.816-3485.134Zm-33.381,1.22h0a2.364,2.364,0,0,1-2.108-2.594h0a2.36,2.36,0,0,1,2.606-2.108h0a2.363,2.363,0,0,1,2.109,2.606h0a2.361,2.361,0,0,1-2.345,2.109h0A1.786,1.786,0,0,1,2540.436-3483.914Zm51.018-3.34a2.355,2.355,0,0,1,1.789-2.831h0a2.374,2.374,0,0,1,2.831,1.789h0a2.372,2.372,0,0,1-1.8,2.831h0a2.492,2.492,0,0,1-.51.06h0A2.353,2.353,0,0,1,2591.454-3487.254Zm-68.763.936a2.354,2.354,0,0,1-1.953-2.713h0a2.361,2.361,0,0,1,2.713-1.954h0a2.371,2.371,0,0,1,1.966,2.713h0a2.388,2.388,0,0,1-2.345,1.99h0A2.177,2.177,0,0,1,2522.69-3486.318Zm-19.437-4.643a2.382,2.382,0,0,1,1.658-2.926h0a2.371,2.371,0,0,1,2.914,1.658h0a2.367,2.367,0,0,1-1.659,2.914h0a2.237,2.237,0,0,1-.628.083h0A2.377,2.377,0,0,1,2503.253-3490.961Z" transform="translate(-2503.169 3493.971)" fill="url(#linear-gradient)"/>
    </g>
    <g id="Group_2520" data-name="Group 2520" transform="translate(157.208 65.357)">
      <path id="Path_9115" data-name="Path 9115" d="M2549.118-3497.929a2.367,2.367,0,0,1-2.274-2.452h0a2.377,2.377,0,0,1,2.464-2.274h0a2.368,2.368,0,0,1,2.275,2.451h0a2.377,2.377,0,0,1-2.369,2.287h0A.282.282,0,0,1,2549.118-3497.929Zm15.48-2.642a2.388,2.388,0,0,1,2.12-2.606h0a2.369,2.369,0,0,1,2.6,2.12h0a2.358,2.358,0,0,1-2.108,2.594h0a1.7,1.7,0,0,1-.249.012h0A2.375,2.375,0,0,1,2564.6-3500.57Zm-33.426.853a2.368,2.368,0,0,1-1.978-2.7h0a2.379,2.379,0,0,1,2.713-1.978h0a2.362,2.362,0,0,1,1.966,2.712h0a2.365,2.365,0,0,1-2.333,2h0A1.931,1.931,0,0,1,2531.172-3499.717Zm50.946-3.72a2.386,2.386,0,0,1,1.648-2.926h0a2.384,2.384,0,0,1,2.926,1.658h0a2.379,2.379,0,0,1-1.646,2.914h0a2.394,2.394,0,0,1-.64.083h0A2.379,2.379,0,0,1,2582.118-3503.437Zm-70.326-1.267a2.375,2.375,0,0,1,1.67-2.914h0v.012h0a2.35,2.35,0,0,1,2.9,1.658h0a2.369,2.369,0,0,1-1.658,2.9v.011a2.935,2.935,0,0,1-.628.083h0A2.378,2.378,0,0,1,2511.792-3504.7Z" transform="translate(-2511.709 3507.695)" fill="url(#linear-gradient)"/>
    </g>
    <g id="Group_2521" data-name="Group 2521" transform="translate(155.993 47.025)">
      <path id="Path_9116" data-name="Path 9116" d="M2510.762-3515.186a2.372,2.372,0,0,1,1.682-2.9h0a2.368,2.368,0,0,1,2.9,1.682h0a2.366,2.366,0,0,1-1.682,2.89v.012a2.652,2.652,0,0,1-.606.071h0A2.378,2.378,0,0,1,2510.762-3515.186Zm17.377-3.7a2.372,2.372,0,0,1,2.037-2.665h0a2.39,2.39,0,0,1,2.665,2.037h0a2.384,2.384,0,0,1-2.038,2.665h0a2.926,2.926,0,0,1-.321.024h0A2.371,2.371,0,0,1,2528.14-3518.882Zm55.294,1.647a2.368,2.368,0,0,1-2.12-2.594h0a2.386,2.386,0,0,1,2.606-2.12h0a2.372,2.372,0,0,1,2.109,2.606h0a2.363,2.363,0,0,1-2.345,2.12h0A1.736,1.736,0,0,1,2583.433-3517.236Zm-37.62-3.388a2.387,2.387,0,0,1,2.274-2.476h0a2.379,2.379,0,0,1,2.464,2.275h0a2.368,2.368,0,0,1-2.262,2.463h-.106A2.378,2.378,0,0,1,2545.813-3520.624Zm17.768-.26a2.37,2.37,0,0,1,2.452-2.286h0a2.37,2.37,0,0,1,2.286,2.452h0a2.378,2.378,0,0,1-2.452,2.286h0A2.37,2.37,0,0,1,2563.581-3520.884Z" transform="translate(-2510.684 3523.172)" fill="url(#linear-gradient)"/>
    </g>
    <g id="Group_2522" data-name="Group 2522" transform="translate(129.744)">
      <path id="Path_9117" data-name="Path 9117" d="M2489.715-3532.25a2.366,2.366,0,0,1-.875-3.234h0a2.366,2.366,0,0,1,3.234-.876h0a2.367,2.367,0,0,1,.876,3.234h0a2.358,2.358,0,0,1-2.061,1.2h0A2.4,2.4,0,0,1,2489.715-3532.25Zm10.887-13.966a2.391,2.391,0,0,1,.237-3.352h0a2.375,2.375,0,0,1,3.341.237h0a2.368,2.368,0,0,1-.237,3.352h.012a2.423,2.423,0,0,1-1.565.569h0A2.379,2.379,0,0,1,2500.6-3546.216Zm50.568-8.564a2.357,2.357,0,0,1-1.34-3.068h0a2.357,2.357,0,0,1,3.069-1.339h0a2.367,2.367,0,0,1,1.338,3.068h0a2.365,2.365,0,0,1-2.2,1.5h0A2.235,2.235,0,0,1,2551.169-3554.78Zm-35.962-1.469a2.371,2.371,0,0,1,1.291-3.092h0a2.367,2.367,0,0,1,3.092,1.291h0a2.367,2.367,0,0,1-1.291,3.092h0a2.444,2.444,0,0,1-.9.178h0A2.371,2.371,0,0,1,2515.207-3556.249Zm19.486-1.884a2.385,2.385,0,0,1-2.345-2.4h0a2.368,2.368,0,0,1,2.4-2.333h0a2.36,2.36,0,0,1,2.333,2.393h0a2.371,2.371,0,0,1-2.369,2.345h-.024Z" transform="translate(-2488.524 3562.871)" fill="url(#linear-gradient)"/>
    </g>
    <g id="Group_2523" data-name="Group 2523" transform="translate(123.431 17.136)">
      <path id="Path_9118" data-name="Path 9118" d="M2484.386-3518.549a2.37,2.37,0,0,1-.876-3.234h0a2.365,2.365,0,0,1,3.233-.876h0a2.367,2.367,0,0,1,.877,3.234h0a2.37,2.37,0,0,1-2.062,1.184h0A2.347,2.347,0,0,1,2484.386-3518.549Zm12.4-12.473a2.364,2.364,0,0,1,.746-3.269h0a2.353,2.353,0,0,1,3.257.746h0a2.361,2.361,0,0,1-.734,3.258h0a2.339,2.339,0,0,1-1.255.367h0A2.375,2.375,0,0,1,2496.788-3531.022Zm15.67-8.351a2.373,2.373,0,0,1,1.352-3.068h0a2.372,2.372,0,0,1,3.068,1.351h0a2.371,2.371,0,0,1-1.35,3.068h0a2.441,2.441,0,0,1-.865.166h0A2.377,2.377,0,0,1,2512.458-3539.373Zm53.6-.983a2.372,2.372,0,0,1-1.468-3.009h0a2.363,2.363,0,0,1,3.009-1.469h0a2.361,2.361,0,0,1,1.468,3.009h0a2.359,2.359,0,0,1-2.238,1.6h0A2.456,2.456,0,0,1,2566.058-3540.356Zm-36.636-4.252a2.364,2.364,0,0,1,1.931-2.736h0a2.365,2.365,0,0,1,2.736,1.931h0a2.364,2.364,0,0,1-1.932,2.736h0a2.3,2.3,0,0,1-.4.035h0A2.361,2.361,0,0,1,2529.422-3544.609Zm19.889.936a2.354,2.354,0,0,1-2.215-2.511h0a2.356,2.356,0,0,1,2.511-2.215h0a2.38,2.38,0,0,1,2.215,2.511h0a2.381,2.381,0,0,1-2.369,2.227h0A.581.581,0,0,1,2549.31-3543.673Z" transform="translate(-2483.194 3548.404)" fill="url(#linear-gradient)"/>
    </g>
    <g id="Group_2524" data-name="Group 2524" transform="translate(149.431 31.247)">
      <path id="Path_9119" data-name="Path 9119" d="M2506.335-3520.747a2.368,2.368,0,0,1-.875-3.234h0a2.366,2.366,0,0,1,3.234-.876h0a2.377,2.377,0,0,1,.877,3.234h0a2.384,2.384,0,0,1-2.061,1.185h0A2.328,2.328,0,0,1,2506.335-3520.747Zm68.041-6.373h0a2.368,2.368,0,0,1-1.54-2.973h0a2.365,2.365,0,0,1,2.973-1.552h-.012a2.364,2.364,0,0,1,1.552,2.973h0a2.382,2.382,0,0,1-2.264,1.658h0A2.461,2.461,0,0,1,2574.376-3527.12Zm-54.18-3.874a2.359,2.359,0,0,1,1.67-2.9h0a2.35,2.35,0,0,1,2.9,1.658h0a2.368,2.368,0,0,1-1.658,2.9h0a2.287,2.287,0,0,1-.629.083h0A2.373,2.373,0,0,1,2520.2-3530.994Zm37.253.107h0a2.36,2.36,0,0,1-2.025-2.654h0a2.354,2.354,0,0,1,2.653-2.037h.012a2.366,2.366,0,0,1,2.026,2.665h0a2.363,2.363,0,0,1-2.347,2.049h0A1.445,1.445,0,0,1,2557.449-3530.887Zm-19.771-3.139a2.365,2.365,0,0,1,2.275-2.464h0a2.378,2.378,0,0,1,2.453,2.286h0a2.369,2.369,0,0,1-2.275,2.452h-.084A2.357,2.357,0,0,1,2537.677-3534.026Z" transform="translate(-2505.144 3536.491)" fill="url(#linear-gradient)"/>
    </g>
    <g id="Group_2525" data-name="Group 2525" transform="translate(5.819 104.293)">
      <path id="Path_9120" data-name="Path 9120" d="M2592.649-3430.944a2.377,2.377,0,0,1,2.3-2.44h0a2.37,2.37,0,0,1,2.441,2.3h0a2.36,2.36,0,0,1-2.286,2.44h-.071A2.38,2.38,0,0,1,2592.649-3430.944Zm-15.529,2a2.372,2.372,0,0,1-2.217-2.511h0a2.39,2.39,0,0,1,2.523-2.215h0a2.387,2.387,0,0,1,2.215,2.523h0a2.369,2.369,0,0,1-2.369,2.215h0A.642.642,0,0,1,2577.121-3428.943Zm33.272-3.08a2.362,2.362,0,0,1,2.1-2.618h0a2.366,2.366,0,0,1,2.606,2.1h0a2.369,2.369,0,0,1-2.086,2.618H2613a1.819,1.819,0,0,1-.261.012h0A2.371,2.371,0,0,1,2610.393-3432.022Zm-51.171.912a2.369,2.369,0,0,1-1.907-2.76h0a2.378,2.378,0,0,1,2.76-1.907h0a2.368,2.368,0,0,1,1.894,2.76h0a2.358,2.358,0,0,1-2.32,1.943h0A2.572,2.572,0,0,1,2559.222-3431.11Zm68.785-3.34a2.37,2.37,0,0,1,1.908-2.76h0a2.357,2.357,0,0,1,2.748,1.907h0a2.371,2.371,0,0,1-1.9,2.76h0a2.884,2.884,0,0,1-.439.035h0A2.38,2.38,0,0,1,2628.007-3434.45Zm-86.27-.664a2.382,2.382,0,0,1-1.7-2.89h0a2.364,2.364,0,0,1,2.878-1.706h0a2.365,2.365,0,0,1,1.718,2.878h0a2.375,2.375,0,0,1-2.3,1.789h0A2.617,2.617,0,0,1,2541.737-3435.114Zm103.683-2.926a2.373,2.373,0,0,1,1.729-2.878h0a2.369,2.369,0,0,1,2.867,1.741h0a2.368,2.368,0,0,1-1.729,2.867h0a2.352,2.352,0,0,1-.569.071h0A2.363,2.363,0,0,1,2645.42-3438.04Zm-120.882-1.729h-.012a2.374,2.374,0,0,1-1.635-2.926h0a2.366,2.366,0,0,1,2.926-1.635h0a2.37,2.37,0,0,1,1.635,2.926h0a2.363,2.363,0,0,1-2.274,1.718h0A2.371,2.371,0,0,1,2524.539-3439.769Zm138.046-2.9a2.354,2.354,0,0,1,1.563-2.961h0a2.364,2.364,0,0,1,2.961,1.563h0a2.383,2.383,0,0,1-1.564,2.961h0a2.436,2.436,0,0,1-.7.107h0A2.356,2.356,0,0,1,2662.584-3442.671Zm-155.151-2.025a2.364,2.364,0,0,1-1.61-2.938h0a2.369,2.369,0,0,1,2.938-1.611h0a2.37,2.37,0,0,1,1.611,2.938h0a2.366,2.366,0,0,1-2.274,1.706h0A2.206,2.206,0,0,1,2507.433-3444.7Zm172.031-3.565a2.363,2.363,0,0,1,1.4-3.044h0a2.383,2.383,0,0,1,3.044,1.4h0a2.392,2.392,0,0,1-1.4,3.056h0a2.547,2.547,0,0,1-.829.142h0A2.364,2.364,0,0,1,2679.464-3448.262Zm-189.087-1.3a2.379,2.379,0,0,1-1.648-2.914h0a2.361,2.361,0,0,1,2.914-1.646h0a2.366,2.366,0,0,1,1.659,2.914h0a2.377,2.377,0,0,1-2.286,1.729h0A2.364,2.364,0,0,1,2490.377-3449.565ZM2696-3454.777a2.376,2.376,0,0,1,1.22-3.127h0a2.368,2.368,0,0,1,3.115,1.22h0a2.371,2.371,0,0,1-1.208,3.127h0a2.52,2.52,0,0,1-.959.189h0A2.357,2.357,0,0,1,2696-3454.777Zm-222.728.722a2.378,2.378,0,0,1-1.741-2.866h0a2.373,2.373,0,0,1,2.867-1.741h0a2.374,2.374,0,0,1,1.741,2.866h0a2.388,2.388,0,0,1-2.311,1.8h0A2.281,2.281,0,0,1,2473.272-3454.054Zm-89.231-2.594a2.363,2.363,0,0,1,1.457-3.021h0a2.363,2.363,0,0,1,3.009,1.469h0a2.348,2.348,0,0,1-1.457,3.009h.01a2.324,2.324,0,0,1-.794.142h0A2.357,2.357,0,0,1,2384.042-3456.648Zm72-1.137a2.352,2.352,0,0,1-1.9-2.76h0a2.359,2.359,0,0,1,2.759-1.9h0a2.371,2.371,0,0,1,1.9,2.76h0a2.372,2.372,0,0,1-2.334,1.931h0A2.591,2.591,0,0,1,2456.037-3457.786Zm-54.9-3.637a2.373,2.373,0,0,1,1.943-2.736h0a2.372,2.372,0,0,1,2.724,1.955h0a2.364,2.364,0,0,1-1.943,2.724h0a2.192,2.192,0,0,1-.391.036h0A2.373,2.373,0,0,1,2401.134-3461.422Zm37.515,1.137a2.367,2.367,0,0,1-2.12-2.594h0a2.367,2.367,0,0,1,2.594-2.12h0a2.366,2.366,0,0,1,2.12,2.582h0a2.366,2.366,0,0,1-2.358,2.144h0C2438.8-3460.273,2438.73-3460.285,2438.649-3460.285Zm-19.877-3.08a2.371,2.371,0,0,1,2.333-2.417h0a2.386,2.386,0,0,1,2.417,2.333h0a2.386,2.386,0,0,1-2.334,2.4h-.047A2.374,2.374,0,0,1,2418.772-3463.365Zm293.337,1.054a2.359,2.359,0,0,1,1-3.2h0a2.369,2.369,0,0,1,3.2.995h0a2.369,2.369,0,0,1-1,3.2h0a2.33,2.33,0,0,1-1.1.273h0A2.371,2.371,0,0,1,2712.109-3462.311Zm15.448-8.813a2.363,2.363,0,0,1,.616-3.293h0a2.372,2.372,0,0,1,3.292.628h0a2.373,2.373,0,0,1-.615,3.293h0a2.436,2.436,0,0,1-1.339.414h0A2.343,2.343,0,0,1,2727.556-3471.124Z" transform="translate(-2383.904 3474.825)" fill="url(#linear-gradient)"/>
    </g>
    <g id="Group_2526" data-name="Group 2526" transform="translate(3.936 121.798)">
      <path id="Path_9121" data-name="Path 9121" d="M2569.264-3403.679a2.361,2.361,0,0,1,2.346-2.393h0a2.366,2.366,0,0,1,2.393,2.334h0a2.38,2.38,0,0,1-2.345,2.4h-.036A2.368,2.368,0,0,1,2569.264-3403.679Zm17.745-.9a2.371,2.371,0,0,1,2.1-2.618h0a2.371,2.371,0,0,1,2.618,2.1h0a2.366,2.366,0,0,1-2.1,2.606h0a1.927,1.927,0,0,1-.262.024h0A2.38,2.38,0,0,1,2587.009-3404.579Zm-33.44,1.931a2.364,2.364,0,0,1-1.967-2.712h0a2.346,2.346,0,0,1,2.7-1.967h0a2.35,2.35,0,0,1,1.966,2.7h0a2.356,2.356,0,0,1-2.333,2h0C2553.818-3402.625,2553.688-3402.637,2553.569-3402.648Zm51.053-4.383a2.357,2.357,0,0,1,1.907-2.748h0a2.37,2.37,0,0,1,2.76,1.907h0a2.372,2.372,0,0,1-1.908,2.748h0a2.569,2.569,0,0,1-.426.036h0A2.37,2.37,0,0,1,2604.623-3407.031Zm-68.667.462a2.375,2.375,0,0,1-1.635-2.926h0a2.368,2.368,0,0,1,2.924-1.634h0a2.357,2.357,0,0,1,1.636,2.914h0a2.375,2.375,0,0,1-2.275,1.729h0A2.472,2.472,0,0,1,2535.955-3406.569Zm86.092-4a2.369,2.369,0,0,1,1.764-2.854h0a2.375,2.375,0,0,1,2.856,1.753h0a2.377,2.377,0,0,1-1.767,2.855h0a2.135,2.135,0,0,1-.545.071h0A2.376,2.376,0,0,1,2622.047-3410.573Zm-103.149-1.552a2.376,2.376,0,0,1-1.421-3.044h0a2.361,2.361,0,0,1,3.031-1.41h0a2.359,2.359,0,0,1,1.423,3.032h0a2.38,2.38,0,0,1-2.227,1.564h0A2.353,2.353,0,0,1,2518.9-3412.125Zm120.384-2.854a2.362,2.362,0,0,1,1.623-2.926h0a2.353,2.353,0,0,1,2.926,1.623h0a2.361,2.361,0,0,1-1.623,2.926h0a2.079,2.079,0,0,1-.651.094h0A2.364,2.364,0,0,1,2639.282-3414.979Zm-137.039-3.649h0a2.371,2.371,0,0,1-1.291-3.091h0a2.362,2.362,0,0,1,3.092-1.291h0a2.362,2.362,0,0,1,1.291,3.092h0a2.374,2.374,0,0,1-2.192,1.469h0A2.417,2.417,0,0,1,2502.243-3418.628Zm154.061-1.48a2.367,2.367,0,0,1,1.515-2.985h0a2.377,2.377,0,0,1,3,1.516h0a2.367,2.367,0,0,1-1.518,2.985h0a2.307,2.307,0,0,1-.734.118h0A2.368,2.368,0,0,1,2656.3-3420.108Zm16.832-5.757a2.362,2.362,0,0,1,1.4-3.044h0a2.354,2.354,0,0,1,3.044,1.4h0a2.365,2.365,0,0,1-1.4,3.044h0a2.461,2.461,0,0,1-.816.142h0A2.374,2.374,0,0,1,2673.136-3425.865Zm-187.31.284a2.385,2.385,0,0,1-1.245-3.116h0a2.374,2.374,0,0,1,3.115-1.232h0v-.012h0a2.368,2.368,0,0,1,1.245,3.115h0a2.366,2.366,0,0,1-2.179,1.434h0A2.4,2.4,0,0,1,2485.826-3425.581Zm203.906-6.681a2.371,2.371,0,0,1,1.291-3.091h0a2.372,2.372,0,0,1,3.092,1.291h0a2.367,2.367,0,0,1-1.28,3.092h0a2.451,2.451,0,0,1-.913.177h0A2.384,2.384,0,0,1,2689.731-3432.262Zm-220.229-.284h0a2.367,2.367,0,0,1-1.267-3.1h0a2.35,2.35,0,0,1,3.092-1.268h0a2.371,2.371,0,0,1,1.279,3.092h0a2.374,2.374,0,0,1-2.193,1.457h0A2.45,2.45,0,0,1,2469.5-3432.546Zm236.563-6.764a2.355,2.355,0,0,1,1.149-3.139h0a2.368,2.368,0,0,1,3.151,1.137h0a2.376,2.376,0,0,1-1.149,3.151h0a2.305,2.305,0,0,1-1,.225h0A2.371,2.371,0,0,1,2706.066-3439.31Zm-252.993.19a2.361,2.361,0,0,1-1.374-3.044h0a2.353,2.353,0,0,1,3.044-1.386h0a2.353,2.353,0,0,1,1.386,3.044h0a2.371,2.371,0,0,1-2.215,1.54h0A2.351,2.351,0,0,1,2453.073-3439.12Zm-16.668-5.638a2.371,2.371,0,0,1-1.6-2.949h0a2.361,2.361,0,0,1,2.936-1.6h0a2.37,2.37,0,0,1,1.613,2.938h0a2.388,2.388,0,0,1-2.274,1.706h0A2.666,2.666,0,0,1,2436.406-3444.758Zm285.626-2.4a2.365,2.365,0,0,1,.949-3.21h-.013a2.379,2.379,0,0,1,3.223.948h0a2.365,2.365,0,0,1-.949,3.21h0a2.276,2.276,0,0,1-1.124.3h0A2.368,2.368,0,0,1,2722.032-3447.163Zm-339.581-1.042a2.355,2.355,0,0,1,1.457-3.021h0a2.357,2.357,0,0,1,3.009,1.457h0a2.368,2.368,0,0,1-1.447,3.02h0a2.631,2.631,0,0,1-.792.131h0A2.374,2.374,0,0,1,2382.451-3448.205Zm36.958-.509a2.371,2.371,0,0,1-1.966-2.725h0a2.36,2.36,0,0,1,2.713-1.954h0a2.362,2.362,0,0,1,1.966,2.713h0a2.373,2.373,0,0,1-2.333,1.99h0C2419.658-3448.691,2419.526-3448.7,2419.409-3448.715Zm-19.687-3.4a2.37,2.37,0,0,1,2.262-2.475h0a2.378,2.378,0,0,1,2.476,2.262h0a2.36,2.36,0,0,1-2.262,2.464h0a.334.334,0,0,1-.106.012h0A2.379,2.379,0,0,1,2399.722-3452.115Zm337.592-4.157a2.362,2.362,0,0,1,.486-3.3h0a2.365,2.365,0,0,1,3.317.486h0a2.378,2.378,0,0,1-.486,3.317h0a2.422,2.422,0,0,1-1.409.462h0A2.349,2.349,0,0,1,2737.314-3456.272Z" transform="translate(-2382.315 3460.047)" fill="url(#linear-gradient)"/>
    </g>
    <g id="Group_2527" data-name="Group 2527" transform="translate(3.906 129.063)">
      <path id="Path_9122" data-name="Path 9122" d="M2565.407-3377.389a2.36,2.36,0,0,1,2.322-2.416h0a2.378,2.378,0,0,1,2.416,2.322h0a2.377,2.377,0,0,1-2.322,2.416h-.047A2.366,2.366,0,0,1,2565.407-3377.389Zm-15.673,1.339a2.372,2.372,0,0,1-2.036-2.665h0a2.377,2.377,0,0,1,2.676-2.037h0a2.376,2.376,0,0,1,2.025,2.677h0a2.368,2.368,0,0,1-2.344,2.037h0A2.893,2.893,0,0,1,2549.735-3376.05Zm33.394-2.476a2.389,2.389,0,0,1,2.037-2.665h0a2.383,2.383,0,0,1,2.665,2.037h0a2.373,2.373,0,0,1-2.037,2.665h0a2.94,2.94,0,0,1-.321.024h0A2.379,2.379,0,0,1,2583.128-3378.526Zm17.531-2.961a2.366,2.366,0,0,1,1.788-2.819h0a2.357,2.357,0,0,1,2.832,1.788h0a2.366,2.366,0,0,1-1.79,2.831h0a2.688,2.688,0,0,1-.52.059h0A2.364,2.364,0,0,1,2600.659-3381.487Zm-68.608,1.41v.012a2.384,2.384,0,0,1-1.576-2.961h0a2.38,2.38,0,0,1,2.961-1.575h0a2.374,2.374,0,0,1,1.575,2.961h0a2.366,2.366,0,0,1-2.262,1.67h0A2.375,2.375,0,0,1,2532.051-3380.077Zm85.842-5.745a2.376,2.376,0,0,1,1.6-2.949h0a2.369,2.369,0,0,1,2.948,1.6h0a2.366,2.366,0,0,1-1.6,2.938h0a2.234,2.234,0,0,1-.677.107h0A2.394,2.394,0,0,1,2617.893-3385.822Zm-102.745-.474a2.371,2.371,0,0,1-1.245-3.1h0a2.364,2.364,0,0,1,3.1-1.256h0a2.367,2.367,0,0,1,1.256,3.1h0a2.377,2.377,0,0,1-2.179,1.445h0A2.4,2.4,0,0,1,2515.147-3386.3Zm119.672-4.975a2.366,2.366,0,0,1,1.433-3.021h0a2.364,2.364,0,0,1,3.033,1.422h0a2.378,2.378,0,0,1-1.421,3.032h-.012a2.345,2.345,0,0,1-.793.142h0A2.391,2.391,0,0,1,2634.82-3391.271Zm-135.9-2.63h0a2.365,2.365,0,0,1-1.042-3.187h0a2.365,2.365,0,0,1,3.186-1.042h-.012a2.379,2.379,0,0,1,1.053,3.187h0a2.389,2.389,0,0,1-2.121,1.291h0A2.462,2.462,0,0,1,2498.919-3393.9Zm152.521-3.684a2.374,2.374,0,0,1,1.28-3.1h.012a2.375,2.375,0,0,1,3.092,1.279h0a2.385,2.385,0,0,1-1.28,3.1h0a2.45,2.45,0,0,1-.913.178h0A2.374,2.374,0,0,1,2651.44-3397.585Zm-168.3-4.667a2.359,2.359,0,0,1-.936-3.21h0a2.361,2.361,0,0,1,3.21-.948h0a2.366,2.366,0,0,1,.946,3.21h0a2.375,2.375,0,0,1-2.083,1.244h0A2.326,2.326,0,0,1,2483.141-3402.252Zm184.622-2.417a2.367,2.367,0,0,1,1.137-3.151h0a2.369,2.369,0,0,1,3.151,1.149h0a2.357,2.357,0,0,1-1.15,3.139h0a2.294,2.294,0,0,1-.994.225h0A2.345,2.345,0,0,1,2667.763-3404.668Zm-200.21-6.1a2.374,2.374,0,0,1-.96-3.21h0a2.378,2.378,0,0,1,3.21-.959h0a2.367,2.367,0,0,1,.958,3.21h0a2.361,2.361,0,0,1-2.084,1.244h0A2.432,2.432,0,0,1,2467.553-3410.769Zm216.213-1.646a2.364,2.364,0,0,1,1.03-3.187h0a2.358,2.358,0,0,1,3.185,1.019h0a2.364,2.364,0,0,1-1.029,3.186l.012.012a2.419,2.419,0,0,1-1.09.26h0A2.385,2.385,0,0,1,2683.766-3412.415Zm-231.908-6.432a2.365,2.365,0,0,1-1.113-3.162h0a2.37,2.37,0,0,1,3.163-1.1h0a2.357,2.357,0,0,1,1.1,3.151h0a2.362,2.362,0,0,1-2.132,1.35h0A2.368,2.368,0,0,1,2451.858-3418.847Zm247.615-1.919a2.368,2.368,0,0,1,.9-3.234h0a2.369,2.369,0,0,1,3.223.9h0a2.384,2.384,0,0,1-.9,3.234h0a2.287,2.287,0,0,1-1.16.3h0A2.343,2.343,0,0,1,2699.473-3420.766Zm-263.737-4.939a2.362,2.362,0,0,1-1.433-3.021h0a2.374,2.374,0,0,1,3.032-1.433h0a2.359,2.359,0,0,1,1.421,3.032h0a2.369,2.369,0,0,1-2.227,1.563h0A2.335,2.335,0,0,1,2435.736-3425.706Zm-53.233-1.516a2.371,2.371,0,0,1,1.185-3.139h0a2.381,2.381,0,0,1,3.139,1.185h0a2.365,2.365,0,0,1-1.185,3.127v.012a2.408,2.408,0,0,1-.971.213h0A2.392,2.392,0,0,1,2382.5-3427.222Zm332.332-2.511a2.367,2.367,0,0,1,.771-3.258h0a2.362,2.362,0,0,1,3.257.758h0a2.381,2.381,0,0,1-.771,3.269h0a2.353,2.353,0,0,1-1.244.355h0A2.373,2.373,0,0,1,2714.835-3429.733Zm-295.824-.415a2.366,2.366,0,0,1-1.955-2.724h0a2.355,2.355,0,0,1,2.713-1.955h0a2.378,2.378,0,0,1,1.967,2.713h0a2.366,2.366,0,0,1-2.347,1.99h0A2.091,2.091,0,0,1,2419.011-3430.148Zm-19.664-2.558a2.372,2.372,0,0,1,2.073-2.63h0a2.363,2.363,0,0,1,2.631,2.073h0a2.362,2.362,0,0,1-2.073,2.63h0a2.282,2.282,0,0,1-.272.024h0A2.38,2.38,0,0,1,2399.346-3432.706Zm330.45-6.657a2.373,2.373,0,0,1,.592-3.3h0a2.36,2.36,0,0,1,3.292.592h0a2.375,2.375,0,0,1-.592,3.305h.013a2.379,2.379,0,0,1-1.35.414h0A2.357,2.357,0,0,1,2729.8-3439.363Zm14.3-10.6a2.378,2.378,0,0,1,.2-3.352h0a2.365,2.365,0,0,1,3.342.2h0a2.353,2.353,0,0,1-.2,3.341h0a2.341,2.341,0,0,1-1.565.6h0A2.369,2.369,0,0,1,2744.093-3449.965Z" transform="translate(-2382.29 3453.913)" fill="url(#linear-gradient)"/>
    </g>
    <g id="Group_2528" data-name="Group 2528" transform="translate(3.907 150.544)">
      <path id="Path_9123" data-name="Path 9123" d="M2551.073-3358.347a2.364,2.364,0,0,1-2.18-2.535h0a2.367,2.367,0,0,1,2.548-2.179h0a2.363,2.363,0,0,1,2.179,2.535h0a2.373,2.373,0,0,1-2.358,2.191h0A1.1,1.1,0,0,1,2551.073-3358.347Zm15.577-2.476a2.365,2.365,0,0,1,2.131-2.582h0a2.367,2.367,0,0,1,2.583,2.132h0a2.359,2.359,0,0,1-2.133,2.582h0a1.4,1.4,0,0,1-.224.012h0A2.365,2.365,0,0,1,2566.651-3360.823Zm-33.463-.509a2.362,2.362,0,0,1-1.729-2.867h0a2.37,2.37,0,0,1,2.866-1.729h0a2.368,2.368,0,0,1,1.73,2.867h0a2.364,2.364,0,0,1-2.3,1.8h0A2.339,2.339,0,0,1,2533.188-3361.333Zm51.077-1.884a2.369,2.369,0,0,1,1.871-2.772h.012a2.349,2.349,0,0,1,2.771,1.871h0a2.369,2.369,0,0,1-1.872,2.772h0a2.014,2.014,0,0,1-.46.048h0A2.377,2.377,0,0,1,2584.265-3363.216Zm17.365-3.838a2.366,2.366,0,0,1,1.694-2.89h0a2.35,2.35,0,0,1,2.89,1.682h0a2.362,2.362,0,0,1-1.7,2.89h0a2.111,2.111,0,0,1-.6.083h0A2.372,2.372,0,0,1,2601.63-3367.054Zm-85.655.414a2.357,2.357,0,0,1-1.42-3.032h0a2.368,2.368,0,0,1,3.032-1.421h0a2.377,2.377,0,0,1,1.421,3.032h0a2.375,2.375,0,0,1-2.227,1.564h0A2.367,2.367,0,0,1,2515.975-3366.639Zm102.771-5.248a2.38,2.38,0,0,1,1.552-2.973h0a2.373,2.373,0,0,1,2.972,1.552h0a2.369,2.369,0,0,1-1.551,2.973h0a2.456,2.456,0,0,1-.712.107h0A2.381,2.381,0,0,1,2618.747-3371.887Zm-119.412-1.433a2.368,2.368,0,0,1-1.221-3.115h0a2.364,2.364,0,0,1,3.116-1.232h0a2.377,2.377,0,0,1,1.232,3.115h0a2.38,2.38,0,0,1-2.181,1.434h0A2.423,2.423,0,0,1,2499.334-3373.32Zm136.3-4.134a2.381,2.381,0,0,1,1.445-3.032h0a2.366,2.366,0,0,1,3.019,1.445h0a2.359,2.359,0,0,1-1.433,3.02h0a2.33,2.33,0,0,1-.793.142h0A2.378,2.378,0,0,1,2635.638-3377.454Zm-152.544-3.305h0a2.371,2.371,0,0,1-1.126-3.162h0a2.387,2.387,0,0,1,3.163-1.125h0a2.376,2.376,0,0,1,1.115,3.163h0a2.367,2.367,0,0,1-2.144,1.351h0A2.342,2.342,0,0,1,2483.094-3380.759Zm169.234-2.866a2.354,2.354,0,0,1,1.339-3.068h0a2.353,2.353,0,0,1,3.067,1.339h0a2.367,2.367,0,0,1-1.337,3.068h0a2.245,2.245,0,0,1-.865.166h0A2.36,2.36,0,0,1,2652.328-3383.625Zm-185.262-4.869a2.364,2.364,0,0,1-1.1-3.163h0a2.364,2.364,0,0,1,3.163-1.1h0a2.372,2.372,0,0,1,1.1,3.162h0a2.361,2.361,0,0,1-2.132,1.339h0A2.3,2.3,0,0,1,2467.066-3388.494Zm201.739-1.812a2.38,2.38,0,0,1,1.255-3.115h0a2.372,2.372,0,0,1,3.1,1.244h0a2.37,2.37,0,0,1-1.244,3.115h0a2.364,2.364,0,0,1-.936.19h0A2.378,2.378,0,0,1,2668.805-3390.306Zm-217.764-5.781a2.367,2.367,0,0,1-1.173-3.139h0a2.37,2.37,0,0,1,3.139-1.161h0a2.361,2.361,0,0,1,1.171,3.139h0a2.381,2.381,0,0,1-2.155,1.385h0A2.245,2.245,0,0,1,2451.041-3396.087Zm234.052-1.374a2.38,2.38,0,0,1,1.16-3.151h0a2.385,2.385,0,0,1,3.152,1.161h0a2.371,2.371,0,0,1-1.161,3.139h0a2.3,2.3,0,0,1-1,.225h0A2.371,2.371,0,0,1,2685.093-3397.461Zm-250.28-5.508a2.364,2.364,0,0,1-1.363-3.056h0a2.376,2.376,0,0,1,3.057-1.374h0a2.373,2.373,0,0,1,1.362,3.068h0a2.363,2.363,0,0,1-2.2,1.516h0A2.393,2.393,0,0,1,2434.813-3402.969Zm-52.037-1.67a2.362,2.362,0,0,1,.45-3.317h.012a2.364,2.364,0,0,1,3.316.45h0a2.375,2.375,0,0,1-.462,3.317h.012a2.353,2.353,0,0,1-1.433.486h0A2.37,2.37,0,0,1,2382.776-3404.639Zm318.391-.45a2.366,2.366,0,0,1,1.066-3.175h0a2.37,2.37,0,0,1,3.187,1.054h0a2.4,2.4,0,0,1-1.066,3.186h0a2.413,2.413,0,0,1-1.054.249h0A2.383,2.383,0,0,1,2701.167-3405.089Zm-282.985-3.115a2.384,2.384,0,0,1-1.777-2.843h0a2.374,2.374,0,0,1,2.843-1.777h0a2.366,2.366,0,0,1,1.777,2.843h0a2.365,2.365,0,0,1-2.31,1.836h0A2.8,2.8,0,0,1,2418.182-3408.2Zm-19.438-3.731a2.364,2.364,0,0,1,2.156-2.559h0a2.359,2.359,0,0,1,2.559,2.156h0a2.357,2.357,0,0,1-2.156,2.559h0a1.173,1.173,0,0,1-.2.012h0A2.37,2.37,0,0,1,2398.743-3411.936ZM2717-3413.227a2.364,2.364,0,0,1,.949-3.21h-.013a2.376,2.376,0,0,1,3.223.948h0a2.362,2.362,0,0,1-.949,3.21h0a2.328,2.328,0,0,1-1.137.3h0A2.347,2.347,0,0,1,2717-3413.227Zm15.483-8.777a2.365,2.365,0,0,1,.77-3.258h0a2.365,2.365,0,0,1,3.257.77h0a2.379,2.379,0,0,1-.77,3.269h0a2.377,2.377,0,0,1-1.244.344h0A2.331,2.331,0,0,1,2732.486-3422Zm14.807-9.879a2.356,2.356,0,0,1,.284-3.34h0a2.364,2.364,0,0,1,3.327.284h0a2.368,2.368,0,0,1-.283,3.341h0a2.311,2.311,0,0,1-1.516.557h0A2.347,2.347,0,0,1,2747.292-3431.884Z" transform="translate(-2382.29 3435.779)" fill="url(#linear-gradient)"/>
    </g>
    <g id="Group_2529" data-name="Group 2529" transform="translate(3.912 177.255)">
      <path id="Path_9124" data-name="Path 9124" d="M2547.756-3331.6h-.011a2.369,2.369,0,0,1-2.215-2.511h0a2.363,2.363,0,0,1,2.511-2.215h0a2.354,2.354,0,0,1,2.215,2.5h0a2.356,2.356,0,0,1-2.357,2.227h-.143Zm15.542-2.274a2.344,2.344,0,0,1,2.215-2.5h0a2.371,2.371,0,0,1,2.511,2.215h0a2.388,2.388,0,0,1-2.227,2.511h-.142A2.353,2.353,0,0,1,2563.3-3333.878Zm17.673-1.718a2.373,2.373,0,0,1,1.977-2.712h0a2.379,2.379,0,0,1,2.713,1.978h0a2.368,2.368,0,0,1-1.977,2.7h0a2.029,2.029,0,0,1-.367.036h0A2.386,2.386,0,0,1,2580.971-3335.6Zm-51.184,1.433a2.368,2.368,0,0,1-1.766-2.843h0a2.363,2.363,0,0,1,2.844-1.765h0a2.367,2.367,0,0,1,1.765,2.843h0a2.363,2.363,0,0,1-2.3,1.824h0A2.136,2.136,0,0,1,2529.787-3334.163Zm68.666-4.679a2.386,2.386,0,0,1,1.766-2.855h0a2.392,2.392,0,0,1,2.854,1.777h0a2.374,2.374,0,0,1-1.777,2.843h0a2.074,2.074,0,0,1-.545.059h0A2.355,2.355,0,0,1,2598.454-3338.842Zm-85.925-.723a2.373,2.373,0,0,1-1.34-3.08h0a2.377,2.377,0,0,1,3.069-1.339h0a2.373,2.373,0,0,1,1.339,3.08h0a2.38,2.38,0,0,1-2.2,1.5h0A2.47,2.47,0,0,1,2512.529-3339.564Zm103.137-3.719a2.359,2.359,0,0,1,1.586-2.949h0a2.365,2.365,0,0,1,2.951,1.587h0a2.365,2.365,0,0,1-1.587,2.95h0a2.224,2.224,0,0,1-.677.095h0A2.368,2.368,0,0,1,2615.666-3343.284Zm-119.5-3.838h0a2.368,2.368,0,0,1-.995-3.2h0a2.374,2.374,0,0,1,3.2-.995h0a2.359,2.359,0,0,1,.995,3.2h0a2.369,2.369,0,0,1-2.1,1.268h0A2.329,2.329,0,0,1,2496.17-3347.122Zm136.423-1.6a2.369,2.369,0,0,1,1.433-3.032h0a2.354,2.354,0,0,1,3.019,1.422h0a2.368,2.368,0,0,1-1.42,3.032h0a2.411,2.411,0,0,1-.807.142h0A2.367,2.367,0,0,1,2632.593-3348.721Zm16.631-6.3a2.365,2.365,0,0,1,1.279-3.1h0a2.372,2.372,0,0,1,3.092,1.291h0a2.374,2.374,0,0,1-1.28,3.092h0a2.447,2.447,0,0,1-.913.178h0A2.346,2.346,0,0,1,2649.224-3355.022Zm-168.594-1.031h.01a2.373,2.373,0,0,1-.781-3.269h0a2.365,2.365,0,0,1,3.257-.77h0a2.368,2.368,0,0,1,.781,3.257h0a2.364,2.364,0,0,1-2.026,1.125h0A2.376,2.376,0,0,1,2480.629-3356.053Zm184.905-6.053a2.367,2.367,0,0,1,1.138-3.151h0a2.381,2.381,0,0,1,3.149,1.149h0a2.362,2.362,0,0,1-1.148,3.151h0a2.484,2.484,0,0,1-1,.225h0A2.369,2.369,0,0,1,2665.535-3362.106Zm-199.937-3.53a2.383,2.383,0,0,1-.7-3.281h0a2.383,2.383,0,0,1,3.282-.7h0a2.381,2.381,0,0,1,.7,3.281h0a2.371,2.371,0,0,1-1.99,1.078h0A2.368,2.368,0,0,1,2465.6-3365.636Zm215.9-4.276a2.375,2.375,0,0,1,1.007-3.2h0a2.383,2.383,0,0,1,3.2,1h0a2.377,2.377,0,0,1-.994,3.2h-.012a2.252,2.252,0,0,1-1.09.273h0A2.364,2.364,0,0,1,2681.5-3369.912Zm-230.865-5.176a2.381,2.381,0,0,1-.806-3.258h0a2.381,2.381,0,0,1,3.258-.805h0v.012h0a2.364,2.364,0,0,1,.805,3.245h0a2.394,2.394,0,0,1-2.037,1.149h0A2.44,2.44,0,0,1,2450.637-3375.088Zm246.477-3.353a2.363,2.363,0,0,1,.841-3.234h0a2.376,2.376,0,0,1,3.247.841h0a2.368,2.368,0,0,1-.853,3.246h0a2.387,2.387,0,0,1-1.2.32h0A2.349,2.349,0,0,1,2697.114-3378.441Zm-261.852-5.022a2.371,2.371,0,0,1-1.137-3.151h0a2.368,2.368,0,0,1,3.151-1.137h0a2.367,2.367,0,0,1,1.137,3.151h0a2.359,2.359,0,0,1-2.145,1.363h0A2.3,2.3,0,0,1,2435.262-3383.463Zm277.015-4.264a2.367,2.367,0,0,1,.663-3.281h0a2.367,2.367,0,0,1,3.281.664h0a2.367,2.367,0,0,1-.664,3.281h0a2.333,2.333,0,0,1-1.316.391h0A2.349,2.349,0,0,1,2712.277-3387.727Zm-329.845-1.647a2.368,2.368,0,0,1,1.445-3.02h0a2.375,2.375,0,0,1,3.021,1.457h0a2.355,2.355,0,0,1-1.457,3.02h0a2.257,2.257,0,0,1-.782.131h0A2.345,2.345,0,0,1,2382.431-3389.374Zm36.613-.036h0a2.379,2.379,0,0,1-1.73-2.866h0a2.377,2.377,0,0,1,2.88-1.729h0a2.361,2.361,0,0,1,1.717,2.867h0a2.364,2.364,0,0,1-2.3,1.8h0A2.4,2.4,0,0,1,2419.044-3389.41Zm-19.378-4.051a2.371,2.371,0,0,1,2.263-2.475h0a2.371,2.371,0,0,1,2.475,2.262h0a2.372,2.372,0,0,1-2.262,2.476h-.107A2.379,2.379,0,0,1,2399.666-3393.461Zm327.192-4.442a2.351,2.351,0,0,1,.438-3.317h0a2.36,2.36,0,0,1,3.317.427h0a2.366,2.366,0,0,1-.439,3.329h0a2.325,2.325,0,0,1-1.432.485h0A2.371,2.371,0,0,1,2726.858-3397.9Zm13.717-11.324a2.349,2.349,0,0,1,.07-3.34h0a2.363,2.363,0,0,1,3.352.071h0a2.384,2.384,0,0,1-.07,3.352h0a2.38,2.38,0,0,1-1.646.652h0A2.314,2.314,0,0,1,2740.575-3409.227Z" transform="translate(-2382.295 3413.229)" fill="url(#linear-gradient)"/>
    </g>
    <g id="Group_2530" data-name="Group 2530" transform="translate(0.039 204.447)">
      <path id="Path_9125" data-name="Path 9125" d="M2563.653-3317.54a2.361,2.361,0,0,1,2.346-2.392h0a2.378,2.378,0,0,1,2.392,2.357h0a2.369,2.369,0,0,1-2.358,2.381h-.022A2.353,2.353,0,0,1,2563.653-3317.54Zm-15.637,1.446a2.367,2.367,0,0,1-2.084-2.618h0a2.354,2.354,0,0,1,2.618-2.085h0a2.37,2.37,0,0,1,2.083,2.618h0a2.365,2.365,0,0,1-2.344,2.1h0A2.139,2.139,0,0,1,2548.016-3316.094Zm33.381-2.263a2.37,2.37,0,0,1,2.1-2.618h0a2.389,2.389,0,0,1,2.618,2.108h0a2.377,2.377,0,0,1-2.11,2.606h0a1.885,1.885,0,0,1-.26.012h0A2.359,2.359,0,0,1,2581.4-3318.357Zm17.59-2.464a2.368,2.368,0,0,1,1.883-2.772h0a2.385,2.385,0,0,1,2.771,1.884h0a2.37,2.37,0,0,1-1.882,2.772h0a1.933,1.933,0,0,1-.45.047h0A2.367,2.367,0,0,1,2598.987-3320.82Zm-68.75,1.457a2.373,2.373,0,0,1-1.706-2.891h0a2.356,2.356,0,0,1,2.878-1.706h0a2.372,2.372,0,0,1,1.7,2.89h0a2.373,2.373,0,0,1-2.3,1.777h0A2.443,2.443,0,0,1,2530.237-3319.363Zm86.1-5.26a2.371,2.371,0,0,1,1.694-2.89h0a2.366,2.366,0,0,1,2.89,1.682h0a2.36,2.36,0,0,1-1.683,2.89h0a2.119,2.119,0,0,1-.6.083h0A2.373,2.373,0,0,1,2616.341-3324.623Zm-103.269-.213h0a2.357,2.357,0,0,1-1.385-3.044h0a2.367,2.367,0,0,1,3.056-1.386h0a2.387,2.387,0,0,1,1.386,3.056h0a2.387,2.387,0,0,1-2.227,1.528h0A2.289,2.289,0,0,1,2513.072-3324.836Zm120.362-4.714a2.366,2.366,0,0,1,1.516-2.985h0a2.361,2.361,0,0,1,2.985,1.5h0a2.389,2.389,0,0,1-1.5,3h0a2.337,2.337,0,0,1-.746.119h0A2.381,2.381,0,0,1,2633.434-3329.55Zm-136.885-2.286h0a2.383,2.383,0,0,1-1.149-3.151h0a2.376,2.376,0,0,1,3.161-1.137h-.01a2.355,2.355,0,0,1,1.148,3.139h0a2.366,2.366,0,0,1-2.143,1.374h0A2.357,2.357,0,0,1,2496.549-3331.836Zm153.67-3.589a2.353,2.353,0,0,1,1.349-3.056h0a2.371,2.371,0,0,1,3.069,1.351h0a2.376,2.376,0,0,1-1.362,3.068h0a2.41,2.41,0,0,1-.853.154h0A2.36,2.36,0,0,1,2650.219-3335.426Zm-169.674-4.335h0a2.376,2.376,0,0,1-1.017-3.2h0a2.382,2.382,0,0,1,3.2-1.019h0a2.386,2.386,0,0,1,1.02,3.2h0a2.376,2.376,0,0,1-2.109,1.279h0A2.385,2.385,0,0,1,2480.545-3339.761Zm186.138-2.369a2.353,2.353,0,0,1,1.208-3.116h0a2.369,2.369,0,0,1,3.126,1.208h0a2.369,2.369,0,0,1-1.207,3.127h0a2.49,2.49,0,0,1-.96.2h0A2.37,2.37,0,0,1,2666.683-3342.13Zm-201.892-5.876a2.371,2.371,0,0,1-1.007-3.2h0a2.371,2.371,0,0,1,3.2-1.007h0a2.371,2.371,0,0,1,1.007,3.2h0a2.372,2.372,0,0,1-2.108,1.267h0A2.411,2.411,0,0,1,2464.792-3348.006Zm218.037-1.563a2.382,2.382,0,0,1,1.078-3.175h0a2.372,2.372,0,0,1,3.175,1.078h0a2.371,2.371,0,0,1-1.078,3.174h0a2.33,2.33,0,0,1-1.042.249h0A2.374,2.374,0,0,1,2682.828-3349.569Zm-233.839-6.326a2.372,2.372,0,0,1-1.149-3.151h0a2.381,2.381,0,0,1,3.15-1.149h0a2.368,2.368,0,0,1,1.138,3.151h0a2.334,2.334,0,0,1-2.144,1.362h0A2.454,2.454,0,0,1,2448.99-3355.895Zm249.663-1.789a2.373,2.373,0,0,1,.936-3.222h0a2.375,2.375,0,0,1,3.223.936h0a2.378,2.378,0,0,1-.948,3.222h0a2.283,2.283,0,0,1-1.124.3h0A2.381,2.381,0,0,1,2698.653-3357.683Zm-265.856-4.9a2.356,2.356,0,0,1-1.458-3.021h0a2.367,2.367,0,0,1,3.009-1.457h0a2.381,2.381,0,0,1,1.47,3.021h0a2.374,2.374,0,0,1-2.239,1.587h0A2.261,2.261,0,0,1,2432.8-3362.587Zm-53.635-2.973a2.35,2.35,0,0,1,1.444-3.009h.014a2.346,2.346,0,0,1,3.008,1.457h0a2.352,2.352,0,0,1-1.446,3.009h0a2.3,2.3,0,0,1-.781.13h0A2.361,2.361,0,0,1,2379.161-3365.56Zm334.951-.912a2.37,2.37,0,0,1,.806-3.257h0a2.367,2.367,0,0,1,3.246.794h0a2.36,2.36,0,0,1-.794,3.257h0a2.3,2.3,0,0,1-1.22.344h0A2.38,2.38,0,0,1,2714.112-3366.472Zm-298.076-.474h0a2.369,2.369,0,0,1-1.968-2.713h0a2.379,2.379,0,0,1,2.712-1.966h0a2.379,2.379,0,0,1,1.968,2.713h0a2.374,2.374,0,0,1-2.333,2h0A2.043,2.043,0,0,1,2416.036-3366.946Zm-19.675-2.914a2.362,2.362,0,0,1,2.168-2.547h0a2.372,2.372,0,0,1,2.557,2.167h0a2.371,2.371,0,0,1-2.178,2.547h0a.957.957,0,0,1-.191.012h0A2.363,2.363,0,0,1,2396.361-3369.86Zm332.793-6.112a2.376,2.376,0,0,1,.629-3.293h0a2.366,2.366,0,0,1,3.293.628h0a2.379,2.379,0,0,1-.628,3.293h0a2.358,2.358,0,0,1-1.327.4h0A2.375,2.375,0,0,1,2729.154-3375.972Zm14.429-10.424a2.375,2.375,0,0,1,.308-3.329h0a2.369,2.369,0,0,1,3.34.308h0a2.365,2.365,0,0,1-.309,3.328h0a2.357,2.357,0,0,1-1.515.545h0A2.36,2.36,0,0,1,2743.583-3386.4Z" transform="translate(-2379.025 3390.274)" fill="url(#linear-gradient)"/>
    </g>
    <g id="Group_2531" data-name="Group 2531" transform="translate(0.038 226.955)">
      <path id="Path_9126" data-name="Path 9126" d="M2563.049-3297.533a2.355,2.355,0,0,1,2.3-2.44h0a2.367,2.367,0,0,1,2.441,2.287h0a2.38,2.38,0,0,1-2.3,2.452h-.07A2.377,2.377,0,0,1,2563.049-3297.533Zm-15.648,1.587a2.361,2.361,0,0,1-2.073-2.63h0a2.362,2.362,0,0,1,2.63-2.073h0a2.362,2.362,0,0,1,2.073,2.63h0a2.356,2.356,0,0,1-2.345,2.085h0A2.26,2.26,0,0,1,2547.4-3295.945Zm33.368-2.89a2.367,2.367,0,0,1,2.014-2.677h0a2.369,2.369,0,0,1,2.677,2.014h0a2.37,2.37,0,0,1-2.014,2.677h0c-.118.012-.225.024-.333.024h0A2.369,2.369,0,0,1,2580.769-3298.836Zm-51.114-.841a2.37,2.37,0,0,1-1.623-2.926h0a2.378,2.378,0,0,1,2.939-1.623h0a2.387,2.387,0,0,1,1.623,2.938h0a2.389,2.389,0,0,1-2.274,1.706h0A2.154,2.154,0,0,1,2529.655-3299.677Zm68.633-2.167a2.372,2.372,0,0,1,1.8-2.831h0a2.366,2.366,0,0,1,2.819,1.789h0a2.363,2.363,0,0,1-1.788,2.831h0a2.731,2.731,0,0,1-.521.059h0A2.365,2.365,0,0,1,2598.288-3301.844Zm17.259-4.3a2.36,2.36,0,0,1,1.611-2.938h0a2.37,2.37,0,0,1,2.938,1.611h0a2.387,2.387,0,0,1-1.623,2.938h0a2.492,2.492,0,0,1-.665.095h0A2.363,2.363,0,0,1,2615.547-3306.144Zm-102.9.6a2.371,2.371,0,0,1-1.327-3.08h0a2.353,2.353,0,0,1,3.068-1.327h.012a2.373,2.373,0,0,1,1.326,3.068h0a2.393,2.393,0,0,1-2.215,1.5h0A2.476,2.476,0,0,1,2512.647-3305.54Zm119.863-5.911a2.363,2.363,0,0,1,1.469-3.009h0a2.357,2.357,0,0,1,3.009,1.457h0a2.384,2.384,0,0,1-1.458,3.021h0a2.553,2.553,0,0,1-.781.131h0A2.373,2.373,0,0,1,2632.51-3311.451Zm-136.293-1.244a2.367,2.367,0,0,1-1.137-3.151h0a2.362,2.362,0,0,1,3.151-1.149h0a2.367,2.367,0,0,1,1.138,3.151h0a2.359,2.359,0,0,1-2.144,1.362h0A2.477,2.477,0,0,1,2496.217-3312.695Zm152.995-4.868a2.366,2.366,0,0,1,1.326-3.08h0a2.375,2.375,0,0,1,3.08,1.327h0a2.377,2.377,0,0,1-1.327,3.068h0a2.36,2.36,0,0,1-.877.178h0A2.368,2.368,0,0,1,2649.212-3317.563Zm-169.021-2.985h0a2.351,2.351,0,0,1-1.054-3.174h0a2.378,2.378,0,0,1,3.185-1.054h0a2.38,2.38,0,0,1,1.056,3.186h0a2.381,2.381,0,0,1-2.12,1.3h0A2.318,2.318,0,0,1,2480.19-3320.548Zm185.438-3.838a2.381,2.381,0,0,1,1.209-3.127h0a2.371,2.371,0,0,1,3.127,1.208h0a2.37,2.37,0,0,1-1.208,3.127h0a2.454,2.454,0,0,1-.959.2h0A2.4,2.4,0,0,1,2665.628-3324.386Zm-201.3-4.181h0a2.375,2.375,0,0,1-1.056-3.175h0a2.371,2.371,0,0,1,3.188-1.054h0a2.372,2.372,0,0,1,1.053,3.174h0a2.377,2.377,0,0,1-2.12,1.315h0A2.322,2.322,0,0,1,2464.33-3328.567Zm217.468-3.246a2.373,2.373,0,0,1,1.09-3.174h0a2.369,2.369,0,0,1,3.163,1.09h0a2.369,2.369,0,0,1-1.09,3.174h0a2.3,2.3,0,0,1-1.031.237h0A2.359,2.359,0,0,1,2681.8-3331.813Zm-233.4-4.406a2.377,2.377,0,0,1-1.185-3.139h0a2.376,2.376,0,0,1,3.139-1.184h0a2.388,2.388,0,0,1,1.185,3.139h0a2.394,2.394,0,0,1-2.168,1.4h0A2.391,2.391,0,0,1,2448.4-3336.219Zm249.285-3.589a2.37,2.37,0,0,1,.983-3.21h0a2.358,2.358,0,0,1,3.2.983h0a2.356,2.356,0,0,1-.982,3.2h0a2.348,2.348,0,0,1-1.1.284h0A2.379,2.379,0,0,1,2697.683-3339.809Zm-318.332-2.7a2.373,2.373,0,0,1,.841-3.246h0a2.376,2.376,0,0,1,3.246.841h0a2.375,2.375,0,0,1-.841,3.246h0a2.452,2.452,0,0,1-1.2.32h0A2.368,2.368,0,0,1,2379.351-3342.509Zm52.782-.284a2.354,2.354,0,0,1-1.468-3.009h0a2.367,2.367,0,0,1,3.009-1.469h0a2.371,2.371,0,0,1,1.468,3.009h0a2.371,2.371,0,0,1-2.238,1.6h0A2.145,2.145,0,0,1,2432.133-3342.794Zm-16.772-4.312a2.369,2.369,0,0,1-1.99-2.7h0a2.373,2.373,0,0,1,2.712-1.979h-.012a2.384,2.384,0,0,1,1.989,2.7h0a2.386,2.386,0,0,1-2.344,2.014h0A1.8,1.8,0,0,1,2415.361-3347.105Zm297.922-1.256a2.368,2.368,0,0,1,.864-3.246h0a2.377,2.377,0,0,1,3.235.865h0a2.363,2.363,0,0,1-.866,3.234h0a2.257,2.257,0,0,1-1.185.32h0A2.354,2.354,0,0,1,2713.283-3348.361Zm-317.6-.924a2.367,2.367,0,0,1,1.99-2.7h-.012a2.356,2.356,0,0,1,2.7,1.99h0a2.368,2.368,0,0,1-1.978,2.7h0c-.119.012-.237.024-.357.024h0A2.368,2.368,0,0,1,2395.686-3349.285Zm332.854-8.232a2.375,2.375,0,0,1,.709-3.281h0a2.372,2.372,0,0,1,3.271.722h0a2.361,2.361,0,0,1-.71,3.269h0a2.4,2.4,0,0,1-1.28.379h0A2.365,2.365,0,0,1,2728.54-3357.517Zm14.759-9.95a2.369,2.369,0,0,1,.461-3.328h0a2.377,2.377,0,0,1,3.318.462h0a2.377,2.377,0,0,1-.462,3.317h0a2.329,2.329,0,0,1-1.434.486h0A2.347,2.347,0,0,1,2743.3-3367.468Z" transform="translate(-2379.024 3371.272)" fill="url(#linear-gradient)"/>
    </g>
    <g id="Group_2532" data-name="Group 2532" transform="translate(0.038 253.879)">
      <path id="Path_9127" data-name="Path 9127" d="M2560.076-3276.544a2.375,2.375,0,0,1,2.345-2.393h0a2.387,2.387,0,0,1,2.4,2.345h0a2.368,2.368,0,0,1-2.346,2.393h-.022A2.372,2.372,0,0,1,2560.076-3276.544Zm-15.684,1.185a2.367,2.367,0,0,1-2-2.689h0a2.38,2.38,0,0,1,2.7-2h0a2.377,2.377,0,0,1,1.989,2.7h0a2.364,2.364,0,0,1-2.333,2.014h0C2544.629-3275.335,2544.51-3275.347,2544.392-3275.359Zm33.428-2.156a2.369,2.369,0,0,1,2.061-2.641h0a2.379,2.379,0,0,1,2.64,2.061h0a2.354,2.354,0,0,1-2.06,2.641h0a2.469,2.469,0,0,1-.3.024h0A2.373,2.373,0,0,1,2577.82-3277.515Zm17.555-2.76a2.374,2.374,0,0,1,1.836-2.808h0a2.366,2.366,0,0,1,2.807,1.836h0a2.376,2.376,0,0,1-1.836,2.807h0a3.565,3.565,0,0,1-.486.047h0A2.378,2.378,0,0,1,2595.375-3280.275Zm-68.62.639a2.367,2.367,0,0,1-1.516-2.985h0a2.362,2.362,0,0,1,2.984-1.516h0a2.376,2.376,0,0,1,1.529,2.985h0a2.387,2.387,0,0,1-2.264,1.635h0A2.32,2.32,0,0,1,2526.755-3279.635Zm85.925-4.738a2.37,2.37,0,0,1,1.635-2.926h0a2.368,2.368,0,0,1,2.926,1.647h0a2.36,2.36,0,0,1-1.646,2.914h0a2.386,2.386,0,0,1-.64.095h0A2.366,2.366,0,0,1,2612.679-3284.374Zm-102.7-1.812a2.383,2.383,0,0,1-1.2-3.139h0a2.368,2.368,0,0,1,3.14-1.185h0a2.361,2.361,0,0,1,1.185,3.128h0a2.367,2.367,0,0,1-2.168,1.4h0A2.491,2.491,0,0,1,2509.982-3286.186Zm119.709-3.341a2.381,2.381,0,0,1,1.491-3.009h0a2.372,2.372,0,0,1,3,1.481h0a2.365,2.365,0,0,1-1.48,3.009h0a2.427,2.427,0,0,1-.758.13h0A2.376,2.376,0,0,1,2629.69-3289.526Zm-135.783-4.62h0a2.358,2.358,0,0,1-.983-3.2h0a2.373,2.373,0,0,1,3.21-.983h0a2.381,2.381,0,0,1,.971,3.21h0a2.376,2.376,0,0,1-2.085,1.256h0A2.352,2.352,0,0,1,2493.907-3294.146Zm152.531-1.386a2.374,2.374,0,0,1,1.34-3.068h0a2.371,2.371,0,0,1,3.068,1.35h0a2.367,2.367,0,0,1-1.338,3.068h0a2.5,2.5,0,0,1-.865.166h0A2.364,2.364,0,0,1,2646.439-3295.532Zm16.466-6.7a2.368,2.368,0,0,1,1.22-3.115h0a2.383,2.383,0,0,1,3.127,1.22h0a2.364,2.364,0,0,1-1.232,3.116h0a2.246,2.246,0,0,1-.948.2h0A2.369,2.369,0,0,1,2662.9-3302.236Zm-184.586-.6a2.371,2.371,0,0,1-.878-3.234h0a2.371,2.371,0,0,1,3.235-.876h0a2.38,2.38,0,0,1,.877,3.245h0a2.386,2.386,0,0,1-2.061,1.185h0A2.331,2.331,0,0,1,2478.319-3302.84Zm200.789-6.728a2.367,2.367,0,0,1,1.115-3.163h0a2.372,2.372,0,0,1,3.163,1.113h0a2.39,2.39,0,0,1-1.115,3.163h0a2.446,2.446,0,0,1-1.03.225h0A2.354,2.354,0,0,1,2679.108-3309.568Zm-216.164-2.2a2.366,2.366,0,0,1-.865-3.234h0a2.356,2.356,0,0,1,3.234-.865h0a2.353,2.353,0,0,1,.865,3.234h0a2.368,2.368,0,0,1-2.049,1.185h0A2.4,2.4,0,0,1,2462.944-3311.772Zm232.1-5.709a2.358,2.358,0,0,1,.994-3.186h0a2.359,2.359,0,0,1,3.2,1h0a2.358,2.358,0,0,1-1,3.2h0a2.306,2.306,0,0,1-1.1.272h0A2.355,2.355,0,0,1,2695.041-3317.481Zm-247.544-2.926a2.372,2.372,0,0,1-.983-3.2h0a2.369,2.369,0,0,1,3.21-.983h0a2.38,2.38,0,0,1,.983,3.21h0a2.38,2.38,0,0,1-2.1,1.256h0A2.354,2.354,0,0,1,2447.5-3320.407Zm263.191-5.532a2.353,2.353,0,0,1,.888-3.222h-.012a2.361,2.361,0,0,1,3.234.876h0a2.367,2.367,0,0,1-.877,3.234h0a2.32,2.32,0,0,1-1.173.308h0A2.357,2.357,0,0,1,2710.689-3325.939Zm-279.006-2.085h0a2.371,2.371,0,0,1-1.266-3.1h0a2.385,2.385,0,0,1,3.115-1.267h-.013a2.368,2.368,0,0,1,1.269,3.1h0a2.366,2.366,0,0,1-2.18,1.445h0A2.522,2.522,0,0,1,2431.683-3328.023Zm-52.332-2.168a2.372,2.372,0,0,1,.841-3.246h0a2.373,2.373,0,0,1,3.246.841h0a2.375,2.375,0,0,1-.841,3.245h0a2.447,2.447,0,0,1-1.2.32h0A2.367,2.367,0,0,1,2379.351-3330.191Zm35.892-3.258a2.372,2.372,0,0,1-1.8-2.831h0a2.365,2.365,0,0,1,2.819-1.8h0a2.381,2.381,0,0,1,1.812,2.831h0a2.39,2.39,0,0,1-2.323,1.86h0A2.575,2.575,0,0,1,2415.243-3333.449ZM2726-3334.977a2.382,2.382,0,0,1,.747-3.269h0a2.372,2.372,0,0,1,3.269.735h0a2.366,2.366,0,0,1-.746,3.269h0a2.342,2.342,0,0,1-1.257.367h0A2.373,2.373,0,0,1,2726-3334.977Zm-330.236-1.729a2.353,2.353,0,0,1,2.1-2.606h0a2.369,2.369,0,0,1,2.618,2.1h0a2.374,2.374,0,0,1-2.1,2.606h0a2.04,2.04,0,0,1-.262.012h0A2.361,2.361,0,0,1,2395.769-3336.706Zm345.1-8.067a2.38,2.38,0,0,1,.52-3.317h0a2.367,2.367,0,0,1,3.305.521h0a2.369,2.369,0,0,1-.508,3.317h0a2.373,2.373,0,0,1-1.4.45h0A2.352,2.352,0,0,1,2740.871-3344.773Z" transform="translate(-2379.024 3348.542)" fill="url(#linear-gradient)"/>
    </g>
    <g id="Group_2533" data-name="Group 2533" transform="translate(97.723 315.099)">
      <path id="Path_9128" data-name="Path 9128" d="M2564.685-3273.181a2.379,2.379,0,0,1,2.359-2.393h0a2.364,2.364,0,0,1,2.379,2.345h0a2.367,2.367,0,0,1-2.344,2.393h-.025A2.373,2.373,0,0,1,2564.685-3273.181Zm-15.5,2.026a2.4,2.4,0,0,1-2.263-2.476h0a2.372,2.372,0,0,1,2.477-2.262h0a2.369,2.369,0,0,1,2.261,2.476h0a2.37,2.37,0,0,1-2.369,2.263h-.105Zm33.272-2.535a2.374,2.374,0,0,1,2.215-2.523h0a2.372,2.372,0,0,1,2.513,2.215h0a2.361,2.361,0,0,1-2.2,2.511h-.013a.614.614,0,0,1-.153.012h0A2.371,2.371,0,0,1,2582.453-3273.691Zm-51.136,1.208a2.377,2.377,0,0,1-2.107-2.606h0a2.367,2.367,0,0,1,2.6-2.109h0a2.365,2.365,0,0,1,2.109,2.594h0a2.383,2.383,0,0,1-2.358,2.132h0C2531.484-3272.471,2531.4-3272.483,2531.317-3272.483Zm68.846-2.748a2.371,2.371,0,0,1,2.049-2.654h0a2.377,2.377,0,0,1,2.652,2.049h0a2.373,2.373,0,0,1-2.048,2.654h0a2.955,2.955,0,0,1-.308.024h0A2.372,2.372,0,0,1,2600.164-3275.231Zm-86.6.3h0a2.365,2.365,0,0,1-1.932-2.736h0a2.377,2.377,0,0,1,2.749-1.931h-.012a2.364,2.364,0,0,1,1.931,2.736h0a2.358,2.358,0,0,1-2.322,1.966h0A2.415,2.415,0,0,1,2513.562-3274.935Zm104.156-3.08a2.372,2.372,0,0,1,1.8-2.831h0a2.374,2.374,0,0,1,2.819,1.8h0a2.37,2.37,0,0,1-1.8,2.831h0a2.609,2.609,0,0,1-.509.059h0A2.366,2.366,0,0,1,2617.718-3278.014ZM2496-3278.737a2.365,2.365,0,0,1-1.682-2.89h0a2.377,2.377,0,0,1,2.9-1.694h0a2.384,2.384,0,0,1,1.682,2.9h0a2.387,2.387,0,0,1-2.3,1.765h0A2.185,2.185,0,0,1,2496-3278.737Zm138.839-4.016a2.362,2.362,0,0,1,1.256-3.1h0a2.363,2.363,0,0,1,3.1,1.256h0a2.364,2.364,0,0,1-1.256,3.1h0a2.354,2.354,0,0,1-.924.19h0A2.364,2.364,0,0,1,2634.835-3282.752Zm-155.991-1.575a2.369,2.369,0,0,1-1.326-3.08h0a2.367,2.367,0,0,1,3.08-1.327h0a2.369,2.369,0,0,1,1.327,3.08h0a2.394,2.394,0,0,1-2.2,1.493h0A2.5,2.5,0,0,1,2478.843-3284.328Zm-16.252-8.161h0a2.375,2.375,0,0,1-.734-3.269h0a2.377,2.377,0,0,1,3.27-.735h0a2.364,2.364,0,0,1,.734,3.269h0a2.371,2.371,0,0,1-2,1.1h0A2.35,2.35,0,0,1,2462.592-3292.489Z" transform="translate(-2461.491 3296.859)" fill="url(#linear-gradient)"/>
    </g>
    <g id="Group_2534" data-name="Group 2534" transform="translate(97.723 336.234)">
      <path id="Path_9129" data-name="Path 9129" d="M2564.685-3255.342a2.37,2.37,0,0,1,2.359-2.381h0a2.356,2.356,0,0,1,2.379,2.345h0a2.375,2.375,0,0,1-2.344,2.393h-.025A2.383,2.383,0,0,1,2564.685-3255.342Zm-15.5,2.025a2.387,2.387,0,0,1-2.263-2.475h0a2.388,2.388,0,0,1,2.477-2.263h0a2.369,2.369,0,0,1,2.261,2.476h0a2.366,2.366,0,0,1-2.356,2.262h-.119Zm33.272-2.535a2.364,2.364,0,0,1,2.215-2.511h0a2.364,2.364,0,0,1,2.513,2.215h0a2.361,2.361,0,0,1-2.2,2.511h-.155A2.373,2.373,0,0,1,2582.453-3255.851Zm-51.136,1.208a2.37,2.37,0,0,1-2.107-2.606h0a2.384,2.384,0,0,1,2.6-2.108h0a2.376,2.376,0,0,1,2.109,2.606h0a2.373,2.373,0,0,1-2.358,2.12h0A1.782,1.782,0,0,1,2531.317-3254.643Zm68.846-2.736a2.364,2.364,0,0,1,2.049-2.654h0a2.368,2.368,0,0,1,2.652,2.037h0a2.373,2.373,0,0,1-2.048,2.654h0a1.405,1.405,0,0,1-.308.024h0A2.372,2.372,0,0,1,2600.164-3257.379Zm-86.6.3h0a2.371,2.371,0,0,1-1.932-2.736h0a2.377,2.377,0,0,1,2.749-1.931h-.012a2.364,2.364,0,0,1,1.931,2.736h0a2.372,2.372,0,0,1-2.333,1.966h0A2.408,2.408,0,0,1,2513.562-3257.083Zm104.156-3.092a2.36,2.36,0,0,1,1.8-2.819h0a2.365,2.365,0,0,1,2.819,1.8h0a2.358,2.358,0,0,1-1.8,2.819h0a1.966,1.966,0,0,1-.522.059h0A2.363,2.363,0,0,1,2617.718-3260.175ZM2496-3260.9a2.359,2.359,0,0,1-1.682-2.89h0a2.362,2.362,0,0,1,2.9-1.683h0a2.367,2.367,0,0,1,1.682,2.891h0a2.37,2.37,0,0,1-2.285,1.765h0A2.2,2.2,0,0,1,2496-3260.9Zm138.839-4a2.379,2.379,0,0,1,1.256-3.115h0a2.373,2.373,0,0,1,3.1,1.256h0a2.381,2.381,0,0,1-1.256,3.115h0a2.529,2.529,0,0,1-.924.19h0A2.364,2.364,0,0,1,2634.835-3264.9Zm-155.991-1.587a2.365,2.365,0,0,1-1.326-3.08h0a2.371,2.371,0,0,1,3.08-1.314h0a2.356,2.356,0,0,1,1.327,3.068h0a2.375,2.375,0,0,1-2.2,1.492h0A2.26,2.26,0,0,1,2478.843-3266.488Zm-16.252-8.162h0a2.372,2.372,0,0,1-.734-3.269h0a2.363,2.363,0,0,1,3.27-.722h0a2.364,2.364,0,0,1,.734,3.269h0a2.372,2.372,0,0,1-2,1.1h0A2.265,2.265,0,0,1,2462.592-3274.65Z" transform="translate(-2461.491 3279.017)" fill="url(#linear-gradient)"/>
    </g>
    <g id="Group_2535" data-name="Group 2535" transform="translate(94.631 355.077)">
      <path id="Path_9130" data-name="Path 9130" d="M2579.513-3234.729a2.378,2.378,0,0,1,2.285-2.452h0a2.361,2.361,0,0,1,2.453,2.274h0a2.372,2.372,0,0,1-2.274,2.464h-.1A2.374,2.374,0,0,1,2579.513-3234.729Zm-15.506,2.132a2.358,2.358,0,0,1-2.251-2.487h0a2.37,2.37,0,0,1,2.488-2.239h0a2.371,2.371,0,0,1,2.25,2.488h0a2.374,2.374,0,0,1-2.369,2.25h0A.363.363,0,0,1,2564.007-3232.6Zm33.226-3.4a2.35,2.35,0,0,1,2.026-2.665h0a2.355,2.355,0,0,1,2.665,2.014h0a2.369,2.369,0,0,1-2.025,2.677h0a2.927,2.927,0,0,1-.32.024h0A2.371,2.371,0,0,1,2597.234-3236Zm-51.1,1.8h0a2.36,2.36,0,0,1-2.049-2.642h0a2.374,2.374,0,0,1,2.654-2.061h-.012a2.372,2.372,0,0,1,2.06,2.653h0a2.372,2.372,0,0,1-2.344,2.073h0A2.739,2.739,0,0,1,2546.133-3234.2Zm-17.7-2.867a2.371,2.371,0,0,1-1.861-2.784h0a2.377,2.377,0,0,1,2.785-1.872h0a2.37,2.37,0,0,1,1.86,2.784h0a2.367,2.367,0,0,1-2.322,1.919h0A2.019,2.019,0,0,1,2528.436-3237.062Zm86.269-2.1a2.372,2.372,0,0,1,1.693-2.891h0a2.368,2.368,0,0,1,2.892,1.694h0a2.376,2.376,0,0,1-1.683,2.89h0a2.758,2.758,0,0,1-.617.083h0A2.382,2.382,0,0,1,2614.705-3239.159Zm-103.717-1.9a2.368,2.368,0,0,1-1.7-2.89h0a2.363,2.363,0,0,1,2.891-1.694h0a2.381,2.381,0,0,1,1.694,2.89h0a2.391,2.391,0,0,1-2.3,1.765h0A2.6,2.6,0,0,1,2510.988-3241.054Zm120.632-3.518a2.363,2.363,0,0,1,1.207-3.127h0a2.387,2.387,0,0,1,3.129,1.22h0a2.368,2.368,0,0,1-1.22,3.115h0a2.242,2.242,0,0,1-.948.2h0A2.36,2.36,0,0,1,2631.62-3244.572Zm-137.822-1.469a2.377,2.377,0,0,1-1.538-2.973h0a2.366,2.366,0,0,1,2.985-1.54h0a2.357,2.357,0,0,1,1.528,2.973h0a2.367,2.367,0,0,1-2.251,1.646h0A2.563,2.563,0,0,1,2493.8-3246.041Zm-16.89-5.864a2.366,2.366,0,0,1-1.386-3.056h0a2.363,2.363,0,0,1,3.044-1.386h0a2.366,2.366,0,0,1,1.386,3.056h0a2.361,2.361,0,0,1-2.215,1.528h0A2.544,2.544,0,0,1,2476.909-3251.9Zm170.335-1.054a2.384,2.384,0,0,1,.4-3.329h0a2.373,2.373,0,0,1,3.329.4h0a2.375,2.375,0,0,1-.4,3.329h0a2.381,2.381,0,0,1-1.458.5h0A2.4,2.4,0,0,1,2647.244-3252.959Zm-186.93-5.6h.012a2.365,2.365,0,0,1-1.256-3.1h0a2.375,2.375,0,0,1,3.115-1.256h0a2.375,2.375,0,0,1,1.244,3.115h0a2.355,2.355,0,0,1-2.18,1.433h0A2.4,2.4,0,0,1,2460.313-3258.562Z" transform="translate(-2458.88 3263.109)" fill="url(#linear-gradient)"/>
    </g>
    <g id="Group_2536" data-name="Group 2536" transform="translate(87.879 370.708)">
      <path id="Path_9131" data-name="Path 9131" d="M2557.313-3217.572A2.368,2.368,0,0,1,2555-3220h0a2.367,2.367,0,0,1,2.417-2.31h0a2.379,2.379,0,0,1,2.322,2.428h0a2.38,2.38,0,0,1-2.369,2.31h-.059Zm15.458-2.5a2.369,2.369,0,0,1,2.238-2.488h0a2.372,2.372,0,0,1,2.489,2.251h0a2.37,2.37,0,0,1-2.239,2.487h-.119A2.368,2.368,0,0,1,2572.77-3220.071Zm-33.368,1.4h0a2.367,2.367,0,0,1-2.12-2.594h0a2.368,2.368,0,0,1,2.594-2.12h0a2.367,2.367,0,0,1,2.12,2.594h0a2.366,2.366,0,0,1-2.357,2.132h0A1.643,1.643,0,0,1,2539.4-3218.674Zm51.077-2.807a2.372,2.372,0,0,1,2.048-2.653h0a2.379,2.379,0,0,1,2.655,2.037h0a2.383,2.383,0,0,1-2.049,2.665h0a2.666,2.666,0,0,1-.309.012h0A2.363,2.363,0,0,1,2590.479-3221.481Zm-68.857.332h0a2.35,2.35,0,0,1-1.907-2.748h0a2.36,2.36,0,0,1,2.748-1.907h0a2.359,2.359,0,0,1,1.906,2.748h0a2.358,2.358,0,0,1-2.322,1.955h0A1.76,1.76,0,0,1,2521.622-3221.149Zm86.4-3.151a2.364,2.364,0,0,1,1.813-2.819h0a2.369,2.369,0,0,1,2.819,1.813h0a2.383,2.383,0,0,1-1.814,2.819h0a2.445,2.445,0,0,1-.508.047h0A2.376,2.376,0,0,1,2608.021-3224.3Zm-103.93-.722a2.377,2.377,0,0,1-1.682-2.9h0a2.365,2.365,0,0,1,2.89-1.682h0a2.37,2.37,0,0,1,1.693,2.89h0a2.372,2.372,0,0,1-2.3,1.765h0A2.647,2.647,0,0,1,2504.091-3225.022Zm121.142-3.708a2.363,2.363,0,0,1,1.491-3h0a2.359,2.359,0,0,1,3,1.492h0a2.368,2.368,0,0,1-1.492,3h0a2.42,2.42,0,0,1-.759.118h0A2.344,2.344,0,0,1,2625.233-3228.73Zm-138.294-1.635a2.375,2.375,0,0,1-1.433-3.032h0a2.358,2.358,0,0,1,3.031-1.421h0a2.368,2.368,0,0,1,1.434,3.021h0a2.391,2.391,0,0,1-2.239,1.575h0A2.335,2.335,0,0,1,2486.939-3230.365Zm154.783-4.963a2.367,2.367,0,0,1,.889-3.234h0a2.374,2.374,0,0,1,3.234.9h0a2.368,2.368,0,0,1-.9,3.222h0a2.3,2.3,0,0,1-1.16.308h0A2.343,2.343,0,0,1,2641.722-3235.328Zm-171.426-1.86h0a2.379,2.379,0,0,1-1.149-3.151h0a2.378,2.378,0,0,1,3.15-1.149h-.011a2.365,2.365,0,0,1,1.161,3.139h0a2.354,2.354,0,0,1-2.156,1.374h0A2.506,2.506,0,0,1,2470.3-3237.188Zm-15.944-8.3a2.385,2.385,0,0,1-.853-3.246h0a2.361,2.361,0,0,1,3.234-.853h0a2.365,2.365,0,0,1,.865,3.234h0a2.365,2.365,0,0,1-2.049,1.185h0A2.451,2.451,0,0,1,2454.353-3245.491Z" transform="translate(-2453.181 3249.914)" fill="url(#linear-gradient)"/>
    </g>
    <g id="Group_2537" data-name="Group 2537" transform="translate(2.14 287.04)">
      <path id="Path_9132" data-name="Path 9132" d="M2448.436-3302.64a2.358,2.358,0,0,1-.9-3.222h0a2.356,2.356,0,0,1,3.221-.9h0a2.368,2.368,0,0,1,.9,3.222h0a2.356,2.356,0,0,1-2.062,1.208h0A2.316,2.316,0,0,1,2448.436-3302.64Zm-67.008-6.42a2.362,2.362,0,0,1,.129-3.34h0a2.377,2.377,0,0,1,3.354.13h0a2.361,2.361,0,0,1-.13,3.341h0a2.357,2.357,0,0,1-1.611.64h0A2.363,2.363,0,0,1,2381.428-3309.061Zm51.3-1.208h0a2.369,2.369,0,0,1-1.3-3.08h0a2.368,2.368,0,0,1,3.09-1.3h-.011a2.365,2.365,0,0,1,1.315,3.08h0a2.382,2.382,0,0,1-2.2,1.481h0A2.367,2.367,0,0,1,2432.73-3310.269Zm-16.525-5.022a2.368,2.368,0,0,1-1.882-2.771h0a2.367,2.367,0,0,1,2.771-1.884h0a2.361,2.361,0,0,1,1.883,2.772h0a2.358,2.358,0,0,1-2.332,1.919h0A2.747,2.747,0,0,1,2416.205-3315.292Zm-19.556-2.5a2.363,2.363,0,0,1,1.942-2.724h.013a2.368,2.368,0,0,1,2.713,1.955h0a2.365,2.365,0,0,1-1.944,2.724h0a2.161,2.161,0,0,1-.391.035h0A2.372,2.372,0,0,1,2396.649-3317.791Z" transform="translate(-2380.799 3320.547)" fill="url(#linear-gradient)"/>
    </g>
    <g id="Group_2538" data-name="Group 2538" transform="translate(0.042 305.667)">
      <path id="Path_9133" data-name="Path 9133" d="M2449.106-3287.656a2.354,2.354,0,0,1-1.184-3.127h0a2.37,2.37,0,0,1,3.128-1.2h0a2.367,2.367,0,0,1,1.185,3.139h0a2.363,2.363,0,0,1-2.156,1.4h0A2.407,2.407,0,0,1,2449.106-3287.656Zm-16.287-6.539a2.366,2.366,0,0,1-1.456-3.009h0a2.362,2.362,0,0,1,3.009-1.469h0a2.37,2.37,0,0,1,1.469,3.02h0a2.377,2.377,0,0,1-2.239,1.587h0A2.267,2.267,0,0,1,2432.819-3294.195Zm-53.67-4.252a2.36,2.36,0,0,1,1.5-3h0a2.352,2.352,0,0,1,2.986,1.5h0a2.369,2.369,0,0,1-1.506,3h0a2.323,2.323,0,0,1-.734.118h0A2.358,2.358,0,0,1,2379.149-3298.447Zm36.886-.32h0a2.358,2.358,0,0,1-1.884-2.76h0a2.361,2.361,0,0,1,2.76-1.9h0a2.376,2.376,0,0,1,1.894,2.771h0a2.388,2.388,0,0,1-2.332,1.931h0A1.906,1.906,0,0,1,2416.036-3298.767Zm-19.593-3.577a2.362,2.362,0,0,1,2.252-2.476h0a2.369,2.369,0,0,1,2.476,2.251h0a2.381,2.381,0,0,1-2.262,2.487h-.107A2.362,2.362,0,0,1,2396.442-3302.344Z" transform="translate(-2379.027 3304.822)" fill="url(#linear-gradient)"/>
    </g>
    <g id="Group_2539" data-name="Group 2539" transform="translate(0 323.659)">
      <path id="Path_9134" data-name="Path 9134" d="M2432.744-3277.323a2.366,2.366,0,0,1-1.457-3.009h0a2.359,2.359,0,0,1,3.009-1.469h0a2.373,2.373,0,0,1,1.469,3.009h0a2.377,2.377,0,0,1-2.25,1.6h0A2.56,2.56,0,0,1,2432.744-3277.323Zm-16.809-4.927a2.376,2.376,0,0,1-1.766-2.855h0a2.365,2.365,0,0,1,2.844-1.765h0a2.364,2.364,0,0,1,1.765,2.843h0a2.372,2.372,0,0,1-2.3,1.835h0A2.762,2.762,0,0,1,2415.935-3282.25Zm-36.827-2.416a2.384,2.384,0,0,1,1.516-3h0a2.372,2.372,0,0,1,2.985,1.516h0a2.352,2.352,0,0,1-1.5,2.985h0a2.352,2.352,0,0,1-.747.118h0A2.37,2.37,0,0,1,2379.108-3284.666Zm19.687-.225a2.368,2.368,0,0,1-2.227-2.5h0a2.372,2.372,0,0,1,2.5-2.239h0a2.369,2.369,0,0,1,2.227,2.5h0a2.366,2.366,0,0,1-2.369,2.239h-.129Z" transform="translate(-2378.992 3289.633)" fill="url(#linear-gradient)"/>
    </g>
    <g id="Group_2540" data-name="Group 2540" transform="translate(2.138 344.106)">
      <path id="Path_9135" data-name="Path 9135" d="M2380.918-3266a2.366,2.366,0,0,1,1.506-3h0a2.369,2.369,0,0,1,3,1.5h0a2.388,2.388,0,0,1-1.5,3h0a2.335,2.335,0,0,1-.746.118h0A2.374,2.374,0,0,1,2380.918-3266Zm36.651.355a2.367,2.367,0,0,1-1.707-2.879h0a2.375,2.375,0,0,1,2.88-1.718h0a2.358,2.358,0,0,1,1.706,2.879h0a2.351,2.351,0,0,1-2.286,1.789h0A2.529,2.529,0,0,1,2417.569-3265.642Zm-19.367-4.276a2.378,2.378,0,0,1,2.286-2.452h0a2.371,2.371,0,0,1,2.452,2.286h0a2.371,2.371,0,0,1-2.286,2.452h-.083A2.375,2.375,0,0,1,2398.2-3269.918Z" transform="translate(-2380.797 3272.372)" fill="url(#linear-gradient)"/>
    </g>
    <g id="Group_2541" data-name="Group 2541" transform="translate(2.138 358.008)">
      <path id="Path_9136" data-name="Path 9136" d="M2417.119-3251.6a2.384,2.384,0,0,1-1.67-2.914h0a2.367,2.367,0,0,1,2.914-1.658h0a2.35,2.35,0,0,1,1.658,2.9h0a2.377,2.377,0,0,1-2.287,1.753h0A2.749,2.749,0,0,1,2417.119-3251.6Zm-36.2-2.949a2.353,2.353,0,0,1,1.506-2.985h0a2.369,2.369,0,0,1,3,1.5h0a2.371,2.371,0,0,1-1.5,2.985h0a2.342,2.342,0,0,1-.746.118h0A2.374,2.374,0,0,1,2380.918-3254.552Zm19.463-1.35a2.362,2.362,0,0,1-2.18-2.535h0a2.375,2.375,0,0,1,2.547-2.191h0a2.378,2.378,0,0,1,2.178,2.547h0a2.372,2.372,0,0,1-2.356,2.191h0A1.084,1.084,0,0,1,2400.382-3255.9Z" transform="translate(-2380.797 3260.635)" fill="url(#linear-gradient)"/>
    </g>
    <g id="Group_2542" data-name="Group 2542" transform="translate(3.201 380.105)">
      <path id="Path_9137" data-name="Path 9137" d="M2382.045-3235.062a2.369,2.369,0,0,1,.781-3.257h0a2.368,2.368,0,0,1,3.258.781h0a2.368,2.368,0,0,1-.781,3.258h0a2.353,2.353,0,0,1-1.232.355h0A2.362,2.362,0,0,1,2382.045-3235.062Zm18.431-2.215h0a2.389,2.389,0,0,1-1.908-2.76h0a2.38,2.38,0,0,1,2.761-1.907h0a2.37,2.37,0,0,1,1.907,2.76h0a2.383,2.383,0,0,1-2.334,1.943h0A2.819,2.819,0,0,1,2400.476-3237.277Z" transform="translate(-2381.694 3241.981)" fill="url(#linear-gradient)"/>
    </g>
    <g id="Group_2543" data-name="Group 2543" transform="translate(3.201 400.535)">
      <path id="Path_9138" data-name="Path 9138" d="M2382.045-3219.47a2.38,2.38,0,0,1,.781-3.269h0a2.378,2.378,0,0,1,3.258.782h0a2.368,2.368,0,0,1-.781,3.257h0a2.32,2.32,0,0,1-1.232.355h0A2.376,2.376,0,0,1,2382.045-3219.47Zm17.744-.841h0a2.375,2.375,0,0,1-.853-3.246h0a2.378,2.378,0,0,1,3.246-.853h0a2.39,2.39,0,0,1,.853,3.246h0a2.394,2.394,0,0,1-2.05,1.173h0A2.449,2.449,0,0,1,2399.789-3220.311Z" transform="translate(-2381.694 3224.734)" fill="url(#linear-gradient)"/>
    </g>
    <g id="Group_2544" data-name="Group 2544" transform="translate(353.041 388.683)">
      <path id="Path_9139" data-name="Path 9139" d="M2677.385-3230.133a2.369,2.369,0,0,1,.781-3.258h0a2.369,2.369,0,0,1,3.258.782h0a2.37,2.37,0,0,1-.782,3.257h0a2.323,2.323,0,0,1-1.232.355h0A2.375,2.375,0,0,1,2677.385-3230.133Zm17.021-2.037a2.364,2.364,0,0,1,2.156-2.559h0a2.372,2.372,0,0,1,2.569,2.156h0a2.364,2.364,0,0,1-2.154,2.559h0a1.287,1.287,0,0,1-.215.012h0A2.379,2.379,0,0,1,2694.406-3232.17Z" transform="translate(-2677.034 3234.738)" fill="url(#linear-gradient)"/>
    </g>
    <g id="Group_2545" data-name="Group 2545" transform="translate(359.934 407.699)">
      <path id="Path_9140" data-name="Path 9140" d="M2683.2-3214.261a2.367,2.367,0,0,1,.783-3.257h0a2.365,2.365,0,0,1,3.257.77h0a2.368,2.368,0,0,1-.783,3.258h0a2.315,2.315,0,0,1-1.232.355h0A2.391,2.391,0,0,1,2683.2-3214.261Zm18.313.154a2.349,2.349,0,0,1-1.361-3.056h0a2.359,2.359,0,0,1,3.056-1.362h0a2.371,2.371,0,0,1,1.361,3.068h0a2.375,2.375,0,0,1-2.215,1.516h0A2.323,2.323,0,0,1,2701.516-3214.107Z" transform="translate(-2682.854 3218.685)" fill="url(#linear-gradient)"/>
    </g>
    <g id="Group_2546" data-name="Group 2546" transform="translate(321.22 366.615)">
      <path id="Path_9141" data-name="Path 9141" d="M2650.17-3253.369" transform="translate(-2650.17 3253.369)" fill="none" stroke="#707070" stroke-linecap="round" stroke-miterlimit="10" stroke-width="4" stroke-dasharray="0 15"/>
    </g>
    <g id="Group_2547" data-name="Group 2547" transform="translate(371.721 355.844)">
      <path id="Path_9142" data-name="Path 9142" d="M2692.8-3262.462" transform="translate(-2692.804 3262.462)" fill="none" stroke="#707070" stroke-linecap="round" stroke-miterlimit="10" stroke-width="4" stroke-dasharray="0 15"/>
    </g>
    <g id="Group_2548" data-name="Group 2548" transform="translate(367.745 342.821)">
      <path id="Path_9143" data-name="Path 9143" d="M2689.447-3273.456" transform="translate(-2689.447 3273.456)" fill="none" stroke="#707070" stroke-linecap="round" stroke-miterlimit="10" stroke-width="4" stroke-dasharray="0 15"/>
    </g>
    <g id="Group_2549" data-name="Group 2549" transform="translate(307.832 298.321)">
      <path id="Path_9144" data-name="Path 9144" d="M2638.882-3283.55a2.359,2.359,0,0,1,2.1-2.606h0a2.35,2.35,0,0,1,2.607,2.085h0a2.37,2.37,0,0,1-2.085,2.618h0a2.142,2.142,0,0,1-.274.012h0A2.367,2.367,0,0,1,2638.882-3283.55Zm17.542-2.855a2.377,2.377,0,0,1,1.777-2.854h0a2.366,2.366,0,0,1,2.844,1.777h0a2.373,2.373,0,0,1-1.765,2.843h0a2.952,2.952,0,0,1-.545.059h0A2.377,2.377,0,0,1,2656.424-3286.405Zm17.188-4.6a2.37,2.37,0,0,1,1.5-3h0a2.375,2.375,0,0,1,3,1.5h0a2.366,2.366,0,0,1-1.506,2.985h0a2.341,2.341,0,0,1-.745.13h0A2.386,2.386,0,0,1,2673.613-3291Zm16.607-6.349a2.366,2.366,0,0,1,1.066-3.175h0a2.367,2.367,0,0,1,3.175,1.066h0a2.367,2.367,0,0,1-1.068,3.175h0a2.4,2.4,0,0,1-1.053.249h0A2.377,2.377,0,0,1,2690.22-3297.35Zm14.985-9.488a2.355,2.355,0,0,1-.309-3.329h0a2.356,2.356,0,0,1,3.33-.308h0a2.366,2.366,0,0,1,.319,3.329h0a2.377,2.377,0,0,1-1.835.865h0A2.341,2.341,0,0,1,2705.2-3306.838Z" transform="translate(-2638.868 3311.024)" fill="url(#linear-gradient)"/>
    </g>
    <g id="Group_2550" data-name="Group 2550" transform="translate(317.543 326.984)">
      <path id="Path_9145" data-name="Path 9145" d="M2647.07-3273.647a2.363,2.363,0,0,1,2.24-2.488h0a2.359,2.359,0,0,1,2.488,2.227h0a2.365,2.365,0,0,1-2.239,2.5h-.13A2.366,2.366,0,0,1,2647.07-3273.647Zm17.734-1.279a2.369,2.369,0,0,1,2.073-2.629h0a2.371,2.371,0,0,1,2.63,2.085h0a2.352,2.352,0,0,1-2.073,2.618h0l-.012.012h0a1.989,1.989,0,0,1-.273.012h0A2.357,2.357,0,0,1,2664.8-3274.927Zm17.553-2.736a2.377,2.377,0,0,1,1.743-2.866h0a2.385,2.385,0,0,1,2.866,1.741h0a2.384,2.384,0,0,1-1.742,2.866h0a2.321,2.321,0,0,1-.567.071h0A2.373,2.373,0,0,1,2682.357-3277.663Zm16.833-5.615a2.368,2.368,0,0,1,.878-3.234h0a2.369,2.369,0,0,1,3.234.877h0a2.372,2.372,0,0,1-.876,3.234h0a2.321,2.321,0,0,1-1.173.308h0A2.37,2.37,0,0,1,2699.189-3283.278Z" transform="translate(-2647.066 3286.826)" fill="url(#linear-gradient)"/>
    </g>
    <g id="Group_2551" data-name="Group 2551" transform="translate(338.24 346.884)">
      <path id="Path_9146" data-name="Path 9146" d="M2664.541-3259.832a2.368,2.368,0,0,1,2.286-2.452h0a2.37,2.37,0,0,1,2.452,2.286h0a2.37,2.37,0,0,1-2.288,2.452h-.082A2.375,2.375,0,0,1,2664.541-3259.832Zm17.709-1.386a2.379,2.379,0,0,1,1.87-2.783h0a2.375,2.375,0,0,1,2.785,1.871h0a2.375,2.375,0,0,1-1.872,2.784h0a3.055,3.055,0,0,1-.462.047h0A2.378,2.378,0,0,1,2682.249-3261.218Zm16.915-5.259a2.367,2.367,0,0,1,.876-3.234h0a2.367,2.367,0,0,1,3.234.876h0a2.378,2.378,0,0,1-.876,3.234h0a2.375,2.375,0,0,1-1.185.32h0A2.352,2.352,0,0,1,2699.164-3266.477Z" transform="translate(-2664.539 3270.026)" fill="url(#linear-gradient)"/>
    </g>
    <g id="Group_2552" data-name="Group 2552" transform="translate(337.762 365.726)">
      <path id="Path_9147" data-name="Path 9147" d="M2681.671-3247.582a2.357,2.357,0,0,1,2.133-2.57l.012-.012a2.382,2.382,0,0,1,2.57,2.144h0a2.376,2.376,0,0,1-2.145,2.582h0a1.28,1.28,0,0,1-.212.012h0A2.36,2.36,0,0,1,2681.671-3247.582Zm-16.133.249a2.364,2.364,0,0,1-1.2-3.127h0a2.382,2.382,0,0,1,3.139-1.2h0a2.369,2.369,0,0,1,1.2,3.127h0a2.385,2.385,0,0,1-2.168,1.41h0A2.41,2.41,0,0,1,2665.538-3247.333Zm33.594-3.447a2.373,2.373,0,0,1,1.185-3.127h0a2.378,2.378,0,0,1,3.139,1.185h0a2.382,2.382,0,0,1-1.2,3.139h0a2.292,2.292,0,0,1-.97.2h0A2.363,2.363,0,0,1,2699.132-3250.78Z" transform="translate(-2664.135 3254.119)" fill="url(#linear-gradient)"/>
    </g>
    <g id="Group_2553" data-name="Group 2553" transform="translate(311.813 271.473)">
      <path id="Path_9148" data-name="Path 9148" d="M2642.361-3295.335a2.369,2.369,0,0,1,1.456-3.021h0a2.386,2.386,0,0,1,3.022,1.457h0a2.385,2.385,0,0,1-1.457,3.02h0a2.576,2.576,0,0,1-.783.13h0A2.376,2.376,0,0,1,2642.361-3295.335Zm16.488-6.669a2.374,2.374,0,0,1,1.1-3.163h0a2.365,2.365,0,0,1,3.162,1.114h0a2.376,2.376,0,0,1-1.1,3.163h0a2.473,2.473,0,0,1-1.03.237h0A2.361,2.361,0,0,1,2658.849-3302Zm15.8-8.161a2.37,2.37,0,0,1,.888-3.234h0a2.371,2.371,0,0,1,3.234.888h0a2.381,2.381,0,0,1-.888,3.234h0a2.445,2.445,0,0,1-1.173.308h0A2.368,2.368,0,0,1,2674.652-3310.166Zm15.255-9.168a2.371,2.371,0,0,1,.677-3.281h0a2.371,2.371,0,0,1,3.28.687h0a2.369,2.369,0,0,1-.674,3.281h0a2.386,2.386,0,0,1-1.3.379h0A2.34,2.34,0,0,1,2689.907-3319.334Zm14.617-10.211a2.356,2.356,0,0,1-.2-3.34h0a2.365,2.365,0,0,1,3.342-.213h0a2.374,2.374,0,0,1,.212,3.34h0a2.369,2.369,0,0,1-1.777.806h0A2.4,2.4,0,0,1,2704.524-3329.544Z" transform="translate(-2642.229 3333.689)" fill="url(#linear-gradient)"/>
    </g>
  </g>
  <g id="light" transform="translate(4.979 208.621)">
    <g id="Group_2554" data-name="Group 2554" transform="translate(279.292 154.547)">
      <path id="Path_9149" data-name="Path 9149" d="M2619.57-3127.352a.541.541,0,0,1-.593-.472V-3255.8a.542.542,0,0,1,.593-.474.543.543,0,0,1,.592.474v127.98A.542.542,0,0,1,2619.57-3127.352Z" transform="translate(-2618.977 3256.278)" fill="url(#linear-gradient-35)"/>
    </g>
    <g id="Group_2555" data-name="Group 2555" transform="translate(360.602 21.106)">
      <path id="Path_9150" data-name="Path 9150" d="M2688.213-3240a.542.542,0,0,1-.592-.473v-127.981a.542.542,0,0,1,.592-.472.542.542,0,0,1,.592.472v127.981A.543.543,0,0,1,2688.213-3240Z" transform="translate(-2687.62 3368.931)" fill="url(#linear-gradient-35)"/>
    </g>
    <g id="Group_2556" data-name="Group 2556" transform="translate(215.478 130.863)">
      <path id="Path_9151" data-name="Path 9151" d="M2565.7-3147.346a.541.541,0,0,1-.592-.473V-3275.8a.542.542,0,0,1,.592-.474.543.543,0,0,1,.592.474v127.98A.542.542,0,0,1,2565.7-3147.346Z" transform="translate(-2565.105 3276.273)" fill="url(#linear-gradient-37)"/>
    </g>
    <g id="Group_2557" data-name="Group 2557" transform="translate(175.986 174.049)">
      <path id="Path_9152" data-name="Path 9152" d="M2532.357-3110.886a.542.542,0,0,1-.592-.474v-127.98a.542.542,0,0,1,.592-.474.543.543,0,0,1,.592.474v127.98A.543.543,0,0,1,2532.357-3110.886Z" transform="translate(-2531.765 3239.814)" fill="url(#linear-gradient-38)"/>
    </g>
    <g id="Group_2558" data-name="Group 2558" transform="translate(163.796 66.951)">
      <path id="Path_9153" data-name="Path 9153" d="M2522.066-3201.3a.542.542,0,0,1-.592-.473v-127.98a.543.543,0,0,1,.592-.474.542.542,0,0,1,.592.474v127.98A.542.542,0,0,1,2522.066-3201.3Z" transform="translate(-2521.474 3330.228)" fill="url(#linear-gradient-39)"/>
    </g>
    <g id="Group_2559" data-name="Group 2559" transform="translate(0 192.52)">
      <path id="Path_9154" data-name="Path 9154" d="M2383.787-3095.294a.542.542,0,0,1-.592-.474v-127.979a.542.542,0,0,1,.592-.474.543.543,0,0,1,.592.474v127.979A.544.544,0,0,1,2383.787-3095.294Z" transform="translate(-2383.195 3224.221)" fill="url(#linear-gradient-38)"/>
    </g>
    <g id="Group_2560" data-name="Group 2560" transform="translate(124.896 163.14)">
      <path id="Path_9155" data-name="Path 9155" d="M2489.227-3120.1a.543.543,0,0,1-.592-.474v-127.98a.542.542,0,0,1,.592-.474.543.543,0,0,1,.592.474v127.98A.543.543,0,0,1,2489.227-3120.1Z" transform="translate(-2488.634 3249.024)" fill="url(#linear-gradient-41)"/>
    </g>
    <g id="Group_2561" data-name="Group 2561" transform="translate(254.237)">
      <path id="Path_9156" data-name="Path 9156" d="M2598.418-3257.821a.543.543,0,0,1-.592-.474v-127.981a.542.542,0,0,1,.592-.474.543.543,0,0,1,.593.474v127.981A.543.543,0,0,1,2598.418-3257.821Z" transform="translate(-2597.826 3386.749)" fill="url(#linear-gradient-42)"/>
    </g>
    <g id="Group_2562" data-name="Group 2562" transform="translate(322.128 114.944)">
      <path id="Path_9157" data-name="Path 9157" d="M2655.733-3160.785a.543.543,0,0,1-.593-.474v-127.979a.543.543,0,0,1,.593-.474.543.543,0,0,1,.592.474v127.979A.543.543,0,0,1,2655.733-3160.785Z" transform="translate(-2655.14 3289.712)" fill="url(#linear-gradient-38)"/>
    </g>
    <g id="Group_2563" data-name="Group 2563" transform="translate(31.559 99.571)">
      <path id="Path_9158" data-name="Path 9158" d="M2410.431-3173.762a.543.543,0,0,1-.593-.474v-127.98a.543.543,0,0,1,.593-.474.543.543,0,0,1,.592.474v127.98A.543.543,0,0,1,2410.431-3173.762Z" transform="translate(-2409.838 3302.69)" fill="url(#linear-gradient-44)"/>
    </g>
    <g id="Group_2564" data-name="Group 2564" transform="translate(65.366 112.702)">
      <path id="Path_9159" data-name="Path 9159" d="M2438.97-3162.677a.543.543,0,0,1-.593-.474v-127.981a.542.542,0,0,1,.593-.472.543.543,0,0,1,.592.472v127.981A.543.543,0,0,1,2438.97-3162.677Z" transform="translate(-2438.378 3291.604)" fill="url(#linear-gradient-45)"/>
    </g>
    <g id="Group_2565" data-name="Group 2565" transform="translate(96.697 68.571)">
      <path id="Path_9160" data-name="Path 9160" d="M2465.42-3199.932a.542.542,0,0,1-.592-.473v-127.981a.543.543,0,0,1,.592-.474.543.543,0,0,1,.592.474v127.981A.543.543,0,0,1,2465.42-3199.932Z" transform="translate(-2464.828 3328.861)" fill="url(#linear-gradient-42)"/>
    </g>
  </g>
</svg>
