<svg id="logo" xmlns="http://www.w3.org/2000/svg" width="251.387" height="58.022" viewBox="0 0 251.387 58.022">
  <g id="Group_273" data-name="Group 273" transform="translate(0.421 0.413)">
    <g id="Group_272" data-name="Group 272" transform="translate(109.077 50.577)">
      <path id="Path_7569" data-name="Path 7569" d="M215.312,117.05v-2.5h.591v2.992h-4.682a1.135,1.135,0,0,1-.727-.225.908.908,0,0,1-.279-.751v-1.383h.589v1.3a.761.761,0,0,0,.1.4.432.432,0,0,0,.405.164Zm-3.041-3.023a.358.358,0,0,1,.11-.262.352.352,0,0,1,.264-.109.371.371,0,0,1,.265.109.363.363,0,0,1,.109.262.376.376,0,0,1-.376.376.342.342,0,0,1-.264-.11.354.354,0,0,1-.108-.266Zm.912,0a.368.368,0,0,1,.109-.262.376.376,0,0,1,.265-.109.363.363,0,0,1,.263.109.358.358,0,0,1,.11.262.376.376,0,0,1-.751,0Z" transform="translate(-210.21 -112.418)" fill="#fff"/>
      <path id="Path_7570" data-name="Path 7570" d="M222.044,111.662v5.09h-.591v-5.09Z" transform="translate(-214.671 -111.627)" fill="#fff"/>
      <path id="Path_7571" data-name="Path 7571" d="M224.487,115.141h.592V118a2.606,2.606,0,0,1-.056.546,1.114,1.114,0,0,1-.2.43.977.977,0,0,1-.4.28,1.728,1.728,0,0,1-.64.1h-.129v-.5h.08a.722.722,0,0,0,.592-.2,1.067,1.067,0,0,0,.161-.655Z" transform="translate(-215.544 -113.008)" fill="#fff"/>
      <path id="Path_7572" data-name="Path 7572" d="M229.323,116.483c0,.118-.026.191-.075.222a.39.39,0,0,1-.219.048h-.261a1.123,1.123,0,0,1-.726-.225.915.915,0,0,1-.273-.751v-4.115h.588v4.033a.779.779,0,0,0,.093.419c.059.1.194.145.4.145h.182a.461.461,0,0,1,.215.038C229.294,116.322,229.323,116.383,229.323,116.483Z" transform="translate(-217.176 -111.626)" fill="#fff"/>
      <path id="Path_7573" data-name="Path 7573" d="M229.679,119.778a.376.376,0,0,1-.21-.052.225.225,0,0,1-.071-.2c0-.116.021-.186.065-.21a.531.531,0,0,1,.216-.034h1.052a.441.441,0,0,1,.212.038c.047.025.071.086.071.185,0,.118-.023.191-.066.222a.37.37,0,0,1-.216.048Z" transform="translate(-217.824 -114.651)" fill="#fff"/>
      <path id="Path_7574" data-name="Path 7574" d="M231.406,119.778a.383.383,0,0,1-.213-.052.225.225,0,0,1-.07-.2c0-.116.021-.186.066-.21a.536.536,0,0,1,.217-.034h1.052a.444.444,0,0,1,.212.038c.044.025.069.086.069.185,0,.118-.023.191-.065.222a.371.371,0,0,1-.216.048Z" transform="translate(-218.508 -114.651)" fill="#fff"/>
      <path id="Path_7575" data-name="Path 7575" d="M233.132,119.778a.376.376,0,0,1-.212-.052.225.225,0,0,1-.075-.2c0-.116.024-.186.069-.21a.513.513,0,0,1,.216-.034h1.047a.451.451,0,0,1,.213.038c.047.025.069.086.069.185,0,.118-.02.191-.065.222a.365.365,0,0,1-.216.048Z" transform="translate(-219.192 -114.651)" fill="#fff"/>
      <path id="Path_7576" data-name="Path 7576" d="M234.863,119.778a.386.386,0,0,1-.213-.052.225.225,0,0,1-.07-.2c0-.116.023-.186.066-.21a.534.534,0,0,1,.218-.034h1.046a.436.436,0,0,1,.212.038c.047.025.075.086.075.185a.278.278,0,0,1-.066.222.376.376,0,0,1-.217.048Z" transform="translate(-219.88 -114.651)" fill="#fff"/>
      <path id="Path_7577" data-name="Path 7577" d="M237.589,117.6a4.852,4.852,0,0,1-.175-.5,2.21,2.21,0,0,1-.092-.658,1.5,1.5,0,0,1,.1-.546,1.277,1.277,0,0,1,.288-.451,1.412,1.412,0,0,1,.474-.3,1.722,1.722,0,0,1,.639-.112,1.513,1.513,0,0,1,.676.133,1.277,1.277,0,0,1,.445.348,1.382,1.382,0,0,1,.243.479,1.932,1.932,0,0,1,.075.517,2,2,0,0,1-.087.6,1.672,1.672,0,0,1-.27.506,1.308,1.308,0,0,1-.443.345,1.353,1.353,0,0,1-.607.133h-2.26a.376.376,0,0,1-.211-.052.225.225,0,0,1-.071-.2c0-.116.02-.186.065-.21a.535.535,0,0,1,.216-.034Zm1.2,0a.746.746,0,0,0,.388-.1.81.81,0,0,0,.268-.245,1.044,1.044,0,0,0,.155-.344,1.557,1.557,0,0,0,.049-.385,1.2,1.2,0,0,0-.214-.736.742.742,0,0,0-.629-.286,1.028,1.028,0,0,0-.323.053.725.725,0,0,0-.277.171.874.874,0,0,0-.195.3,1.152,1.152,0,0,0-.075.434,1.927,1.927,0,0,0,.03.35c.023.11.049.214.075.313a2.408,2.408,0,0,0,.1.267c.029.08.062.15.089.206Z" transform="translate(-220.566 -112.965)" fill="#fff"/>
      <path id="Path_7578" data-name="Path 7578" d="M244.085,116.752v-.494h1.439v-3.373h.591v3.373H247.4v-4.6h.588v5.09Zm2.454,1.906H245.1v-.316h.323a2.753,2.753,0,0,1-.075-.274.858.858,0,0,1-.018-.177.59.59,0,0,1,.2-.457.827.827,0,0,1,.582-.184h.155c.067,0,.116.005.15.007v.314a.363.363,0,0,0-.105-.012h-.1a.736.736,0,0,0-.394.085.34.34,0,0,0-.132.31.98.98,0,0,0,.015.145,1.478,1.478,0,0,0,.075.242h.751Z" transform="translate(-223.653 -111.626)" fill="#fff"/>
      <path id="Path_7579" data-name="Path 7579" d="M253.086,111.662v5.09h-.594v-5.09Z" transform="translate(-226.989 -111.627)" fill="#fff"/>
      <path id="Path_7580" data-name="Path 7580" d="M262.248,117c0,.118-.02.191-.063.222a.382.382,0,0,1-.216.048h-.282a1.264,1.264,0,0,1-.509-.092.666.666,0,0,1-.334-.29h-.652a1.979,1.979,0,0,1-1.239-.319,1.127,1.127,0,0,1-.406-.942A1.247,1.247,0,0,1,259,114.56a2.088,2.088,0,0,1,1.264-.338c.062,0,.136,0,.231.008s.191.011.29.017.194.015.283.026.172.018.234.027v1.915a.773.773,0,0,0,.1.4.427.427,0,0,0,.4.164h.164a.442.442,0,0,1,.21.038C262.229,116.842,262.248,116.9,262.248,117Zm-3.088-1.428a.721.721,0,0,0,.3.649,1.509,1.509,0,0,0,.842.2h.418v-1.7c-.116-.014-.217-.023-.308-.029s-.15-.007-.174-.007a1.345,1.345,0,0,0-.782.2.773.773,0,0,0-.3.684Zm.065-2.231a.37.37,0,0,1,.376-.371.376.376,0,0,1,.264.636.363.363,0,0,1-.265.108.369.369,0,0,1-.376-.376Zm.913,0a.355.355,0,0,1,.111-.262.352.352,0,0,1,.264-.108.373.373,0,1,1,0,.747.376.376,0,0,1-.376-.376Z" transform="translate(-229.392 -112.146)" fill="#fff"/>
      <path id="Path_7581" data-name="Path 7581" d="M265.048,117.6a4.554,4.554,0,0,1-.176-.5,2.246,2.246,0,0,1-.093-.658,1.583,1.583,0,0,1,.1-.546,1.322,1.322,0,0,1,.289-.451,1.428,1.428,0,0,1,.473-.3,1.729,1.729,0,0,1,.641-.112,1.513,1.513,0,0,1,.676.133,1.249,1.249,0,0,1,.443.348,1.362,1.362,0,0,1,.243.479,1.866,1.866,0,0,1,.075.517,1.953,1.953,0,0,1-.09.6,1.577,1.577,0,0,1-.267.506,1.314,1.314,0,0,1-.44.345,1.367,1.367,0,0,1-.609.133h-2.254a.382.382,0,0,1-.214-.052.231.231,0,0,1-.071-.2c0-.116.026-.186.068-.21a.5.5,0,0,1,.216-.034Zm1.2,0a.743.743,0,0,0,.386-.1.827.827,0,0,0,.267-.245,1.1,1.1,0,0,0,.156-.344,1.654,1.654,0,0,0,.05-.385,1.191,1.191,0,0,0-.216-.736.744.744,0,0,0-.632-.286,1.033,1.033,0,0,0-.319.053.74.74,0,0,0-.278.171.873.873,0,0,0-.194.3,1.163,1.163,0,0,0-.075.434,1.772,1.772,0,0,0,.034.35,2.653,2.653,0,0,0,.075.313,2.56,2.56,0,0,0,.1.267c.032.08.062.15.09.206Z" transform="translate(-231.464 -112.965)" fill="#fff"/>
      <path id="Path_7582" data-name="Path 7582" d="M274.394,118.09a1.965,1.965,0,0,1-.091.516.977.977,0,0,1-.241.386,1.082,1.082,0,0,1-.426.244,2.152,2.152,0,0,1-.649.084h-.857v-.472h.857a.851.851,0,0,0,.609-.18.836.836,0,0,0,.206-.579h-.413a2.278,2.278,0,0,1-.895-.15,1.394,1.394,0,0,1-.526-.376,1.2,1.2,0,0,1-.249-.491,2.09,2.09,0,0,1-.062-.5,1.694,1.694,0,0,1,.108-.626,1.22,1.22,0,0,1,.337-.485,1.563,1.563,0,0,1,.586-.317,2.856,2.856,0,0,1,.863-.113c.12,0,.259.008.418.023s.3.024.431.035v2.5h.652a.461.461,0,0,1,.213.038c.047.025.069.086.069.185,0,.118-.023.191-.068.222a.364.364,0,0,1-.214.048Zm-2.147-1.51a1.153,1.153,0,0,0,.086.478.759.759,0,0,0,.24.31.959.959,0,0,0,.376.174,2.067,2.067,0,0,0,.491.054h.371v-2.078l-.119-.012h-.128a4.057,4.057,0,0,0-.433.026,1.14,1.14,0,0,0-.428.133.879.879,0,0,0-.325.323,1.157,1.157,0,0,0-.131.6Z" transform="translate(-234.594 -112.966)" fill="#fff"/>
      <path id="Path_7583" data-name="Path 7583" d="M277.1,119.778a.37.37,0,0,1-.211-.052.231.231,0,0,1-.075-.2c0-.116.026-.186.069-.21a.515.515,0,0,1,.215-.034h1.052a.451.451,0,0,1,.213.038c.047.025.069.086.069.185,0,.118-.023.191-.065.222a.376.376,0,0,1-.216.048Z" transform="translate(-236.644 -114.651)" fill="#fff"/>
      <path id="Path_7584" data-name="Path 7584" d="M278.832,119.778a.369.369,0,0,1-.213-.052.225.225,0,0,1-.069-.2c0-.116.022-.186.065-.21a.521.521,0,0,1,.216-.034h1.052a.455.455,0,0,1,.212.038c.043.025.069.086.069.185,0,.118-.023.191-.065.222a.376.376,0,0,1-.216.048Z" transform="translate(-237.33 -114.651)" fill="#fff"/>
      <path id="Path_7585" data-name="Path 7585" d="M280.558,119.778a.376.376,0,0,1-.213-.052.235.235,0,0,1-.071-.2c0-.116.027-.186.068-.21a.514.514,0,0,1,.215-.034h1.052a.451.451,0,0,1,.213.038c.045.025.071.086.071.185,0,.118-.023.191-.069.222a.359.359,0,0,1-.214.048Z" transform="translate(-238.014 -114.651)" fill="#fff"/>
      <path id="Path_7586" data-name="Path 7586" d="M282.286,119.778a.376.376,0,0,1-.213-.052.226.226,0,0,1-.071-.2c0-.116.023-.186.065-.21a.539.539,0,0,1,.219-.034h1.048a.44.44,0,0,1,.21.038c.047.025.071.086.071.185,0,.118-.024.191-.068.222a.36.36,0,0,1-.213.048Z" transform="translate(-238.701 -114.651)" fill="#fff"/>
      <path id="Path_7587" data-name="Path 7587" d="M287.709,116a.15.15,0,0,0,.05.107.4.4,0,0,0,.121.075.736.736,0,0,0,.159.039.639.639,0,0,0,.15.018h.136a.419.419,0,0,1,.21.038c.052.025.075.086.075.185,0,.118-.02.191-.068.222a.358.358,0,0,1-.214.048h-.079a.972.972,0,0,1-.364-.068.638.638,0,0,1-.274-.234.724.724,0,0,1-.264.207,1.233,1.233,0,0,1-.543.1h-2.78a.376.376,0,0,1-.21-.052.225.225,0,0,1-.068-.2c0-.116.02-.186.065-.21a.516.516,0,0,1,.213-.034h2.648a.425.425,0,0,0,.376-.132.8.8,0,0,0,.083-.425v-.213a1.842,1.842,0,0,0-.086-.612.849.849,0,0,0-.267-.385,1.113,1.113,0,0,0-.466-.2,3.2,3.2,0,0,0-.671-.06h-1.224v-.47l1.991-2.135.386.361-1.645,1.774h.534a4.194,4.194,0,0,1,.865.08,1.717,1.717,0,0,1,.642.264,1.143,1.143,0,0,1,.4.492,1.929,1.929,0,0,1,.133.773Z" transform="translate(-239.391 -111.603)" fill="#fff"/>
      <path id="Path_7588" data-name="Path 7588" d="M292.32,115.512a2.179,2.179,0,0,0-.473.046c-.131.03-.236.059-.31.081V115.2a1.937,1.937,0,0,1,.349-.109,2.138,2.138,0,0,1,.518-.053,1.568,1.568,0,0,1,.728.144,1.137,1.137,0,0,1,.423.376,1.427,1.427,0,0,1,.207.512c.038.189.071.381.1.57s.053.371.089.541a.984.984,0,0,0,.18.422v.494h-2.975c-.189,0-.283-.084-.283-.249,0-.1.022-.171.067-.2a.423.423,0,0,1,.216-.044h2.335a1.183,1.183,0,0,1-.157-.4c-.032-.15-.056-.3-.075-.457s-.038-.3-.06-.451a1.3,1.3,0,0,0-.13-.39.756.756,0,0,0-.271-.28A.911.911,0,0,0,292.32,115.512Z" transform="translate(-242.221 -112.965)" fill="#fff"/>
      <path id="Path_7589" data-name="Path 7589" d="M300.932,116.155h.59v1.15a2.729,2.729,0,0,0,.056.588.991.991,0,0,0,.188.411.8.8,0,0,0,.364.238,1.761,1.761,0,0,0,.567.075,2.1,2.1,0,0,0,.585-.068.736.736,0,0,0,.364-.214.794.794,0,0,0,.187-.387,2.784,2.784,0,0,0,.053-.591V115.52h.591v1.866h.571a.426.426,0,0,1,.209.038c.046.025.075.086.075.185,0,.118-.026.191-.069.222a.36.36,0,0,1-.214.048h-.61a1.368,1.368,0,0,1-.54.937,2.14,2.14,0,0,1-1.212.293,2.613,2.613,0,0,1-.812-.112,1.334,1.334,0,0,1-.542-.329,1.3,1.3,0,0,1-.3-.526,2.5,2.5,0,0,1-.093-.72Zm1.4-1.277a.37.37,0,0,1,.37-.371.364.364,0,0,1,.265.108.357.357,0,0,1,.107.263.373.373,0,1,1-.746,0Z" transform="translate(-246.213 -112.754)" fill="#fff"/>
      <path id="Path_7590" data-name="Path 7590" d="M308.572,117.6a5.024,5.024,0,0,1-.174-.5,2.209,2.209,0,0,1-.094-.658,1.5,1.5,0,0,1,.1-.546,1.25,1.25,0,0,1,.288-.451,1.44,1.44,0,0,1,.471-.3,1.736,1.736,0,0,1,.642-.112,1.524,1.524,0,0,1,.676.133,1.3,1.3,0,0,1,.443.348,1.384,1.384,0,0,1,.243.479,1.932,1.932,0,0,1,.075.517,2.006,2.006,0,0,1-.09.6,1.634,1.634,0,0,1-.27.506,1.3,1.3,0,0,1-.44.345,1.366,1.366,0,0,1-.609.133h-2.259a.376.376,0,0,1-.211-.052.221.221,0,0,1-.071-.2c0-.116.022-.186.068-.21a.52.52,0,0,1,.214-.034Zm1.2,0a.751.751,0,0,0,.386-.1.827.827,0,0,0,.267-.245,1.094,1.094,0,0,0,.155-.344,1.616,1.616,0,0,0,.049-.385,1.183,1.183,0,0,0-.216-.736.742.742,0,0,0-.633-.286,1.018,1.018,0,0,0-.316.053.723.723,0,0,0-.276.171.82.82,0,0,0-.2.3,1.164,1.164,0,0,0-.075.434,1.92,1.92,0,0,0,.032.35,2.76,2.76,0,0,0,.075.313c.031.1.062.188.094.267s.066.15.095.206Z" transform="translate(-248.737 -112.965)" fill="#fff"/>
      <path id="Path_7591" data-name="Path 7591" d="M320.047,117.3a1.5,1.5,0,0,1-.684-.139,1.378,1.378,0,0,1-.72-.848,1.83,1.83,0,0,1-.081-.526,1.887,1.887,0,0,1,.1-.594,1.511,1.511,0,0,1,.281-.5,1.4,1.4,0,0,1,.464-.349,1.675,1.675,0,0,1,1.289,0,1.407,1.407,0,0,1,.463.349,1.462,1.462,0,0,1,.282.5,1.835,1.835,0,0,1,.1.594,1.96,1.96,0,0,1-.08.526,1.475,1.475,0,0,1-.261.488,1.417,1.417,0,0,1-.464.359,1.475,1.475,0,0,1-.682.14Zm0-.491a.857.857,0,0,0,.391-.08.73.73,0,0,0,.267-.225,1.044,1.044,0,0,0,.162-.319,1.53,1.53,0,0,0-.011-.818,1.082,1.082,0,0,0-.17-.349.817.817,0,0,0-.277-.231.763.763,0,0,0-.364-.084.777.777,0,0,0-.365.084.79.79,0,0,0-.274.231,1.021,1.021,0,0,0-.174.349,1.427,1.427,0,0,0-.061.432,1.353,1.353,0,0,0,.053.385,1.093,1.093,0,0,0,.159.319.733.733,0,0,0,.271.225A.839.839,0,0,0,320.047,116.812Zm-.853-3.471a.365.365,0,0,1,.11-.262.376.376,0,0,1,.526,0,.367.367,0,0,1,0,.526.376.376,0,0,1-.526,0,.368.368,0,0,1-.112-.264Zm.917,0a.37.37,0,0,1,.376-.371.376.376,0,0,1,.263.636.365.365,0,0,1-.263.108.37.37,0,0,1-.376-.376Z" transform="translate(-253.21 -112.146)" fill="#fff"/>
      <path id="Path_7592" data-name="Path 7592" d="M325.189,115.141h.591V118a2.423,2.423,0,0,1-.056.546,1.071,1.071,0,0,1-.2.43.981.981,0,0,1-.4.28,1.733,1.733,0,0,1-.641.1h-.128v-.5h.081a.717.717,0,0,0,.591-.2,1.052,1.052,0,0,0,.16-.655Z" transform="translate(-255.51 -113.008)" fill="#fff"/>
      <path id="Path_7593" data-name="Path 7593" d="M328.437,115.61v-.47h.606a3.418,3.418,0,0,1,.977.115,1.372,1.372,0,0,1,.588.327,1.138,1.138,0,0,1,.287.506,2.754,2.754,0,0,1,.075.662v1.383H328v-.494h2.38v-.769a3.335,3.335,0,0,0-.037-.5.752.752,0,0,0-.172-.4.9.9,0,0,0-.41-.26,2.446,2.446,0,0,0-.763-.1Z" transform="translate(-256.956 -113.007)" fill="#fff"/>
      <path id="Path_7594" data-name="Path 7594" d="M336.066,116.483c0,.118-.02.191-.071.222a.385.385,0,0,1-.218.048h-.27a1.111,1.111,0,0,1-.721-.225.912.912,0,0,1-.277-.751v-4.115h.59v4.033a.791.791,0,0,0,.093.419c.062.1.192.145.4.145h.185a.464.464,0,0,1,.215.038C336.043,116.322,336.066,116.383,336.066,116.483Z" transform="translate(-259.538 -111.626)" fill="#fff"/>
      <path id="Path_7595" data-name="Path 7595" d="M336.424,119.778a.376.376,0,0,1-.212-.052.225.225,0,0,1-.075-.2c0-.116.023-.186.071-.21a.493.493,0,0,1,.213-.034h1.052a.442.442,0,0,1,.21.038c.047.025.071.086.071.185,0,.118-.023.191-.067.222a.366.366,0,0,1-.214.048Z" transform="translate(-260.185 -114.651)" fill="#fff"/>
      <path id="Path_7596" data-name="Path 7596" d="M338.152,119.778a.376.376,0,0,1-.211-.052.231.231,0,0,1-.071-.2c0-.116.022-.186.068-.21a.51.51,0,0,1,.214-.034H339.2a.445.445,0,0,1,.211.038c.047.025.067.086.067.185,0,.118-.02.191-.063.222a.367.367,0,0,1-.215.048Z" transform="translate(-260.872 -114.651)" fill="#fff"/>
      <path id="Path_7597" data-name="Path 7597" d="M339.881,119.778a.376.376,0,0,1-.213-.052.225.225,0,0,1-.071-.2c0-.116.022-.186.067-.21a.52.52,0,0,1,.216-.034h1.045a.443.443,0,0,1,.213.038c.047.025.071.086.071.185,0,.118-.023.191-.068.222a.37.37,0,0,1-.217.048Z" transform="translate(-261.558 -114.651)" fill="#fff"/>
      <path id="Path_7598" data-name="Path 7598" d="M341.606,118.133a.385.385,0,0,1-.214-.052.234.234,0,0,1-.069-.2c0-.116.02-.186.068-.21a.531.531,0,0,1,.216-.034h.492a.431.431,0,0,0,.376-.132.814.814,0,0,0,.084-.425v-1.942h.591v2.26a.15.15,0,0,0,.05.107.333.333,0,0,0,.123.075.777.777,0,0,0,.158.039.633.633,0,0,0,.15.018h.183a.459.459,0,0,1,.211.038c.047.025.069.086.069.185,0,.118-.02.191-.065.222a.376.376,0,0,1-.214.048h-.129a.948.948,0,0,1-.362-.068.649.649,0,0,1-.271-.234.786.786,0,0,1-.267.207,1.264,1.264,0,0,1-.548.1Zm.842.864a.36.36,0,0,1,.11-.264.369.369,0,0,1,.526,0,.36.36,0,0,1,.11.264.376.376,0,0,1-.747,0Z" transform="translate(-262.243 -113.008)" fill="#fff"/>
      <path id="Path_7599" data-name="Path 7599" d="M346.258,117.6c-.055-.133-.113-.3-.176-.5a2.208,2.208,0,0,1-.092-.658,1.5,1.5,0,0,1,.1-.546,1.241,1.241,0,0,1,.29-.451,1.366,1.366,0,0,1,.47-.3,1.728,1.728,0,0,1,.639-.112,1.526,1.526,0,0,1,.676.133,1.245,1.245,0,0,1,.443.348,1.333,1.333,0,0,1,.243.479,1.869,1.869,0,0,1,.075.517,2.006,2.006,0,0,1-.09.6,1.585,1.585,0,0,1-.27.506,1.326,1.326,0,0,1-.439.345,1.379,1.379,0,0,1-.609.133H345.26a.385.385,0,0,1-.214-.052.234.234,0,0,1-.069-.2c0-.116.023-.186.068-.21a.514.514,0,0,1,.216-.034Zm1.2,0a.752.752,0,0,0,.387-.1.837.837,0,0,0,.267-.245,1.1,1.1,0,0,0,.156-.344,1.558,1.558,0,0,0,.049-.385,1.2,1.2,0,0,0-.213-.736.746.746,0,0,0-.632-.286,1.044,1.044,0,0,0-.32.053.7.7,0,0,0-.277.171.835.835,0,0,0-.2.3,1.2,1.2,0,0,0-.071.434,1.689,1.689,0,0,0,.029.35,2.635,2.635,0,0,0,.075.313,2.682,2.682,0,0,0,.095.267c.033.08.065.15.093.206Z" transform="translate(-263.693 -112.965)" fill="#fff"/>
    </g>
    <path id="Path_7600" data-name="Path 7600" d="M44.686,40a11.991,11.991,0,0,1-1.521,5.1H32.27a.468.468,0,0,1-.213-.053.412.412,0,0,0-.177-.053,2.771,2.771,0,0,1-1.5-.76,2.456,2.456,0,0,1-.978-1.431,3.617,3.617,0,0,1-.035-.708,11.173,11.173,0,0,1,.5-2.866q.565-1.912,1.1-2.194l.142.106q0,.39-.124,1.468t-.124,1.185a2.717,2.717,0,0,0,.177,1.1,2.311,2.311,0,0,0,1.008.849,2.984,2.984,0,0,0,1.292.46H42.7a.852.852,0,0,0,.213-.425,7.382,7.382,0,0,0-1.2-2.48l1.45-2.548a5.207,5.207,0,0,1,1.026,1.5,4.1,4.1,0,0,1,.5,1.755Zm-4.175-6.441a9.737,9.737,0,0,1-1.546,1.675l-1.988-1.052a3.671,3.671,0,0,0-1.028,1,15.955,15.955,0,0,1-2.2-1.1q1.308-1.593,1.592-1.593a4.2,4.2,0,0,1,.884.5,4.094,4.094,0,0,0,.884.5,2.163,2.163,0,0,0,.531-.389,8.983,8.983,0,0,1,.778-.6Z" transform="translate(-29.36 -29.63)" fill="#fff"/>
    <path id="Path_7601" data-name="Path 7601" d="M63.527,43.277h-4L58.29,30.155c0-.095.129-.3.389-.6a20.492,20.492,0,0,1,1.628-1.809q.106.854.247,2.526.637,6.939,1.026,9.607c.023.119.129.2.319.249a3.722,3.722,0,0,1,.5.2,1.456,1.456,0,0,0,.53.16h.6Z" transform="translate(-40.841 -27.745)" fill="#fff"/>
    <path id="Path_7602" data-name="Path 7602" d="M90.12,48.307H86.758l-.921-1.665q-.106.217-.955,1.664H65.833V45.515H84.812a2.72,2.72,0,0,0-2.48-1.7,5.628,5.628,0,0,0-.849.071l1.451-2.76q.671-.212,1.309-.425A5.464,5.464,0,0,1,85.8,40.42a3.726,3.726,0,0,1,2.335.9,2.488,2.488,0,0,1,1.132,1.9,2.393,2.393,0,0,1-.389,1.041q-.284.5-.6,1.005v.249h1.84Z" transform="translate(-43.834 -32.775)" fill="#fff"/>
    <path id="Path_7603" data-name="Path 7603" d="M113.186,43.54q0,.427-.567,4.3H104.34v-2.8h7.184c.023,0,.036-.059.036-.179a6.785,6.785,0,0,0-.46-1.075,12.485,12.485,0,0,0-1.31-2.077l1.45-2.472a6.127,6.127,0,0,1,1.7,2.878A5.626,5.626,0,0,1,113.186,43.54Zm-1.277,8.4a3.515,3.515,0,0,1-.46.742q-.884,1.168-1.1,1.168a17.819,17.819,0,0,1-2.158-1.2,16.207,16.207,0,0,1-1.132,1.2,19.988,19.988,0,0,1-2.225-1.31q.213-.319,1.557-1.879c.023-.023.15.059.389.248a3.864,3.864,0,0,0,1.628.921,3.215,3.215,0,0,0,.637-.6q.565-.6.672-.6.035,0,2.193,1.311Z" transform="translate(-59.116 -32.308)" fill="#fff"/>
    <path id="Path_7604" data-name="Path 7604" d="M132.539,49.237h-2.4q-.319,0-.743-.531a9.607,9.607,0,0,1-1.664,3.574q-1.77,2.654-3.5,2.654a13.849,13.849,0,0,1-5.626-2.405v-.248a.276.276,0,0,1,.247-.106,11.294,11.294,0,0,1,1.114.425,4.684,4.684,0,0,0,1.61.425q1.414,0,3.822-1.982T127.8,48q0-.742-1.77-2.725l1.522-2.512a10.632,10.632,0,0,0,4.208,3.607h.778Z" transform="translate(-64.775 -33.705)" fill="#fff"/>
    <path id="Path_7605" data-name="Path 7605" d="M148.2,45.588c-.024,0-.059.053-.106.159s-.095.159-.142.159v2.8H145.9a.94.94,0,0,1-.654-.348,1.447,1.447,0,0,1-.407-.676q-.885,1.026-1.31,1.026h-3.574v-2.8l4.564-.071q.389,0,.531-.92c.023-.331.047-.661.071-.992a22.046,22.046,0,0,1,2.3-2.512,5.618,5.618,0,0,1-.319,1.77q-.637,1.946-.637,2.052a1.683,1.683,0,0,0,1.132.6.635.635,0,0,0,.3-.124.635.635,0,0,1,.3-.125Z" transform="translate(-73.249 -33.17)" fill="#fff"/>
    <path id="Path_7606" data-name="Path 7606" d="M162.145,44.276h-1.026q-.248-.332-.637-.884a5.931,5.931,0,0,0-.354.884h-3.822c-.024-.05-.141-.274-.354-.673a2.542,2.542,0,0,0-.637.673h-3.043v-2.8h3.5a14.386,14.386,0,0,1,.035-1.693,4.789,4.789,0,0,1,.725-.918,16.164,16.164,0,0,1,1.433-1.422q-.673,3.133-.673,3.532a1.155,1.155,0,0,0,.1.5h2.55q.106,0-.177-1.223-.035-.107-.141-.376a1.241,1.241,0,0,1-.106-.376,5.652,5.652,0,0,1,.8-1.223,10.9,10.9,0,0,1,1.044-1.294v2.229l-.281,1.756q.035.5.673.5h.39Zm-2.619-10.545a20.92,20.92,0,0,1-1.434,1.664l-2.236-1.079q-.139.095-.729.6a2.129,2.129,0,0,1-.521.376,12.7,12.7,0,0,1-1.98-1.013,9.982,9.982,0,0,1,1.38-1.535q1.912,1.027,1.982,1.026a1.944,1.944,0,0,0,.6-.385,5.929,5.929,0,0,1,.884-.641ZM157.3,31.5q-.422.387-1.409,1.267-.213-.176-.692-.6t-.691-.6l1.307-1.307q.5.394,1.486,1.242Z" transform="translate(-78.139 -28.744)" fill="#fff"/>
    <path id="Path_7607" data-name="Path 7607" d="M176.738,44.791H175a1.743,1.743,0,0,1-1.277-.759,3.128,3.128,0,0,1-.5-.977l-.991,1.734h-5.131v-2.8h5.768a2.844,2.844,0,0,0,.231-1.4,3.634,3.634,0,0,1,.124-1.294,2.973,2.973,0,0,1,.814-1.148q.5-.467.991-.97l-.283,3.34a1.047,1.047,0,0,0,.035.359,1.218,1.218,0,0,0,.531.772,1.393,1.393,0,0,0,.742.34h.673ZM175.46,32.768a12.439,12.439,0,0,1-1.38,1.625q-.425.173-.283.173a8.131,8.131,0,0,1-2.194-1.132q-1.345,1.132-1.238,1.132a2.5,2.5,0,0,1-.5-.177,7.542,7.542,0,0,1-1.769-1.062,7.242,7.242,0,0,1,.887-1.06q.671-.709.778-.708a3.842,3.842,0,0,1,.707.425,9.92,9.92,0,0,0,.884.549.941.941,0,0,0,.353.124,1.935,1.935,0,0,0,.6-.388q.671-.567.848-.708Z" transform="translate(-84.028 -29.259)" fill="#fff"/>
    <path id="Path_7608" data-name="Path 7608" d="M190.02,31.977a3.646,3.646,0,0,1-.637.924q-.106.107-1.38,1.777a.581.581,0,0,0-.071.32l.6,4.907-.673,3.556a.658.658,0,0,0-.23.071.7.7,0,0,1-.265.071h-6.051v-2.8h5.237a4.644,4.644,0,0,0,.105-.857,16.2,16.2,0,0,0-.319-2.393q-.248-1.605-.955-4.748l-1.026-.821a24.214,24.214,0,0,1,1.982-3.427,2.139,2.139,0,0,0,.247,1.138,8,8,0,0,0,1.487,1.067Q189.025,31.408,190.02,31.977Z" transform="translate(-89.665 -28.07)" fill="#fff"/>
    <path id="Path_7609" data-name="Path 7609" d="M204.605,38.713A9.278,9.278,0,0,1,203.155,44l-1.31-10.961a6.428,6.428,0,0,1,.884-1.737q.778-1.242,1.168-1.739Z" transform="translate(-97.812 -28.466)" fill="#fff"/>
    <path id="Path_7610" data-name="Path 7610" d="M227.872,49.237h-2.4q-.319,0-.743-.531a9.6,9.6,0,0,1-1.664,3.574q-1.77,2.654-3.5,2.654a13.849,13.849,0,0,1-5.626-2.405v-.248a.277.277,0,0,1,.248-.106,11.359,11.359,0,0,1,1.114.425,4.684,4.684,0,0,0,1.61.425q1.415,0,3.822-1.982t2.4-3.043q0-.742-1.77-2.725l1.522-2.512a10.646,10.646,0,0,0,4.208,3.607h.778Z" transform="translate(-102.609 -33.705)" fill="#fff"/>
    <path id="Path_7611" data-name="Path 7611" d="M259.447,48.259H256.9a1.711,1.711,0,0,0-.319-.108,2.131,2.131,0,0,1-.991-.758,2.441,2.441,0,0,1-.389-.9q-.319.577-1.026,1.769H236.166v-2.8h18.575a3.849,3.849,0,0,0,.194-1.453,3.4,3.4,0,0,1,.124-1.238,13.087,13.087,0,0,1,2.017-2.475v2.009q0,.107-.124.827t-.124.79a1.327,1.327,0,0,0,.46.9q.638.647.744.646h1.416Zm-2.512,4.53c0,.071-.119.218-.354.442a15.879,15.879,0,0,1-1.593,1.185c-.26.071-.365.106-.318.106a4.328,4.328,0,0,1-1.063-.708,9.768,9.768,0,0,1-1.1-.991,9.233,9.233,0,0,1,1.769-1.84.758.758,0,0,1,.39-.177,10.23,10.23,0,0,1,2.016,1.592A.568.568,0,0,1,256.935,52.789Z" transform="translate(-111.433 -32.727)" fill="#fff"/>
    <path id="Path_7612" data-name="Path 7612" d="M286.566,44.79h-1.734a1.741,1.741,0,0,1-1.277-.759,3.116,3.116,0,0,1-.5-.977l-.986,1.736h-8.241V42h8.877a2.855,2.855,0,0,0,.231-1.4,3.606,3.606,0,0,1,.124-1.294,2.973,2.973,0,0,1,.814-1.148q.5-.467.991-.97l-.283,3.34a1.063,1.063,0,0,0,.035.359,1.22,1.22,0,0,0,.531.772,1.394,1.394,0,0,0,.743.34h.672Zm-1.273-12.023a12.484,12.484,0,0,1-1.38,1.625q-.425.173-.283.173a8.141,8.141,0,0,1-2.194-1.132q-1.344,1.132-1.238,1.132a2.488,2.488,0,0,1-.5-.177,7.529,7.529,0,0,1-1.769-1.062,7.159,7.159,0,0,1,.884-1.061q.671-.709.778-.708a3.817,3.817,0,0,1,.708.425,10.1,10.1,0,0,0,.884.549.942.942,0,0,0,.354.124,1.928,1.928,0,0,0,.6-.388q.671-.567.849-.708Z" transform="translate(-126.382 -29.258)" fill="#fff"/>
    <path id="Path_7613" data-name="Path 7613" d="M314.548,44.975h-3.856a13.814,13.814,0,0,0-.319-2.015,7.245,7.245,0,0,0-2.087-.144q-1.416,0-1.628.036a3.072,3.072,0,0,0-1.026.288q-.921.54-2.9,1.619a2.155,2.155,0,0,1-.813.216H294.5v-2.8h7.911a5.786,5.786,0,0,0,1.84-.509q.389-.183,1.167-.619l-1.309-.51a12.668,12.668,0,0,0-2.866-.838,5.643,5.643,0,0,0-2.3.849,5.079,5.079,0,0,1,2.689-3.361,2.946,2.946,0,0,1,1.168-.177h.672q.46.108,1.31.4a21.257,21.257,0,0,0,8.457,2.475,20.752,20.752,0,0,0-.78,2.3h2.087Zm-9.482-11.713a.48.48,0,0,1-.142.39q-1.167,1.522-1.557,1.521a4.7,4.7,0,0,1-1.186-.619q-1.008-.619-1.008-.761t.655-.8a10.819,10.819,0,0,1,1.079-.977Z" transform="translate(-134.584 -29.443)" fill="#fff"/>
    <path id="Path_7614" data-name="Path 7614" d="M329.127,51.612h-2.8V48.746h2.8Z" transform="translate(-147.217 -36.08)" fill="#fff"/>
    <path id="Path_7615" data-name="Path 7615" d="M342.558,44.066a1.693,1.693,0,0,1-.248.743q-.142.248-1.557,2.48l-5.378-1.946a1.641,1.641,0,0,0-.884,1.006,3.716,3.716,0,0,1-.744,1.259h-4.423v-2.8H334.1q.177-.43.46-1.181a7.916,7.916,0,0,1,1.167-2.184,5.154,5.154,0,0,1,1.947-1.719,8.285,8.285,0,0,1,3.22-1.075.623.623,0,0,1,.212.248q.5,1.452,1.345,4.317a3.23,3.23,0,0,1,.107.847Zm-2.618-.46q-.284-1.132-.354-1.31-.319-.813-.921-.814a2.243,2.243,0,0,0-.779.177,4.114,4.114,0,0,0-.849.407q-.283.2-.283.265Z" transform="translate(-148.404 -32.073)" fill="#fff"/>
  </g>
  <g id="Group_282" data-name="Group 282" transform="translate(212.628)">
    <g id="Group_274" data-name="Group 274" transform="translate(3.034 37.734)">
      <path id="Path_7616" data-name="Path 7616" d="M402.6,102.626l-.183-.14c-.017-.014-.39-.3-.615-.5a31.553,31.553,0,0,1-15.422-4.593l-.15-.087V92.1l.143-.089s3.574-2.219,3.669-2.281l.16-.1.164.1a23.546,23.546,0,0,0,11.563,3.69h.1l.079.064c.116.093.332.258.488.376.155-.118.37-.284.485-.376l.08-.065h.1a23.467,23.467,0,0,0,11.516-3.662l.17-.1.2.08h0c.081.053,2.435,1.514,3.668,2.28l.143.089v5.209l-.15.087a31.56,31.56,0,0,1-15.424,4.593c-.217.2-.57.466-.614.5Zm-15.765-5.664a30.892,30.892,0,0,0,15.094,4.424h.12l.086.085c.1.095.3.261.465.391.163-.128.367-.3.461-.39l.086-.086h.121a30.9,30.9,0,0,0,15.1-4.424v-4.53c-2.269-1.407-3.081-1.915-3.378-2.1a24.033,24.033,0,0,1-11.6,3.682c-.225.178-.6.464-.6.464l-.182.137-.182-.137s-.38-.286-.6-.464a24.046,24.046,0,0,1-11.6-3.682c-.5.311-2.022,1.258-3.376,2.1Z" transform="translate(-386.23 -89.624)" fill="#fff"/>
    </g>
    <g id="Group_275" data-name="Group 275" transform="translate(14.018 2.493)">
      <path id="Path_7617" data-name="Path 7617" d="M404.871,31.392a.3.3,0,0,1,.075.008h0a.259.259,0,0,0-.507,0,.225.225,0,0,0,.213.2.1.1,0,0,1-.017-.055C404.635,31.461,404.741,31.392,404.871,31.392Z" transform="translate(-404.44 -31.193)" fill="#fff"/>
    </g>
    <path id="Path_7618" data-name="Path 7618" d="M407.36,30.047c.216.766,1.4.364,1.052-.486a5.267,5.267,0,0,1,1.192-.249,5.606,5.606,0,0,0-2.83.053c-.347.157-.249.37-.2.458.056-.187.368-.2.589-.123a.811.811,0,1,0,1.586.1C408.622,30.75,407.4,30.75,407.36,30.047Z" transform="translate(-391.249 -27.893)" fill="#fff" fill-rule="evenodd"/>
    <path id="Path_7619" data-name="Path 7619" d="M419.491,54.685c.183.065.343.123.467.175a4.517,4.517,0,0,1-.467-2.3V49.609c.183.069.343.125.467.177a4.52,4.52,0,0,1-.467-2.3V40.611c0-1.9-2.908-6.513-5.369-6.576-1.746-.042-3.794,2.411-6.3,1.777a3.72,3.72,0,0,1-1.978-2.139c-.934-1.909-1.832-4.464-4.108-5.941-2.519-1.634-5.419.192-5.75.482-.286.262-.74,1.046-.983,1.17A1.578,1.578,0,0,0,394.624,32a1.01,1.01,0,0,1-.013-.642,3.016,3.016,0,0,0,1.45.011,4.928,4.928,0,0,1,.97,1.071c.319.6.319.692.319.93a2.5,2.5,0,0,1-1.154,2.054c-.916.652-3.076,1.017-5.778.09-1.464-.5-2.066-1.516-3.373-1.483-2.462.062-5.371,4.672-5.371,6.576v6.878a4.486,4.486,0,0,1-.474,2.294c.126-.051.286-.107.467-.177v2.957a4.482,4.482,0,0,1-.467,2.3c.126-.052.286-.109.467-.175V58.47a4.489,4.489,0,0,1-.467,2.3c.126-.05.286-.1.467-.168v7.633a5.887,5.887,0,0,1-.18,1.653c-.068.23.086.5.326.409a3.342,3.342,0,0,0,2.419-3.3v-1.2a2.883,2.883,0,0,0,1.827-2.2,3.167,3.167,0,0,0,1.889-2.489,3.149,3.149,0,0,0,1.649-2.908,3.006,3.006,0,0,0,1.226-1.669,17.178,17.178,0,0,0,.115-2.04,3.788,3.788,0,0,0,1.105-1.2,42.4,42.4,0,0,1-1.415,8.354,2.872,2.872,0,0,0,.612-.09,15.888,15.888,0,0,1-1.184,3.326.611.611,0,0,0-.186.008c-.14.023-.241.157-.309.328-.191-.294-.431-.765-.99-.585s-.437.869-.343,1.177c.193.6-.24.8-.162,1.3a.9.9,0,0,0,.519.7.643.643,0,0,0,.357.344c.174.065.15-.083.15-.3a.686.686,0,0,0,.111-.04.566.566,0,0,0,.292.353,1.052,1.052,0,0,0,.4.386c.221.1.075-.136.032-.35a.788.788,0,0,0,.243-.109.365.365,0,0,0,.13.167c.022.017.043.029.062.044a.784.784,0,0,0,.451.491c.161.052.1-.13.082-.3.222,0,.417-.122.507-.482.126-.517-.146-.468.15-1.071.064.01.516.193.594.212-.43-.17-.676-1.206-.751-.9-.368.662-.039,1.9-.461,1.928-1.2.075-.309-1.428-.265-1.8.057-.482.007-1.184.475-1.037.418.128.953,1.492,1.214,1.9.036.056.636.413.667.255a4.123,4.123,0,0,1-.944-1.706,1.287,1.287,0,0,1,.066-.881c.112-.28.79-1.48,1.072-2.062.075.234.158.451.193.627.092-1.25,1.487-3.623,2.705-5.026-.451,1.421-1.453,4.895-1.728,5.856a5.636,5.636,0,0,1-.89,1.743,2.994,2.994,0,0,0,1.915.075.8.8,0,0,0,.184.863,1.1,1.1,0,0,0,1.694-.206,1.223,1.223,0,0,0,2.284.325c.237.742.723.836,1,1.117.283-.28.769-.376,1-1.117a1.223,1.223,0,0,0,2.284-.325,1.1,1.1,0,0,0,1.695.206.8.8,0,0,0,.186-.863,2.991,2.991,0,0,0,1.913-.075,5.641,5.641,0,0,1-.894-1.743c-.272-.961-1.273-4.433-1.723-5.856,1.22,1.4,2.615,3.776,2.705,5.026.039-.178.121-.394.194-.627.283.585.959,1.783,1.073,2.062a1.267,1.267,0,0,1,.066.881,3.8,3.8,0,0,1-.872,1.7c.029.156.53-.124.564-.18.27-.425.827-1.841,1.247-1.97.47-.15.419.555.473,1.037.044.376.937,1.884-.266,1.8-.419-.026-.095-1.267-.459-1.928-.075-.305-.313.777-.744.945.075-.018.511-.252.572-.262.3.6.043.561.167,1.078.089.361.285.485.506.482-.016.171-.075.352.085.3a.783.783,0,0,0,.451-.491.594.594,0,0,0,.065-.044.376.376,0,0,0,.13-.167.762.762,0,0,0,.244.109c-.042.214-.189.451.032.35a1.052,1.052,0,0,0,.4-.385.55.55,0,0,0,.29-.353.7.7,0,0,0,.113.04c0,.22-.026.367.15.3a.66.66,0,0,0,.359-.343.916.916,0,0,0,.518-.7c.075-.5-.354-.7-.159-1.3.094-.308.219-.992-.346-1.177s-.8.292-.988.585c-.068-.171-.17-.305-.311-.328a.6.6,0,0,0-.185-.008,15.926,15.926,0,0,1-1.184-3.326,2.865,2.865,0,0,0,.613.09,42.334,42.334,0,0,1-1.416-8.354,3.827,3.827,0,0,0,1.1,1.2,17.865,17.865,0,0,0,.118,2.048,3.014,3.014,0,0,0,1.228,1.667,3.151,3.151,0,0,0,1.646,2.907,3.173,3.173,0,0,0,1.89,2.489,2.881,2.881,0,0,0,1.832,2.2V67a3.328,3.328,0,0,0,2.384,3.287c.25.1.458-.091.4-.277a5.54,5.54,0,0,1-.222-1.776V60.6c.183.068.343.111.467.162a4.525,4.525,0,0,1-.467-2.3Zm-23.27-23.66v0c-.167.05-1.052.2-1.165.09a7.069,7.069,0,0,0,.7-.4,2.5,2.5,0,0,1,.954.44C396.471,31.061,396.447,30.98,396.222,31.025Zm-12.631,30.7v2.147c0,.271-.026,1.059-.03,1.97h0v1.441a2.492,2.492,0,0,1-1.5,1.985,2.339,2.339,0,0,0,.259-1.254v-7.7a3.708,3.708,0,0,0,1.164-.868l.125-.047C383.594,60.6,383.591,61.54,383.591,61.724Zm0-6.585c0,.353-.03,2.162-.03,2.381a2.447,2.447,0,0,1-1.5,1.99,2.354,2.354,0,0,0,.258-1.256V54.406a3.908,3.908,0,0,0,1.006-.7l.318-.119c-.036.5-.05,1.163-.05,1.551ZM382.057,53.6a2.348,2.348,0,0,0,.258-1.255V49.333a3.841,3.841,0,0,0,1.006-.7l.3-.113c-.017.244-.03.512-.03.82v1.854a2.518,2.518,0,0,1-1.535,2.405Zm2.163-5.34a3.774,3.774,0,0,0,1.1-.794c.069-.025.142-.053.216-.081-.017.237-.029.515-.029.848v1.879a2.517,2.517,0,0,1-1.441,2.366,3.839,3.839,0,0,0,.167-1.151V49.483C384.234,49.07,384.213,48.656,384.22,48.26Zm1.289,12.359V62.5a2.535,2.535,0,0,1-1.4,2.347,2.556,2.556,0,0,0,.125-1.195V61.869c0-.21-.005-1.324-.009-2.715a3.25,3.25,0,0,0,1.313-.987C385.518,59.087,385.509,60.292,385.509,60.619Zm0-6.586v1.879a2.577,2.577,0,0,1-1.411,2.369,3.825,3.825,0,0,0,.136-1.047v-.043h0V55.284c0-.455-.026-1.322-.013-1.948a3.832,3.832,0,0,0,1.1-.792c.069-.028.142-.053.216-.084C385.521,53,385.509,53.7,385.509,54.034Zm.5-2.711a3.786,3.786,0,0,0,.142-1.073V47.11a3.919,3.919,0,0,0,.642-.41,4.934,4.934,0,0,0,.558-.176c-.008.195,0,.431,0,.781v1.708a2.507,2.507,0,0,1-1.337,2.31Zm1.338,7.342v1.707a2.512,2.512,0,0,1-1.2,2.229V57.366a3.576,3.576,0,0,0,1.211-.985c0,.668-.014,1.785-.014,2.284Zm0-6.178v1.7a2.513,2.513,0,0,1-1.208,2.239c.009-.122.013-.246.013-.376V52.184a4.189,4.189,0,0,0,.712-.466c.15-.056.319-.119.5-.2,0,.319-.015.316-.015.967Zm.66-1.289a3.421,3.421,0,0,0,.7-.546c.087-.041.17-.084.249-.13v2.226a2.522,2.522,0,0,1-1,2.093,4.507,4.507,0,0,0,.029-.513V51.8c0-.189,0-.4.015-.606Zm.949,5.119v1.716a2.518,2.518,0,0,1-.966,2.067V57.982c0-.212,0-1.48.023-2.2a3.292,3.292,0,0,0,.957-.84C388.959,55.4,388.956,56,388.956,56.316Zm0-9.867v1.713a2.516,2.516,0,0,1-1.152,2.2,3.791,3.791,0,0,0,.186-1.218v-2.52c0-.132,0-.275,0-.416a3.418,3.418,0,0,0,.8-.667c.066-.032.131-.065.194-.1-.021.24-.029.564-.029,1Zm1.637,9.364a2.173,2.173,0,0,1-1,1.5V56.1c0-.3-.02-1.923.012-2.705a3.736,3.736,0,0,0,1.017-1.132C390.621,53.59,390.593,55.443,390.593,55.813Zm-1-5.7a3.737,3.737,0,0,0,1.02-1.12c-.011.93-.02,1.783-.02,2.021a2.166,2.166,0,0,1-1,1.5v-1.71c0-.2-.006-.447,0-.694Zm1-2.389a2.313,2.313,0,0,1-1.127,1.6,3.922,3.922,0,0,0,.13-1.032V46.223a9.079,9.079,0,0,1,.026-1.182,3.671,3.671,0,0,0,1.007-1.1c0,1.34-.037,3.4-.037,3.786Zm-1.382,18.2c.043.185.255,1.471-.225,1.592-.428.106-.923-.2-.567-1.127.179-.472-.11-1.435.19-1.5.384-.089.72.469.841.873a.715.715,0,0,1,.016.325c-.106-.166-.265-.464-.251-.159Zm1.309.405a2.522,2.522,0,0,1-.053.268c-.091-.189-.259-.7-.259-.365,0,.236.022,1.589-.424,1.63s-.534-.349-.3-.821.057-1.8.365-1.824.546.278.668.6a1.752,1.752,0,0,1,.01.517Zm2.053-2.81c-.142.295-.366.356-.488.546-.159.243-.081.651-.274.845-.131.132-.193.237-.144.576a1.208,1.208,0,0,0-.389-.4.464.464,0,0,0-.7.175,1.481,1.481,0,0,0-.15-.2c.044-.075.088-.17.129-.259.087-.191.062-.464.129-.572.05-.081.225-.194.307-.352s.058-.507.136-.681a3.493,3.493,0,0,0,.253-.471c.02-.075.075-.512.132-.662a2.6,2.6,0,0,1,.688-.876,7.5,7.5,0,0,0,.11,1.45,8.252,8.252,0,0,0,.7-.736,1.53,1.53,0,0,1-.215.877c-.142.289-.07.444-.216.736Zm1.743,2.153a3.116,3.116,0,0,0,.526-1.323c.113-.472,1.371-5.174,1.682-6.352a3.812,3.812,0,0,1,.549-.47.977.977,0,0,1,.451-.191c-.314,1.187-1.5,6.563-1.728,7.645-.179.691-.715.833-1.477.691Zm2.917-.093c-.132.7-.205,1.157-1.023.957-.526-.128-.065-.949.032-1.526.087-.5,1.371-6.758,1.56-7.706a3.041,3.041,0,0,1,.745.057c-.156.673-1.308,8.2-1.311,8.218Zm2.282-.958c-.054.69-.1,1.208-.134,1.38-.259,1.353-1.982,1.253-1.683-.5.081-.47.967-6.755,1.159-8.078a3.706,3.706,0,0,1,.991.42c-.014.708-.2,4.424-.33,6.776Zm1.063,2.657c-.341-.2-.6-.563-.6-1.554,0-.912.139-6.725.166-7.665a.489.489,0,1,0,.877,0c.026.937.166,6.752.166,7.665,0,.992-.262,1.351-.6,1.555Zm1.2-1.277c-.032-.171-.075-.691-.133-1.377-.128-2.352-.323-6.075-.334-6.779a3.707,3.707,0,0,1,.992-.42c.192,1.323,1.078,7.608,1.158,8.078.3,1.752-1.422,1.848-1.68.5Zm3.174.534c-.82.2-.892-.255-1.023-.957-.006-.021-1.154-7.544-1.317-8.218a3.081,3.081,0,0,1,.751-.057c.169.827,1.477,7.238,1.559,7.706.1.579.558,1.4.034,1.525Zm1.369-2.187a3.109,3.109,0,0,0,.526,1.323c-.76.142-1.3,0-1.474-.69-.231-1.083-1.419-6.458-1.728-7.645a.977.977,0,0,1,.451.191,3.983,3.983,0,0,1,.552.47c.306,1.178,1.563,5.881,1.677,6.353Zm5.389,1.412c.124-.4.455-.961.841-.872.3.066.01,1.029.192,1.5.356.921-.142,1.23-.568,1.127-.477-.12-.267-1.407-.225-1.592.014-.305-.144-.008-.252.163a.489.489,0,0,1,.016-.328Zm-.392-.545c.307.025.137,1.359.364,1.824s.129.863-.307.821-.42-1.394-.422-1.63c0-.334-.17.176-.261.365-.02-.083-.037-.173-.051-.268a1.775,1.775,0,0,1,.008-.516c.122-.317.359-.618.672-.6Zm-1.148-1.334c.075.157.255.271.3.352.067.107.043.381.13.572.043.089.085.181.13.259a1.32,1.32,0,0,0-.15.2.466.466,0,0,0-.707-.175,1.2,1.2,0,0,0-.386.4c.047-.337-.016-.444-.146-.576-.194-.194-.116-.6-.274-.845-.121-.191-.345-.252-.489-.546s-.075-.447-.219-.736a1.545,1.545,0,0,1-.218-.877,8.668,8.668,0,0,0,.7.736,7.036,7.036,0,0,0,.114-1.45,2.616,2.616,0,0,1,.688.876c.057.15.108.588.131.662a3.073,3.073,0,0,0,.255.471c.087.177.066.521.147.682Zm.1-12.786c0,.038,0,.075.007.107a.4.4,0,0,1,0-.105Zm1.291,4.99v1.223a2.171,2.171,0,0,1-1-1.5c0-.37-.029-2.22-.033-3.554a3.717,3.717,0,0,0,1.02,1.134c.034.781.014,2.4.014,2.7Zm-1.021-7.1a3.733,3.733,0,0,0,1.029,1.127c0,.247-.008.5-.008.694v1.71a2.169,2.169,0,0,1-1-1.5c0-.24-.008-1.093-.02-2.028Zm.023-1.264c0-.39-.029-2.447-.034-3.786a3.646,3.646,0,0,0,1,1.1,9.063,9.063,0,0,1,.027,1.182V48.3a4.059,4.059,0,0,0,.129,1.032,2.314,2.314,0,0,1-1.123-1.6Zm2.605,10.256V60.1a2.516,2.516,0,0,1-.963-2.067V56.316c0-.319-.005-.915-.017-1.379a3.272,3.272,0,0,0,.96.84c.026.724.023,1.992.023,2.2Zm-.963-5.234V51.034c0-.192,0-.362-.008-.512.083.045.168.088.252.13a3.482,3.482,0,0,0,.7.546c.014.206.014.417.014.606v2.523a4.352,4.352,0,0,0,.032.513,2.518,2.518,0,0,1-.991-2.09Zm0-4.584V46.45c0-.44-.011-.764-.032-1.006l.2.1a3.383,3.383,0,0,0,.793.667c.005.144.005.284.005.416v2.523a3.789,3.789,0,0,0,.188,1.218,2.505,2.505,0,0,1-1.147-2.2Zm2.8,11.516V62.6a2.513,2.513,0,0,1-1.193-2.229V58.665c0-.5-.011-1.615-.017-2.284a3.536,3.536,0,0,0,1.211.982c.007.795,0,2.193,0,2.316Zm-1.193-5.485V52.489c0-.649-.02-.646-.02-.965.183.075.352.141.5.2a4.056,4.056,0,0,0,.711.466v3.865c0,.134.005.257.015.376a2.512,2.512,0,0,1-1.206-2.237Zm0-5.178V47.3c0-.35.005-.586-.007-.781a5.256,5.256,0,0,0,.559.177,4.041,4.041,0,0,0,.641.409v3.14a3.875,3.875,0,0,0,.142,1.073,2.51,2.51,0,0,1-1.332-2.31ZM415.652,62.5V60.624c0-.328-.01-1.534-.03-2.453a3.231,3.231,0,0,0,1.317.987c-.007,1.391-.009,2.5-.009,2.715v1.782a2.635,2.635,0,0,0,.119,1.195,2.537,2.537,0,0,1-1.4-2.352Zm0-6.584V54.04c0-.336-.01-1.038-.03-1.574.075.03.15.056.216.084a3.884,3.884,0,0,0,1.1.792c.014.627-.009,1.493-.009,1.948v1.954a4.072,4.072,0,0,0,.131,1.052,2.587,2.587,0,0,1-1.407-2.382Zm0-5.8V48.241c0-.333-.01-.612-.03-.848l.216.081a3.771,3.771,0,0,0,1.1.794c.005.395-.012.809-.012,1.224v1.845a3.748,3.748,0,0,0,.165,1.151,2.515,2.515,0,0,1-1.441-2.372ZM417.6,67.286V65.84h0c0-.91-.025-1.7-.025-1.97V61.724c0-.184-.007-1.12-.013-2.324l.122.047a3.715,3.715,0,0,0,1.164.868v7.7a2.336,2.336,0,0,0,.257,1.254,2.494,2.494,0,0,1-1.5-1.986Zm0-9.763c0-.219-.026-2.029-.026-2.381,0-.388-.02-1.052-.052-1.552l.322.119a3.865,3.865,0,0,0,1,.7v3.847a2.351,2.351,0,0,0,.257,1.256,2.45,2.45,0,0,1-1.5-1.994Zm-.026-6.32V49.338c0-.307-.011-.576-.032-.82.107.041.207.075.3.113a3.8,3.8,0,0,0,1,.7v3.015A2.346,2.346,0,0,0,419.1,53.6a2.517,2.517,0,0,1-1.528-2.4Zm0-5.082v-.671h0c0-.337,0-.667,0-.827a2.209,2.209,0,0,0-.7-1.879,6.857,6.857,0,0,1,.061,2.029v1.477A3.756,3.756,0,0,0,417.1,47.4a2.514,2.514,0,0,1-1.443-2.365,6.664,6.664,0,0,0-.644-2.967v3.1a3.8,3.8,0,0,0,.146,1.084c-1.636-.827-1.473-3.65-2-4.745,0,.947.02,1.612.02,2.555a3.811,3.811,0,0,0,.191,1.22c-1.432-.914-1.6-2.705-1.71-4.045a5.744,5.744,0,0,0,.024,3.034,4.387,4.387,0,0,1-1.428-3.421,4.659,4.659,0,0,0,.01,2.463c-.053,1.052-.044,9.359-.042,10.265a2.964,2.964,0,0,1-1.046-2.507c.021-.2.043-.4.071-.579a20.579,20.579,0,0,0-.609-9.318,29.709,29.709,0,0,1-.365,10.431c-.27,1.723.316,5.3,1.532,9.261-.236-.234-1.046-.574-1.37-.9,0,.359.129.744.129,1.527-.419-.7-.576-.73-1.019-1.5a8.169,8.169,0,0,1,.1,1.782,25.049,25.049,0,0,0-1.658-3.452c-2.207-3.448-5.393-1.31-5.393-.709,0-.6-3.183-2.74-5.389.709a25.461,25.461,0,0,0-1.661,3.452,8.111,8.111,0,0,1,.1-1.782c-.443.775-.6.8-1.019,1.5,0-.783.13-1.168.13-1.527-.325.325-1.135.667-1.371.9,1.217-3.963,1.8-7.538,1.531-9.261a29.774,29.774,0,0,1-.363-10.431,20.607,20.607,0,0,0-.609,9.318c.026.183.05.376.068.582a2.96,2.96,0,0,1-1.052,2.509c0-.906.013-9.2-.041-10.271a4.6,4.6,0,0,0,.01-2.463,4.381,4.381,0,0,1-1.428,3.421,5.765,5.765,0,0,0,.023-3.034c-.113,1.34-.275,3.13-1.708,4.045a3.794,3.794,0,0,0,.186-1.216c0-.946.023-1.611.023-2.555-.534,1.095-.37,3.916-2,4.745a3.916,3.916,0,0,0,.142-1.084v-3.1a6.681,6.681,0,0,0-.642,2.967,2.514,2.514,0,0,1-1.441,2.364,3.833,3.833,0,0,0,.167-1.15V44.766a6.8,6.8,0,0,1,.058-2.029,2.2,2.2,0,0,0-.7,1.879v.827h0v.671a2.52,2.52,0,0,1-1.534,2.409,2.354,2.354,0,0,0,.258-1.255V40.759c0-1.83,2.136-3.934,2.931-4.86,2.19-2.567,3.144-.482,5.349.265,3.666,1.245,5.622-.144,5.622-.144,1.96-1.232,1.964-2.395,1.964-3.121a2.508,2.508,0,0,0-.548-1.539,3.35,3.35,0,0,0-2.069-.842,6.255,6.255,0,0,1-.924.294c-.207-.41-.15-1.033.768-1.545.259-.143.164-.472.953-.931a4.529,4.529,0,0,1,5.874.609,6.121,6.121,0,0,0-1.7-.4,6.147,6.147,0,0,1,3.246,2.807c.345.6,1.127,2.26,1.4,2.762.588,1.072,1.649,3.313,5.393,2.048,2.2-.744,3.156-2.831,5.348-.265.79.926,2.931,3.03,2.931,4.86v6.513a2.352,2.352,0,0,0,.257,1.255,2.523,2.523,0,0,1-1.545-2.41Z" transform="translate(-381.2 -27.061)" fill="#fff"/>
    <path id="Path_7620" data-name="Path 7620" d="M398.388,85.113a7.505,7.505,0,0,1-.11-1.45,2.6,2.6,0,0,0-.688.876c-.058.15-.111.588-.132.662a3.5,3.5,0,0,1-.253.471c-.075.174-.058.52-.136.681s-.257.271-.307.352c-.065.107-.041.381-.128.572-.041.089-.085.181-.129.259a1.474,1.474,0,0,1,.15.2.464.464,0,0,1,.7-.175,1.208,1.208,0,0,1,.389.4c-.05-.337.013-.444.144-.576.193-.194.115-.6.274-.845.121-.191.346-.252.488-.546s.075-.447.222-.736a1.531,1.531,0,0,0,.215-.877,8.244,8.244,0,0,1-.7.736Z" transform="translate(-387.272 -49.524)" fill="none"/>
    <path id="Path_7621" data-name="Path 7621" d="M427.383,84.539a2.618,2.618,0,0,0-.688-.876,7.032,7.032,0,0,1-.114,1.45,8.67,8.67,0,0,1-.7-.736,1.545,1.545,0,0,0,.218.877c.145.289.075.446.219.736s.368.356.489.546c.157.243.08.651.274.845.13.132.194.237.146.576a1.2,1.2,0,0,1,.385-.4.466.466,0,0,1,.707.175,1.317,1.317,0,0,1,.15-.2c-.044-.075-.087-.17-.13-.259-.087-.191-.062-.464-.13-.572-.049-.081-.225-.194-.3-.352s-.059-.507-.136-.681a3.071,3.071,0,0,1-.255-.471C427.49,85.128,427.439,84.689,427.383,84.539Z" transform="translate(-398.933 -49.524)" fill="none"/>
    <path id="Path_7622" data-name="Path 7622" d="M429.408,67.031c0-.033,0-.069-.007-.107a.4.4,0,0,0,.007.107Z" transform="translate(-400.329 -42.881)" fill="none"/>
    <path id="Path_7623" data-name="Path 7623" d="M409.266,48.94a5.464,5.464,0,1,1-1.852.32,5.464,5.464,0,0,1,1.852-.32m0-.6a6.076,6.076,0,1,0,6.077,6.076A6.076,6.076,0,0,0,409.266,48.339Z" transform="translate(-389.926 -35.505)" fill="#fff"/>
    <path id="Path_7624" data-name="Path 7624" d="M409.493,48.94a5.49,5.49,0,0,1,4.652,2.585,22.941,22.941,0,0,0-4.235-.368,32.02,32.02,0,0,0-5.1.423,5.459,5.459,0,0,1,4.685-2.641m0-.6a6.06,6.06,0,0,0-5.73,4.058,30.469,30.469,0,0,1,6.147-.633,20.845,20.845,0,0,1,5.316.628,6.08,6.08,0,0,0-5.732-4.051Z" transform="translate(-390.154 -35.505)" fill="#fff"/>
    <path id="Path_7625" data-name="Path 7625" d="M404.809,62.566a32.011,32.011,0,0,0,5.1.424,22.943,22.943,0,0,0,4.234-.368,5.476,5.476,0,0,1-9.337-.056m-1.046-.812a6.078,6.078,0,0,0,11.462.005,20.867,20.867,0,0,1-5.315.628,30.451,30.451,0,0,1-6.147-.633Z" transform="translate(-390.154 -40.829)" fill="#fff"/>
    <path id="Path_7626" data-name="Path 7626" d="M406.446,49.954a37.841,37.841,0,0,0-.256,4.563,44.035,44.035,0,0,0,.257,4.821,5.474,5.474,0,0,1,0-9.384m.765-1.029a6.079,6.079,0,0,0-.02,11.433,39.215,39.215,0,0,1-.4-5.842,31.182,31.182,0,0,1,.417-5.591Z" transform="translate(-389.926 -35.738)" fill="#fff"/>
    <g id="Group_277" data-name="Group 277" transform="translate(11.204 10.542)">
      <g id="Group_276" data-name="Group 276" transform="translate(0.73 0.926)">
        <path id="Path_7627" data-name="Path 7627" d="M408.44,60.986a7.456,7.456,0,1,1,7.457-7.453,7.455,7.455,0,0,1-7.457,7.453Zm0-14.4a6.948,6.948,0,1,0,6.949,6.949,6.947,6.947,0,0,0-6.949-6.949Z" transform="translate(-400.986 -46.075)" fill="#fff"/>
      </g>
      <path id="Path_7628" data-name="Path 7628" d="M419.007,68.237s-.614-.176-.784-.231l-.2-.78a.024.024,0,0,0-.014-.014.019.019,0,0,0-.018.008s-.347.508-.451.646c-.176,0-.792-.05-.793-.05a.018.018,0,0,0-.017.011.026.026,0,0,0,0,.017l.491.651c-.061.166-.307.768-.307.768a.026.026,0,0,0,0,.017.016.016,0,0,0,.021,0l.745-.314.6.468h.02a.019.019,0,0,0,.009-.016s.011-.658.011-.76c.15-.083.7-.4.7-.4a.014.014,0,0,0,.01-.016.015.015,0,0,0-.012-.014" transform="translate(-406.501 -53.538)" fill="#fff"/>
      <path id="Path_7629" data-name="Path 7629" d="M418.726,68.728a.026.026,0,0,0,0-.01.016.016,0,0,0-.011-.017l-.089-.028-.268-.089-.041-.159-.057-.225h0a.025.025,0,0,0-.014-.011.015.015,0,0,0-.015.006l-.238.31-.38-.011-.008,0a.013.013,0,0,0-.01.005v.019l.237.317-.075.2-.056.15V69.2a.02.02,0,0,0,0,.011h0a.014.014,0,0,0,.014,0h0l.134-.057.193-.08.32.251a.02.02,0,0,0,.013,0h.008a.017.017,0,0,0,.01-.015l0-.407.316-.171a.008.008,0,0,0,0-.008" transform="translate(-406.848 -53.925)" fill="#fff"/>
      <path id="Path_7630" data-name="Path 7630" d="M408.292,67.827a.013.013,0,0,0-.017-.011c-.006,0-.618.047-.793.05-.105-.138-.451-.645-.451-.646a.018.018,0,0,0-.016-.008.017.017,0,0,0-.015.014l-.205.78c-.167.056-.78.23-.78.231a.017.017,0,0,0-.013.014.02.02,0,0,0,.009.017s.544.313.7.4c0,.1.01.76.01.76a.073.073,0,0,0,.01.016h.008a.016.016,0,0,0,.01,0l.6-.468.746.314a.014.014,0,0,0,.018,0,.016.016,0,0,0,0-.02s-.244-.6-.307-.768l.49-.651c0-.005.008-.012,0-.017" transform="translate(-402.246 -53.537)" fill="#fff"/>
      <path id="Path_7631" data-name="Path 7631" d="M408.041,68.7l.135-.182a.012.012,0,0,0,0-.011V68.5a.015.015,0,0,0-.014-.009l-.383.009-.117-.154-.119-.156h0c0-.005-.008-.008-.017-.006a.025.025,0,0,0-.014.013l-.1.385-.176.059-.178.059a.019.019,0,0,0,0,.035l.315.17v.407a.017.017,0,0,0,.008.015h.008a.019.019,0,0,0,.011,0l.2-.157.12-.094.241.1.088.038a.018.018,0,0,0,.017,0h0a.022.022,0,0,0,.005-.02l-.075-.2-.056-.15Z" transform="translate(-402.661 -53.924)" fill="#fff"/>
      <path id="Path_7632" data-name="Path 7632" d="M404.429,50.242l-.729-.376-.062-.818a.017.017,0,0,0-.011-.017.02.02,0,0,0-.02.007s-.414.46-.531.6l-.738-.169a.019.019,0,0,0-.015.008.015.015,0,0,0,0,.017s.24.534.319.694c-.1.141-.451.657-.451.657a.014.014,0,0,0,0,.02c0,.005.008.008.016.005s.62-.107.8-.128l.513.609a.025.025,0,0,0,.013.005h0a.017.017,0,0,0,.014-.013s.1-.6.138-.769c.166-.075.741-.295.744-.3a.017.017,0,0,0,.011-.016.018.018,0,0,0-.01-.017" transform="translate(-400.732 -46.322)" fill="#fff"/>
      <path id="Path_7633" data-name="Path 7633" d="M413.663,45.29a.015.015,0,0,0-.017-.011s-.627-.041-.8-.05c-.075-.159-.34-.676-.34-.676l0-.008a.015.015,0,0,0-.016,0,.011.011,0,0,0-.01.01c0,.005-.262.519-.337.676-.173.008-.8.049-.8.049s-.015.005-.015.012a.016.016,0,0,0,.005.02s.476.426.6.549l-.156.792a.027.027,0,0,0,.008.019h.02s.536-.307.691-.383c.156.075.691.383.691.383a.02.02,0,0,0,.017,0c.005,0,.01-.011.008-.017l-.155-.792c.128-.123.6-.549.6-.552a.016.016,0,0,0,.006-.019" transform="translate(-404.357 -44.54)" fill="#fff"/>
      <path id="Path_7634" data-name="Path 7634" d="M413.456,45.858a.015.015,0,0,0-.017-.011l-.356-.017-.177-.37a.014.014,0,0,0-.015-.012.017.017,0,0,0-.017.012l-.174.37-.359.017c-.008,0-.014,0-.014.011v.018l.27.261-.075.393a.014.014,0,0,0,.008.017.018.018,0,0,0,.019,0l.344-.176.344.176h.009l.01,0s.009-.011.007-.017l-.075-.393.268-.262a.015.015,0,0,0,0-.018" transform="translate(-404.756 -44.9)" fill="#fff"/>
      <path id="Path_7635" data-name="Path 7635" d="M422.856,50.841s-.348-.518-.451-.658c.08-.161.319-.694.319-.694a.017.017,0,0,0,0-.017.023.023,0,0,0-.019-.008l-.736.169c-.118-.139-.534-.6-.534-.6a.032.032,0,0,0-.017,0,.017.017,0,0,0-.01.017l-.063.818-.727.376a.014.014,0,0,0-.009.017c0,.008,0,.014.013.015s.576.225.74.3c.037.167.137.769.137.769a.021.021,0,0,0,.013.014h0a.024.024,0,0,0,.014-.005l.515-.611c.174.023.792.13.792.131a.018.018,0,0,0,.019-.009.013.013,0,0,0,0-.019" transform="translate(-408.042 -46.321)" fill="#fff"/>
      <path id="Path_7636" data-name="Path 7636" d="M422.731,50.89l-.215-.288.182-.365a.017.017,0,0,0,0-.019.022.022,0,0,0-.018-.007l-.405.091-.231-.274a.019.019,0,0,0-.02,0,.014.014,0,0,0-.011.014l-.028.376-.359.185a.016.016,0,0,0,0,.031l.352.156.075.384a.014.014,0,0,0,.011.013h.008a.021.021,0,0,0,.014-.006l.255-.3.376.045a.017.017,0,0,0,.016-.008.015.015,0,0,0,0-.02" transform="translate(-408.441 -46.715)" fill="#fff"/>
      <path id="Path_7637" data-name="Path 7637" d="M404.166,50.6l-.357-.185-.026-.376a.015.015,0,0,0-.014-.014.014.014,0,0,0-.018,0l-.234.274-.406-.091a.022.022,0,0,0-.017.005.016.016,0,0,0,0,.02l.181.365-.216.286a.023.023,0,0,0,0,.02.024.024,0,0,0,.02.01l.376-.047.256.305a.023.023,0,0,0,.014.005h.005a.016.016,0,0,0,.013-.013l.075-.384.35-.156a.015.015,0,0,0,.011-.014.018.018,0,0,0-.011-.017" transform="translate(-401.077 -46.715)" fill="#fff"/>
      <path id="Path_7638" data-name="Path 7638" d="M402.013,60.92s-.4-.455-.521-.588c.046-.174.216-.757.216-.759s0-.014-.005-.018a.021.021,0,0,0-.019,0l-.735.325c-.15-.095-.658-.46-.658-.46a.027.027,0,0,0-.021,0,.02.02,0,0,0-.005.017s.086.612.12.788l-.6.473a.026.026,0,0,0-.008.018.022.022,0,0,0,.015.015s.572.142.744.179c.044.172.231.76.231.761a.017.017,0,0,0,.016.014h0a.017.017,0,0,0,.017-.011s.3-.551.4-.7l.8-.023a.015.015,0,0,0,.014-.011.016.016,0,0,0,0-.019" transform="translate(-399.776 -50.444)" fill="#fff"/>
      <path id="Path_7639" data-name="Path 7639" d="M401.836,61.039l-.252-.3.1-.376a.016.016,0,0,0,0-.017.013.013,0,0,0-.019,0l-.364.161-.316-.206a.021.021,0,0,0-.02,0,.02.02,0,0,0-.007.019l.071.349-.323.256a.016.016,0,0,0-.006.018.015.015,0,0,0,.013.013l.4.089.087.348a.02.02,0,0,0,.014.013h0a.016.016,0,0,0,.013-.008l.2-.322.4-.01a.022.022,0,0,0,.012-.029" transform="translate(-400.138 -50.795)" fill="#fff"/>
      <path id="Path_7640" data-name="Path 7640" d="M425.262,60.695l-.6-.475c.035-.175.12-.787.12-.787a.014.014,0,0,0-.007-.017.017.017,0,0,0-.022,0s-.509.365-.657.46l-.735-.325a.016.016,0,0,0-.023.018s.17.585.216.757c-.117.136-.518.589-.518.589a.018.018,0,0,0,0,.019.019.019,0,0,0,.016.011l.8.023c.09.15.4.7.4.7a.017.017,0,0,0,.017.011h0a.017.017,0,0,0,.013-.014s.185-.589.231-.76c.174-.038.745-.179.745-.179a.016.016,0,0,0,.011-.015.014.014,0,0,0-.005-.017" transform="translate(-409.006 -50.442)" fill="#fff"/>
      <path id="Path_7641" data-name="Path 7641" d="M425.073,60.926l-.324-.256.071-.349a.027.027,0,0,0-.006-.019.018.018,0,0,0-.023,0l-.316.206-.365-.161a.013.013,0,0,0-.018,0,.017.017,0,0,0,0,.017l.1.376-.254.3a.021.021,0,0,0,0,.018.023.023,0,0,0,.017.011l.4.01.2.322a.027.027,0,0,0,.015.008h0a.021.021,0,0,0,.013-.013l.087-.348.4-.089a.017.017,0,0,0,.015-.013.028.028,0,0,0-.007-.018" transform="translate(-409.361 -50.793)" fill="#fff"/>
    </g>
    <g id="Group_280" data-name="Group 280" transform="translate(4.373 40.412)">
      <path id="Path_7642" data-name="Path 7642" d="M429.441,101.781a.614.614,0,0,1-.466.742.649.649,0,0,1-.751-.243.443.443,0,0,0,.474.128.417.417,0,0,0,.319-.494h0c-.093-.3-.187-.6-.28-.9a.2.2,0,0,0-.262-.12c.15-.243.3-.487.439-.733Q429.176,100.968,429.441,101.781Z" transform="translate(-404.234 -96.483)" fill="#fff"/>
      <path id="Path_7643" data-name="Path 7643" d="M409.572,106.048a.2.2,0,0,0,.231-.174.225.225,0,0,0-.445-.032.209.209,0,0,0,.213.205Z" transform="translate(-396.747 -98.67)" fill="#fff"/>
      <path id="Path_7644" data-name="Path 7644" d="M399.815,99.515a.2.2,0,0,0-.253.123.2.2,0,0,0,.15.24.189.189,0,1,0,.1-.363Z" transform="translate(-392.857 -96.224)" fill="#fff"/>
      <path id="Path_7645" data-name="Path 7645" d="M423.856,100.68a.192.192,0,1,0,.228.147.192.192,0,0,0-.228-.147Z" transform="translate(-402.437 -96.688)" fill="#fff"/>
      <path id="Path_7646" data-name="Path 7646" d="M411.048,106.135a.2.2,0,0,0,.225-.178.225.225,0,0,0-.44-.018.2.2,0,0,0,.215.2Z" transform="translate(-397.333 -98.708)" fill="#fff"/>
      <path id="Path_7647" data-name="Path 7647" d="M408.688,105.979a.191.191,0,1,0-.207-.207.2.2,0,0,0,.207.207Z" transform="translate(-396.399 -98.643)" fill="#fff"/>
      <path id="Path_7648" data-name="Path 7648" d="M400.6,99.729a.2.2,0,0,0-.249.129.207.207,0,0,0,.4.105.2.2,0,0,0-.151-.234Z" transform="translate(-393.172 -96.31)" fill="#fff"/>
      <path id="Path_7649" data-name="Path 7649" d="M424.654,100.5a.2.2,0,0,0-.159.231.194.194,0,0,0,.242.138.2.2,0,0,0,.16-.225.2.2,0,0,0-.243-.144Z" transform="translate(-402.753 -96.618)" fill="#fff"/>
      <path id="Path_7650" data-name="Path 7650" d="M436.664,97.451h0c-.059-.113-.114-.225-.172-.34h0q-.683-1.353-1.359-2.705c.258.068.519.132.784.194a.245.245,0,0,0-.061.331c.4.772.8,1.543,1.2,2.315Z" transform="translate(-406.976 -94.2)" fill="#fff"/>
      <path id="Path_7651" data-name="Path 7651" d="M419.677,102.57h0q-.2-1.691-.407-3.381c.216.15.436.3.656.451a.246.246,0,0,0-.161.291l.347,2.587Z" transform="translate(-400.681 -96.099)" fill="#fff"/>
      <path id="Path_7652" data-name="Path 7652" d="M405.082,102.287h0c.179-1.123.357-2.242.537-3.365.167.206.335.41.509.613a.247.247,0,0,0-.24.235q-.189,1.291-.376,2.583C405.368,102.333,405.223,102.312,405.082,102.287Z" transform="translate(-395.05 -95.993)" fill="#fff"/>
      <path id="Path_7653" data-name="Path 7653" d="M427.468,101.015h0c-.035-.122-.068-.244-.1-.366h0q-.407-1.455-.819-2.914c.24.118.479.232.724.343a.246.246,0,0,0-.12.313q.368,1.25.739,2.5Q427.679,100.958,427.468,101.015Z" transform="translate(-403.568 -95.521)" fill="#fff"/>
      <path id="Path_7654" data-name="Path 7654" d="M424.89,102.164q-.24-.914-.485-1.827c-.156.225-.313.446-.476.667a.244.244,0,0,1,.267.2q.089.351.176.7c-.628.159-1.261.3-1.9.416l-.257.047c-.133-.079-.262-.159-.391-.238a1.452,1.452,0,0,0,.368-1.291,1.451,1.451,0,0,1-1.052,1.325q.475.311.977.609l.431-.075h0C423.33,102.551,424.116,102.371,424.89,102.164Z" transform="translate(-401.423 -96.554)" fill="#fff"/>
      <path id="Path_7655" data-name="Path 7655" d="M431.12,98.5h0q.4.146.812.283c.088.21.175.421.265.63-.207.086-.41.171-.618.25-.046-.117-.093-.234-.139-.353.068-.026.137-.056.207-.083-.02-.045-.039-.093-.059-.141-.092-.029-.183-.062-.274-.092h0C431.251,98.824,431.184,98.659,431.12,98.5Zm-1,1.7h0c-.041-.121-.083-.241-.122-.361h0q-.488-1.428-.977-2.864c.244.1.494.205.742.3a.251.251,0,0,0-.1.319q.374,1.052.748,2.1l.419-.15c-.035-.1-.071-.189-.107-.285.138-.254.271-.5.4-.761.065.165.131.329.195.494-.044.084-.089.168-.133.254.02.049.038.095.056.141l.2-.079c.045.118.093.236.139.353-.347.139-.692.269-1.041.393l-.1.035Z" transform="translate(-404.551 -95.218)" fill="#fff"/>
      <path id="Path_7656" data-name="Path 7656" d="M414.29,100.9h0a.647.647,0,0,1,.431.277c.165-.01.33-.02.5-.034-.188.419-.388.839-.594,1.253.38-.02.763-.05,1.143-.085-.069-.739-.136-1.48-.207-2.22a.243.243,0,0,0-.22-.248c.184-.193.362-.389.537-.585.122,1.133.242,2.26.362,3.39h0l-.376.037c-.02,0-.039,0-.059,0q-.711.066-1.419.1c-.017-.252-.026-.5-.039-.757h0q.119-.231.231-.466c-.041,0-.085.006-.126.007a.3.3,0,0,0-.139-.222h0C414.3,101.2,414.3,101.051,414.29,100.9Zm-1.3,2.115a.606.606,0,0,1-.657.567.648.648,0,0,1-.641-.459.442.442,0,0,0,.413.267.412.412,0,0,0,.446-.376h0c0-.315,0-.631,0-.945a.19.19,0,0,0-.206-.195c.214-.187.425-.376.63-.566,0,.376.005.759.008,1.137.371,0,.744-.011,1.117-.025-.246-.395-.482-.792-.711-1.19l.5-.014a.626.626,0,0,1,.4-.319c.006.15.014.3.02.451a.3.3,0,0,0-.108.235,1.075,1.075,0,0,0-.13.005c.09.15.18.3.272.44.013.254.023.506.039.757-.464.022-.928.035-1.392.036Z" transform="translate(-397.674 -96.125)" fill="#fff"/>
      <path id="Path_7657" data-name="Path 7657" d="M397.609,101.1c.357.08.717.154,1.078.221l.047.009.381.068h.005q.292-1.678.577-3.358-.338.213-.676.414a.243.243,0,0,1,.15.3q-.206,1.1-.41,2.192l-.428-.084c.02-.1.039-.2.062-.3q-.263-.344-.508-.689c-.038.174-.075.346-.116.518.058.075.116.15.172.231-.01.05-.02.1-.031.15l-.215-.047C397.665,100.849,397.636,100.972,397.609,101.1Zm-2.762-1.144h0c.016-.049.03-.1.047-.145a.663.663,0,0,0-.466-.793l-.075-.029h0q-1.185-.414-2.344-.927.08-.174.155-.347a.19.19,0,0,1,.267-.085c-.12-.258-.233-.515-.342-.775l-.633,1.374q1.4.648,2.852,1.149a.248.248,0,0,1,.174.3h0c-.017.047-.034.1-.048.144h0l-.134.4-.264.106c-.052-.086-.1-.171-.15-.258.044-.13.091-.258.136-.387-.1-.035-.2-.075-.307-.108a1.139,1.139,0,0,1-.108-.041c-.777-.286-1.549-.6-2.308-.954l-.16.347q1.154.526,2.337.966c-.02.056-.043.116-.065.176.146.255.3.512.451.764h0c.273-.1.543-.21.812-.322.02-.062.039-.124.06-.187.3.1.609.191.914.281a.822.822,0,0,0,.225.225,1.087,1.087,0,0,1-.1-.192c.254.075.509.142.765.21.357.093.714.18,1.075.258.029-.124.057-.247.084-.371-.071-.015-.139-.029-.21-.048.008-.048.023-.1.033-.146.083-.044.167-.091.25-.137h0c.039-.173.075-.344.116-.518h0q-.372.208-.751.408c-.023.1-.047.2-.07.293-.144-.035-.287-.07-.428-.108l.322-1.245q-.369.177-.751.349a.244.244,0,0,1,.133.312c-.043.16-.087.319-.132.478-.062-.017-.122-.034-.184-.053h0l-.353-.1a1.984,1.984,0,0,1,.051-.451,1.555,1.555,0,0,0-.364-1.619c-.168.075-.34.156-.511.234a1,1,0,0,1,.643.811c.06.37-.142.648-.037.961-.2-.06-.4-.122-.607-.186Z" transform="translate(-389.516 -95.171)" fill="#fff"/>
      <path id="Path_7658" data-name="Path 7658" d="M407.56,102.321c.075.008.145.016.217.022.017-.159.031-.322.048-.48a.827.827,0,0,1-.225.056c.015-.142.03-.281.044-.424a.343.343,0,0,0,.243-.288l.107-1.087a.243.243,0,0,0-.171-.283c.216-.156.428-.315.64-.474-.085,1.011-.172,2.014-.255,3.019.231.02.462.038.693.053.011-.165.022-.331.031-.5a.246.246,0,0,0-.2-.277c.225-.163.443-.328.659-.494-.023.429-.041.858-.063,1.29.144.007.289.013.433.017.007-.165.013-.329.02-.494a.247.247,0,0,0-.2-.274q.327-.252.643-.511c-.013.556-.026,1.111-.036,1.669q-.969-.021-1.935-.1h0c-.243-.02-.488-.044-.733-.068C407.534,102.568,407.548,102.442,407.56,102.321Zm.01-.4h0a.211.211,0,0,0-.2.177c-.008.065-.017.132-.026.2.075.007.146.017.219.023-.013.124-.026.249-.039.376a1.308,1.308,0,0,1-.141-.015h0c-.171-.018-.346-.04-.515-.062.023-.191.046-.381.071-.571a.612.612,0,0,1,.582-.5,1.164,1.164,0,0,1,.129-.053c-.014.143-.029.283-.044.424a.08.08,0,0,0-.035,0Z" transform="translate(-395.757 -96.167)" fill="#fff"/>
      <path id="Path_7659" data-name="Path 7659" d="M389.218,97.288l.2.1c.075-.144.142-.287.214-.43a1,1,0,0,1-.234-.027l.192-.382a.352.352,0,0,0,.334-.182l.482-.977a.242.242,0,0,0-.062-.328c.261-.067.521-.138.778-.213l-1.468,3.076c-.2-.1-.407-.2-.608-.3C389.1,97.513,389.164,97.4,389.218,97.288Zm.15-.367h0a.215.215,0,0,0-.259.089c-.029.056-.057.112-.088.17.066.037.133.071.2.107-.057.112-.115.225-.171.34-.2-.1-.4-.206-.6-.31.085-.174.179-.34.27-.511a.611.611,0,0,1,.73-.256c0-.011.066,0,.142,0l-.192.382a.211.211,0,0,0-.033-.011Z" transform="translate(-388.449 -94.376)" fill="#fff"/>
      <g id="Group_278" data-name="Group 278" transform="translate(11.463 3.099)">
        <path id="Path_7660" data-name="Path 7660" d="M407.939,99.406a.2.2,0,1,0-.218.171.2.2,0,0,0,.218-.171Z" transform="translate(-407.493 -99.2)" fill="#fff"/>
        <path id="Path_7661" data-name="Path 7661" d="M407.851,100.147a.2.2,0,1,0-.221.167.2.2,0,0,0,.221-.167Z" transform="translate(-407.455 -99.49)" fill="#fff"/>
      </g>
      <g id="Group_279" data-name="Group 279" transform="translate(1.276 0)">
        <path id="Path_7662" data-name="Path 7662" d="M390.58,94.828a.2.2,0,0,0,.362.188.2.2,0,0,0-.1-.259A.2.2,0,0,0,390.58,94.828Z" transform="translate(-390.563 -94.329)" fill="#fff"/>
        <path id="Path_7663" data-name="Path 7663" d="M390.932,94.162a.2.2,0,0,0,.09.262.191.191,0,0,0,.265-.075.195.195,0,0,0-.091-.26A.2.2,0,0,0,390.932,94.162Z" transform="translate(-390.702 -94.065)" fill="#fff"/>
      </g>
      <path id="Path_7664" data-name="Path 7664" d="M434.309,96.764c-.277-.594-.556-1.186-.836-1.78.28.092.562.181.847.262a.3.3,0,0,0-.109.35c.185.376.367.751.55,1.127-.059.143-.118.283-.179.422.145.043.292.083.443.122q.15.309.3.615c-.2.1-.4.195-.606.289-.052-.115-.107-.231-.16-.346.068-.032.135-.065.206-.1-.023-.044-.044-.091-.067-.135-.094-.027-.186-.05-.28-.075h0l-.225-.485h0C434.234,96.941,434.271,96.855,434.309,96.764Zm.408,1.4c-.2.093-.406.183-.609.272q-.139-.31-.276-.626c.068-.139.133-.277.194-.418q-.219-.067-.435-.136c-.008-.024-.022-.048-.03-.075-.155-.358-.313-.717-.469-1.075a.3.3,0,0,0-.332-.15c.122-.271.24-.543.351-.815l.809,1.792c.092.032.183.058.274.087l.225.485c-.041.088-.08.175-.119.261.02.044.041.091.062.137l.2-.09c.05.12.11.236.158.351Z" transform="translate(-406.035 -94.43)" fill="#fff"/>
      <path id="Path_7665" data-name="Path 7665" d="M436.346,100.923c.087.029.176.056.265.083-.271.129-.543.255-.818.376l.11-.225c.03.032.075.029.127,0-.158-.14.029-.363.233-.3a.109.109,0,0,0-.066.012.1.1,0,1,0,.08.17A.1.1,0,0,0,436.346,100.923Z" transform="translate(-407.238 -96.756)" fill="#fff"/>
    </g>
    <g id="Group_281" data-name="Group 281" transform="translate(0.342 52.551)">
      <path id="Path_7666" data-name="Path 7666" d="M395.933,117.683a.271.271,0,0,1-.174.31,1.166,1.166,0,0,1-.451.1.908.908,0,0,1-.985-1.013.986.986,0,0,1,.957-1.079c.526,0,.77.333.73,1.058l-1.289,0a.665.665,0,0,0,.692.726.871.871,0,0,0,.521-.105m-.71-1.448c-.225,0-.451.205-.49.587.331.008.742,0,.827,0a.1.1,0,0,0,.1-.1.425.425,0,0,0-.427-.49Z" transform="translate(-386.749 -114.909)" fill="#fff"/>
      <path id="Path_7667" data-name="Path 7667" d="M434.714,117.558v-1.1c0-.289-.385-.426-.385-.426a1.127,1.127,0,0,0-.354-.059,1.091,1.091,0,0,0-1.14,1.117.893.893,0,0,0,.89.994,1.177,1.177,0,0,0,.646-.261.3.3,0,0,0,.331.261c.095,0,.191-.118.211-.219a.344.344,0,0,1-.2-.3m-.385.058a.73.73,0,0,1-.435.15.66.66,0,0,1-.646-.733.729.729,0,0,1,.724-.81.743.743,0,0,1,.358.075Z" transform="translate(-402.032 -114.896)" fill="#fff"/>
      <path id="Path_7668" data-name="Path 7668" d="M412.24,117.558v-1.1c0-.289-.384-.426-.384-.426a1.127,1.127,0,0,0-.354-.059,1.091,1.091,0,0,0-1.14,1.117.891.891,0,0,0,.888.994,1.182,1.182,0,0,0,.646-.261.306.306,0,0,0,.331.261c.1,0,.192-.118.21-.219a.344.344,0,0,1-.2-.3m-.384.058a.736.736,0,0,1-.436.15.659.659,0,0,1-.646-.733.728.728,0,0,1,.722-.81.752.752,0,0,1,.359.075Z" transform="translate(-393.113 -114.896)" fill="#fff"/>
      <path id="Path_7669" data-name="Path 7669" d="M423.251,116.718v.788" transform="translate(-398.229 -115.194)" fill="#fff"/>
      <path id="Path_7670" data-name="Path 7670" d="M429.659,115.044a.213.213,0,1,0-.212.213.213.213,0,0,0,.212-.213" transform="translate(-400.604 -114.445)" fill="#fff"/>
      <path id="Path_7671" data-name="Path 7671" d="M440.631,117.683a.274.274,0,0,1-.174.31,1.167,1.167,0,0,1-.451.1.908.908,0,0,1-.985-1.013.987.987,0,0,1,.955-1.079c.521,0,.771.333.73,1.058l-1.289,0a.666.666,0,0,0,.691.726.871.871,0,0,0,.526-.105m-.71-1.448c-.23,0-.451.205-.491.587.329.008.743,0,.827,0a.1.1,0,0,0,.1-.1.425.425,0,0,0-.428-.49Z" transform="translate(-404.487 -114.909)" fill="#fff"/>
      <path id="Path_7672" data-name="Path 7672" d="M421.53,117.033h-1.246v-1.153h.836c.15,0,.191-.032.231-.28h-1.068v-1.127h.912c.178,0,.178-.16.191-.28h-1.5v3.156h1.487c.085,0,.139-.15.15-.292Z" transform="translate(-396.894 -114.192)" fill="#fff"/>
      <path id="Path_7673" data-name="Path 7673" d="M404.1,117.707h1.1c.113,0,.048-.11-.02-.283H404.1Z" transform="translate(-390.629 -115.475)" fill="#fff"/>
      <path id="Path_7674" data-name="Path 7674" d="M383.864,114.212c-.051.008-.089.026-.089.108v1.61c0,1.014-.4,1.159-.806,1.159-.348,0-.8-.145-.8-1.1v-1.3c0-.222.019-.44.02-.494a1.392,1.392,0,0,0-.388.04c-.019.02-.028.023-.036.093v1.666c0,1.065.467,1.4,1.153,1.4.515,0,1.206-.156,1.206-1.475v-.646c0-.38,0-.9.014-1.075a2.113,2.113,0,0,0-.274.02" transform="translate(-381.765 -114.192)" fill="#fff"/>
      <path id="Path_7675" data-name="Path 7675" d="M443.175,115.98c.17.013.29.062.331.225.02.08.006.2-.05.164a.834.834,0,0,0-.327-.116.275.275,0,0,0-.331.235.314.314,0,0,0,.173.286c.118.075.262.156.389.246a.515.515,0,0,1,.256.485.655.655,0,0,1-.8.561c-.476-.075-.5-.474-.438-.491a1,1,0,0,0,.491.22c.23.02.358-.09.371-.245.01-.114-.047-.2-.2-.3-.117-.075-.225-.134-.327-.2a.556.556,0,0,1-.283-.526.633.633,0,0,1,.739-.539Z" transform="translate(-405.811 -114.9)" fill="#fff"/>
      <path id="Path_7676" data-name="Path 7676" d="M415.383,115.265a1.333,1.333,0,0,0-.612.205V114.2c-.1.034-.385.006-.385.167v2.765a.131.131,0,0,0,.075.137,1.353,1.353,0,0,0,.559.109,1.132,1.132,0,0,0,1.218-1.144.87.87,0,0,0-.857-.967m-.325,1.856a.885.885,0,0,1-.287-.045V115.7a.977.977,0,0,1,.419-.124.631.631,0,0,1,.638.711.759.759,0,0,1-.769.833" transform="translate(-394.71 -114.194)" fill="#fff"/>
      <path id="Path_7677" data-name="Path 7677" d="M399.54,116.871V114.2c-.1.034-.385.006-.385.167v.96a1.126,1.126,0,0,0-.354-.059,1.092,1.092,0,0,0-1.141,1.117.892.892,0,0,0,.889.994,1.174,1.174,0,0,0,.646-.261.306.306,0,0,0,.331.261c.1,0,.192-.118.21-.219a.352.352,0,0,1-.2-.286m-1.467-.538a.728.728,0,0,1,.723-.81.752.752,0,0,1,.359.075v1.319a.741.741,0,0,1-.435.15.658.658,0,0,1-.646-.733" transform="translate(-388.072 -114.194)" fill="#fff"/>
      <path id="Path_7678" data-name="Path 7678" d="M429.642,118.058v-2.075c-.1.032-.387.007-.387.167v1.909Z" transform="translate(-400.612 -114.902)" fill="#fff"/>
      <path id="Path_7679" data-name="Path 7679" d="M425.571,115.967a1.03,1.03,0,0,0-.676.34.219.219,0,0,0-.017-.062c-.065-.185-.261-.277-.573-.277a1.065,1.065,0,0,0-.668.326v-.316c-.1.032-.388.007-.388.167v1.909h.388v-1.5a.744.744,0,0,1,.5-.269c.216,0,.376.055.388.36v.57c0,.407,0,.676-.014.844h.4v-1.5a.7.7,0,0,1,.517-.274c.265,0,.427.174.427.531v1.247h.386v-1.249c0-.44-.144-.833-.67-.833" transform="translate(-398.229 -114.896)" fill="#fff"/>
      <path id="Path_7680" data-name="Path 7680" d="M388.177,116.244c-.066-.185-.262-.277-.572-.277a1.065,1.065,0,0,0-.668.326v-.316c-.1.032-.388.007-.388.167v1.909h.388v-1.5a.747.747,0,0,1,.5-.269c.216,0,.376.055.388.36v.57c0,.407,0,.676-.013.844h.4v-1.5a.88.88,0,0,0-.036-.3" transform="translate(-383.663 -114.896)" fill="#fff"/>
      <path id="Path_7681" data-name="Path 7681" d="M390.825,115.044a.213.213,0,1,0-.062.151.213.213,0,0,0,.062-.151" transform="translate(-385.192 -114.445)" fill="#fff"/>
      <path id="Path_7682" data-name="Path 7682" d="M390.8,118.058v-2.075c-.1.032-.385.007-.385.167v1.909Z" transform="translate(-385.2 -114.902)" fill="#fff"/>
      <path id="Path_7683" data-name="Path 7683" d="M432,116.042a.308.308,0,0,0-.205-.075.633.633,0,0,0-.526.4v-.391c-.1.032-.386.007-.386.167v1.912h.388v-1.224a.631.631,0,0,1,.047-.183.416.416,0,0,1,.458-.316c.075,0,.243-.248.225-.287" transform="translate(-401.259 -114.896)" fill="#fff"/>
      <path id="Path_7684" data-name="Path 7684" d="M409.469,116.041a.313.313,0,0,0-.205-.075.633.633,0,0,0-.526.4v-.4c-.1.034-.386.008-.386.168v1.918h.386v-1.224a.6.6,0,0,1,.049-.183.415.415,0,0,1,.457-.316c.075,0,.243-.248.225-.287" transform="translate(-392.316 -114.895)" fill="#fff"/>
      <path id="Path_7685" data-name="Path 7685" d="M437.6,117.7c-.156,0-.307-.115-.331-.391-.017-.2,0-1.159,0-1.159h.286c.081,0,.4-.02.446-.248h-.733v-.277c-.1.032-.386.007-.386.168v.814h0v.735a.526.526,0,0,0,.568.6.736.736,0,0,0,.431-.122.242.242,0,0,0,.075-.258.51.51,0,0,1-.352.135" transform="translate(-403.638 -114.759)" fill="#fff"/>
      <path id="Path_7686" data-name="Path 7686" d="M392.871,117.7c-.158,0-.307-.115-.33-.391-.018-.2,0-1.159,0-1.159h.284c.083,0,.4-.02.446-.248h-.732v-.277c-.1.032-.388.007-.388.168v1.548a.526.526,0,0,0,.567.6.739.739,0,0,0,.432-.122.244.244,0,0,0,.075-.258.515.515,0,0,1-.353.135" transform="translate(-385.886 -114.759)" fill="#fff"/>
      <path id="Path_7687" data-name="Path 7687" d="M405.928,117.28c-.084-.165-.2-.451-.385-.881-.183-.416-.93-2.2-.93-2.2h-.075s-1.062,2.509-1.324,3.073l-.028.07c.16,0,.229.009.3.009a.1.1,0,0,0,.1-.055c.075-.16.219-.5.38-.866h.288v-.274h-.188c.179-.429.325-.8.481-1.169.064.161.793,2,.894,2.23.046.112.075.139.136.139s.246-.009.376,0Z" transform="translate(-390.266 -114.194)" fill="#fff"/>
    </g>
  </g>
  <g id="Group_283" data-name="Group 283" transform="translate(0.433 27.873)">
    <path id="Path_7688" data-name="Path 7688" d="M37.586,87.166l-2.9-4.323H32.353v4.323H29.38V73.656h6.177a5.5,5.5,0,0,1,3.753,1.177,4.133,4.133,0,0,1,1.341,3.281v.038a4.237,4.237,0,0,1-.8,2.673,4.638,4.638,0,0,1-2.093,1.515l3.3,4.825Zm.055-8.9a1.728,1.728,0,0,0-.618-1.447,2.732,2.732,0,0,0-1.717-.482H32.353v3.88h3.01a2.471,2.471,0,0,0,1.689-.522,1.764,1.764,0,0,0,.588-1.389Z" transform="translate(-29.38 -73.424)" fill="#fff"/>
    <path id="Path_7689" data-name="Path 7689" d="M52.9,87.169V73.659H63.071V76.3H55.831v2.74H62.2v2.644H55.831v2.837h7.334V87.17Z" transform="translate(-38.714 -73.427)" fill="#fff"/>
    <path id="Path_7690" data-name="Path 7690" d="M84.125,86.621a8.162,8.162,0,0,1-3.291.627,7.7,7.7,0,0,1-2.885-.521,6.652,6.652,0,0,1-2.239-1.447,6.547,6.547,0,0,1-1.457-2.2,7.28,7.28,0,0,1-.521-2.78v-.038a6.909,6.909,0,0,1,4.246-6.437,7.176,7.176,0,0,1,2.837-.55,9.925,9.925,0,0,1,1.653.125,7.94,7.94,0,0,1,1.38.357,6.47,6.47,0,0,1,1.2.579,8.952,8.952,0,0,1,1.081.791l-1.876,2.258a7.793,7.793,0,0,0-.772-.579,5.11,5.11,0,0,0-.8-.425,4.734,4.734,0,0,0-.9-.271,5.451,5.451,0,0,0-1.062-.1,3.457,3.457,0,0,0-1.515.338,4.09,4.09,0,0,0-1.235.909,4.169,4.169,0,0,0-.827,1.335,4.441,4.441,0,0,0-.3,1.634v.038a4.754,4.754,0,0,0,.3,1.712,4.061,4.061,0,0,0,.849,1.364,3.853,3.853,0,0,0,1.294.9,4.133,4.133,0,0,0,1.653.319,4.678,4.678,0,0,0,2.8-.817V81.806h-3V79.239h5.867v5.867A9.881,9.881,0,0,1,84.125,86.621Z" transform="translate(-46.982 -73.274)" fill="#fff"/>
    <path id="Path_7691" data-name="Path 7691" d="M111.2,83.965a5.067,5.067,0,0,1-1.187,1.9A4.865,4.865,0,0,1,108.143,87a7.539,7.539,0,0,1-2.451.376,5.352,5.352,0,0,1-5.846-6V73.659h2.971V81.3a3.575,3.575,0,0,0,.772,2.5,2.765,2.765,0,0,0,2.142.839,2.818,2.818,0,0,0,2.142-.811,3.407,3.407,0,0,0,.772-2.432v-7.74h2.972v7.621a7.835,7.835,0,0,1-.416,2.686Z" transform="translate(-57.345 -73.427)" fill="#fff"/>
    <path id="Path_7692" data-name="Path 7692" d="M124.772,87.169V73.659h2.972V84.486h6.736v2.683Z" transform="translate(-67.238 -73.427)" fill="#fff"/>
    <path id="Path_7693" data-name="Path 7693" d="M154.258,87.106l-1.236-3.031h-5.711l-1.235,3.031h-3.031L148.834,73.5h2.743l5.786,13.606ZM150.166,77.07l-1.8,4.381h3.59Z" transform="translate(-74.49 -73.364)" fill="#fff"/>
    <path id="Path_7694" data-name="Path 7694" d="M176.11,76.4v10.77h-2.97V76.4h-4.112v-2.74h11.2V76.4Z" transform="translate(-84.801 -73.427)" fill="#fff"/>
    <path id="Path_7695" data-name="Path 7695" d="M191.972,87.169V73.659h2.972v13.51Z" transform="translate(-93.907 -73.427)" fill="#fff"/>
    <path id="Path_7696" data-name="Path 7696" d="M215.711,82.974a6.913,6.913,0,0,1-3.774,3.725,7.815,7.815,0,0,1-5.761,0,7.147,7.147,0,0,1-2.268-1.486,6.643,6.643,0,0,1-1.486-2.2,6.939,6.939,0,0,1-.531-2.712v-.038a6.817,6.817,0,0,1,.54-2.712,6.913,6.913,0,0,1,3.773-3.725,7.819,7.819,0,0,1,5.762,0,7.16,7.16,0,0,1,2.267,1.486,6.656,6.656,0,0,1,1.486,2.2,6.931,6.931,0,0,1,.531,2.711v.038A6.838,6.838,0,0,1,215.711,82.974Zm-2.568-2.712a4.508,4.508,0,0,0-.3-1.64,4.047,4.047,0,0,0-2.153-2.268,3.964,3.964,0,0,0-1.64-.337,4.042,4.042,0,0,0-1.653.328,3.781,3.781,0,0,0-1.277.907,4.283,4.283,0,0,0-.827,1.341,4.421,4.421,0,0,0-.3,1.631v.038a4.5,4.5,0,0,0,.3,1.64,4.072,4.072,0,0,0,2.143,2.268,3.939,3.939,0,0,0,1.653.337,4.058,4.058,0,0,0,1.64-.328,3.757,3.757,0,0,0,1.284-.907,4.284,4.284,0,0,0,.827-1.341,4.433,4.433,0,0,0,.3-1.631Z" transform="translate(-97.844 -73.275)" fill="#fff"/>
    <path id="Path_7697" data-name="Path 7697" d="M239.944,87.169,233.4,78.58v8.589H230.47V73.659h2.74l6.33,8.318V73.659h2.931v13.51Z" transform="translate(-109.185 -73.427)" fill="#fff"/>
    <path id="Path_7698" data-name="Path 7698" d="M264.935,84.834a3.666,3.666,0,0,1-1.017,1.313,4.584,4.584,0,0,1-1.556.812,6.78,6.78,0,0,1-2,.28,8.975,8.975,0,0,1-3.03-.531,8.033,8.033,0,0,1-2.705-1.631l1.756-2.1a8.858,8.858,0,0,0,1.9,1.2,5.093,5.093,0,0,0,2.133.443,2.6,2.6,0,0,0,1.438-.337,1.062,1.062,0,0,0,.512-.936V83.3a1.177,1.177,0,0,0-.106-.512,1.081,1.081,0,0,0-.407-.415,4.261,4.261,0,0,0-.831-.386q-.533-.192-1.383-.405a16.734,16.734,0,0,1-1.858-.56,5.213,5.213,0,0,1-1.413-.763,3.081,3.081,0,0,1-.9-1.127,3.918,3.918,0,0,1-.319-1.679v-.038a3.923,3.923,0,0,1,.345-1.67,3.8,3.8,0,0,1,.969-1.283,4.349,4.349,0,0,1,1.489-.827,6,6,0,0,1,1.908-.289,8.075,8.075,0,0,1,2.731.444,7.918,7.918,0,0,1,2.287,1.277l-1.54,2.227a9.8,9.8,0,0,0-1.776-.977,4.534,4.534,0,0,0-1.737-.357,2.1,2.1,0,0,0-1.3.337,1.028,1.028,0,0,0-.434.839v.039a1.223,1.223,0,0,0,.125.569,1.146,1.146,0,0,0,.455.434,4.325,4.325,0,0,0,.9.367q.57.174,1.441.405a13.838,13.838,0,0,1,1.829.608,5.139,5.139,0,0,1,1.353.811,3.086,3.086,0,0,1,.831,1.11A3.758,3.758,0,0,1,265.3,83v.038A4.187,4.187,0,0,1,264.935,84.834Z" transform="translate(-118.772 -73.302)" fill="#fff"/>
    <path id="Path_7699" data-name="Path 7699" d="M286.979,87.169V73.659h2.972V84.486h6.737v2.683Z" transform="translate(-131.612 -73.427)" fill="#fff"/>
    <path id="Path_7700" data-name="Path 7700" d="M316.464,87.106l-1.236-3.031h-5.711l-1.235,3.031h-3.031L311.04,73.5h2.739l5.786,13.606ZM312.372,77.07l-1.8,4.381h3.59Z" transform="translate(-138.863 -73.364)" fill="#fff"/>
    <path id="Path_7701" data-name="Path 7701" d="M343.941,85.082a3.156,3.156,0,0,1-1.022,1.158,4.785,4.785,0,0,1-1.6.7,8.609,8.609,0,0,1-2.07.231h-6.416V73.656h6.261a5.1,5.1,0,0,1,3.266.946,3.091,3.091,0,0,1,1.185,2.547v.038a3.319,3.319,0,0,1-.144,1.023,3.2,3.2,0,0,1-.383.8,3.059,3.059,0,0,1-.556.627,3.742,3.742,0,0,1-.68.463,4.556,4.556,0,0,1,1.844,1.206,3.088,3.088,0,0,1,.673,2.113v.039a3.506,3.506,0,0,1-.356,1.622Zm-3.33-7.431a1.189,1.189,0,0,0-.5-1.032,2.475,2.475,0,0,0-1.447-.357h-2.931v2.855h2.741a3.094,3.094,0,0,0,1.563-.337,1.167,1.167,0,0,0,.579-1.09Zm.751,5.4a1.277,1.277,0,0,0-.522-1.071,2.806,2.806,0,0,0-1.679-.4h-3.435V84.56h3.532A2.855,2.855,0,0,0,340.8,84.2a1.223,1.223,0,0,0,.56-1.11Z" transform="translate(-149.81 -73.424)" fill="#fff"/>
  </g>
  <g id="Group_284" data-name="Group 284" transform="translate(0 51.027)">
    <path id="Path_7702" data-name="Path 7702" d="M32.528,114.489a2.617,2.617,0,0,1-.139.9,1.754,1.754,0,0,1-.395.643,1.635,1.635,0,0,1-.61.388,2.48,2.48,0,0,1-1.578,0,1.653,1.653,0,0,1-.61-.385,1.718,1.718,0,0,1-.395-.634,2.49,2.49,0,0,1-.14-.869v-2.7h.526V114.5a1.648,1.648,0,0,0,.376,1.162,1.549,1.549,0,0,0,2.066.02,1.572,1.572,0,0,0,.376-1.147v-2.7h.526Z" transform="translate(-28.661 -111.73)" fill="#fff"/>
    <path id="Path_7703" data-name="Path 7703" d="M41.052,116.453h-.564l-.545-1.227H37.415l-.551,1.227h-.537l2.116-4.678h.493Zm-2.369-4.058-1.061,2.369h2.116Z" transform="translate(-31.704 -111.708)" fill="#fff"/>
    <path id="Path_7704" data-name="Path 7704" d="M49.166,112.307H46.333v1.586h2.535v.478H46.333V116H49.2v.478h-3.39V111.83h3.357Z" transform="translate(-35.467 -111.73)" fill="#fff"/>
    <path id="Path_7705" data-name="Path 7705" d="M59.829,116.293a2.614,2.614,0,0,1-1.065.209,2.485,2.485,0,0,1-.985-.185,2.184,2.184,0,0,1-1.214-1.277,2.662,2.662,0,0,1-.165-.935,2.519,2.519,0,0,1,.17-.915,2.409,2.409,0,0,1,.474-.769,2.242,2.242,0,0,1,1.685-.72,3.306,3.306,0,0,1,.534.041,2.319,2.319,0,0,1,.451.119,2.14,2.14,0,0,1,.391.2,3.177,3.177,0,0,1,.355.262l-.338.4a2.377,2.377,0,0,0-.279-.216,1.9,1.9,0,0,0-.315-.165,1.985,1.985,0,0,0-.371-.11,2.33,2.33,0,0,0-.451-.04,1.65,1.65,0,0,0-.71.15,1.717,1.717,0,0,0-.558.413,1.937,1.937,0,0,0-.365.607,2.063,2.063,0,0,0-.133.741,2.255,2.255,0,0,0,.13.775,1.809,1.809,0,0,0,.368.615,1.679,1.679,0,0,0,.577.405,1.9,1.9,0,0,0,.763.15,2.061,2.061,0,0,0,.751-.137,2.187,2.187,0,0,0,.591-.33v-1.159h-1.41v-.464h1.918V115.8a2.964,2.964,0,0,1-.8.5Z" transform="translate(-39.67 -111.678)" fill="#fff"/>
    <path id="Path_7706" data-name="Path 7706" d="M68.444,116.2a1.793,1.793,0,0,1-.376.573,1.741,1.741,0,0,1-.57.388,1.808,1.808,0,0,1-.717.142,1.754,1.754,0,0,1-.71-.142,1.79,1.79,0,0,1-.564-.385,1.718,1.718,0,0,1-.371-.567A1.8,1.8,0,0,1,65,115.52a1.818,1.818,0,0,1,.133-.693,1.741,1.741,0,0,1,.938-.962,1.842,1.842,0,0,1,2,.384,1.728,1.728,0,0,1,.371.567,1.843,1.843,0,0,1,0,1.383Zm-.485-1.206a1.316,1.316,0,0,0-.268-.427,1.282,1.282,0,0,0-.405-.288,1.2,1.2,0,0,0-.5-.105,1.245,1.245,0,0,0-.511.1,1.143,1.143,0,0,0-.4.284,1.387,1.387,0,0,0-.255.423,1.447,1.447,0,0,0-.093.52,1.422,1.422,0,0,0,.1.526,1.3,1.3,0,0,0,.266.423,1.277,1.277,0,0,0,.4.285,1.2,1.2,0,0,0,.5.106,1.254,1.254,0,0,0,.51-.1,1.211,1.211,0,0,0,.4-.282,1.286,1.286,0,0,0,.258-.42,1.427,1.427,0,0,0,.093-.519A1.41,1.41,0,0,0,67.959,114.994Z" transform="translate(-43.085 -112.481)" fill="#fff"/>
    <path id="Path_7707" data-name="Path 7707" d="M74.583,113.843h.551L73.641,117.3H73.19L71.7,113.843h.564l1.154,2.846Z" transform="translate(-45.744 -112.529)" fill="#fff"/>
    <path id="Path_7708" data-name="Path 7708" d="M78.826,116.192a1.175,1.175,0,0,0,.272.365,1.151,1.151,0,0,0,.371.225,1.237,1.237,0,0,0,.431.075,1.309,1.309,0,0,0,.614-.133,1.8,1.8,0,0,0,.467-.352l.319.286a2.1,2.1,0,0,1-.591.467,1.743,1.743,0,0,1-.822.176,1.716,1.716,0,0,1-.664-.129,1.634,1.634,0,0,1-.546-.365,1.737,1.737,0,0,1-.376-.567,1.886,1.886,0,0,1-.138-.73,1.976,1.976,0,0,1,.123-.7,1.764,1.764,0,0,1,.341-.57,1.6,1.6,0,0,1,.521-.382,1.659,1.659,0,0,1,1.337,0,1.466,1.466,0,0,1,.5.388,1.68,1.68,0,0,1,.312.577,2.317,2.317,0,0,1,.106.709v.075a.643.643,0,0,1-.007.086H78.693a1.4,1.4,0,0,0,.133.5Zm2.063-.872a1.749,1.749,0,0,0-.1-.444,1.173,1.173,0,0,0-.21-.371,1.023,1.023,0,0,0-.33-.255,1,1,0,0,0-.451-.1.958.958,0,0,0-.416.089,1.075,1.075,0,0,0-.336.246,1.277,1.277,0,0,0-.237.368,1.561,1.561,0,0,0-.119.464Z" transform="translate(-48.309 -112.48)" fill="#fff"/>
    <path id="Path_7709" data-name="Path 7709" d="M85.678,117.232h-.511V113.8h.511v.895a1.826,1.826,0,0,1,.231-.391,1.562,1.562,0,0,1,.319-.309,1.331,1.331,0,0,1,.392-.2,1.409,1.409,0,0,1,.458-.06v.551h-.04a1.4,1.4,0,0,0-.526.1,1.2,1.2,0,0,0-.435.3,1.428,1.428,0,0,0-.292.494,2.01,2.01,0,0,0-.105.68Z" transform="translate(-51.087 -112.489)" fill="#fff"/>
    <path id="Path_7710" data-name="Path 7710" d="M90.265,117.224h-.511v-3.43h.511v.6a1.607,1.607,0,0,1,.451-.474,1.227,1.227,0,0,1,.723-.2,1.434,1.434,0,0,1,.554.1,1.14,1.14,0,0,1,.411.282,1.237,1.237,0,0,1,.258.434,1.659,1.659,0,0,1,.09.558v2.13h-.511v-2a1.107,1.107,0,0,0-.246-.757.89.89,0,0,0-.7-.279,1.071,1.071,0,0,0-.408.075.945.945,0,0,0-.328.219.994.994,0,0,0-.216.342,1.21,1.21,0,0,0-.075.438Z" transform="translate(-52.907 -112.48)" fill="#fff"/>
    <path id="Path_7711" data-name="Path 7711" d="M99.592,114.138a1.269,1.269,0,0,1,.261-.219,1.228,1.228,0,0,1,.328-.146,1.455,1.455,0,0,1,.408-.053,1.207,1.207,0,0,1,.936.368,1.438,1.438,0,0,1,.338,1.012v2.123h-.513v-2a1.123,1.123,0,0,0-.235-.766.827.827,0,0,0-.653-.269.982.982,0,0,0-.365.069.868.868,0,0,0-.3.207,1,1,0,0,0-.205.334,1.248,1.248,0,0,0-.075.451v1.977h-.5v-2.016a1.1,1.1,0,0,0-.236-.751.814.814,0,0,0-.646-.269.889.889,0,0,0-.376.08.911.911,0,0,0-.3.225,1.073,1.073,0,0,0-.2.341,1.237,1.237,0,0,0-.075.435v1.954h-.511v-3.43h.511v.576a2.762,2.762,0,0,1,.189-.245,1.185,1.185,0,0,1,.236-.21,1.139,1.139,0,0,1,.3-.142,1.257,1.257,0,0,1,.385-.053,1.15,1.15,0,0,1,.69.2,1.265,1.265,0,0,1,.411.488A2.115,2.115,0,0,1,99.592,114.138Z" transform="translate(-55.649 -112.48)" fill="#fff"/>
    <path id="Path_7712" data-name="Path 7712" d="M107.56,116.192a1.185,1.185,0,0,0,.272.365,1.147,1.147,0,0,0,.376.225,1.23,1.23,0,0,0,.431.075,1.305,1.305,0,0,0,.614-.133,1.8,1.8,0,0,0,.467-.352l.319.286a2.1,2.1,0,0,1-.591.467,1.742,1.742,0,0,1-.822.176,1.716,1.716,0,0,1-.664-.129,1.646,1.646,0,0,1-.546-.365,1.728,1.728,0,0,1-.371-.567,1.886,1.886,0,0,1-.138-.73,1.99,1.99,0,0,1,.123-.7,1.765,1.765,0,0,1,.342-.57,1.59,1.59,0,0,1,.521-.382,1.661,1.661,0,0,1,1.337,0,1.477,1.477,0,0,1,.5.388,1.689,1.689,0,0,1,.311.577,2.3,2.3,0,0,1,.106.709v.075a.754.754,0,0,1-.006.086h-2.716a1.417,1.417,0,0,0,.132.5Zm2.063-.872a1.722,1.722,0,0,0-.1-.444,1.162,1.162,0,0,0-.211-.371,1.016,1.016,0,0,0-.33-.255,1,1,0,0,0-.451-.1.955.955,0,0,0-.415.089,1.071,1.071,0,0,0-.337.246,1.264,1.264,0,0,0-.237.368,1.561,1.561,0,0,0-.119.464Z" transform="translate(-59.713 -112.48)" fill="#fff"/>
    <path id="Path_7713" data-name="Path 7713" d="M114.41,117.224H113.9v-3.43h.511v.6a1.622,1.622,0,0,1,.451-.474,1.229,1.229,0,0,1,.723-.2,1.432,1.432,0,0,1,.554.1,1.142,1.142,0,0,1,.412.282,1.255,1.255,0,0,1,.258.434,1.674,1.674,0,0,1,.089.558v2.13h-.511v-2a1.1,1.1,0,0,0-.246-.757.889.889,0,0,0-.7-.279,1.074,1.074,0,0,0-.408.075.951.951,0,0,0-.328.219.994.994,0,0,0-.216.342,1.21,1.21,0,0,0-.075.438Z" transform="translate(-62.489 -112.48)" fill="#fff"/>
    <path id="Path_7714" data-name="Path 7714" d="M121.3,115.615a.537.537,0,0,0,.159.445.652.652,0,0,0,.418.126,1.1,1.1,0,0,0,.249-.026,1.116,1.116,0,0,0,.249-.093v.439a1.144,1.144,0,0,1-.282.108,1.391,1.391,0,0,1-.335.037,1.347,1.347,0,0,1-.385-.053.787.787,0,0,1-.308-.169.775.775,0,0,1-.2-.3,1.213,1.213,0,0,1-.075-.445v-2.074h-.478v-.451h.478v-1.035h.51v1.035h1.088v.451H121.3Z" transform="translate(-65.034 -111.846)" fill="#fff"/>
    <path id="Path_7715" data-name="Path 7715" d="M129.557,111.829v4.644h-.526v-4.644Z" transform="translate(-68.495 -111.73)" fill="#fff"/>
    <path id="Path_7716" data-name="Path 7716" d="M132.658,117.224h-.511v-3.43h.511v.6a1.622,1.622,0,0,1,.451-.474,1.229,1.229,0,0,1,.723-.2,1.432,1.432,0,0,1,.554.1,1.142,1.142,0,0,1,.412.282,1.246,1.246,0,0,1,.258.434,1.675,1.675,0,0,1,.089.558v2.13h-.511v-2a1.1,1.1,0,0,0-.246-.757.889.889,0,0,0-.7-.279,1.074,1.074,0,0,0-.408.075.943.943,0,0,0-.328.219.987.987,0,0,0-.216.342,1.21,1.21,0,0,0-.075.438Z" transform="translate(-69.731 -112.48)" fill="#fff"/>
    <path id="Path_7717" data-name="Path 7717" d="M139.077,112.228v-.564h.584v.564Zm.034,4.179v-3.43h.51v3.43Z" transform="translate(-72.482 -111.664)" fill="#fff"/>
    <path id="Path_7718" data-name="Path 7718" d="M142.572,115.615a.538.538,0,0,0,.159.445.654.654,0,0,0,.419.126,1.1,1.1,0,0,0,.249-.026,1.128,1.128,0,0,0,.249-.093v.439a1.158,1.158,0,0,1-.283.108,1.391,1.391,0,0,1-.335.037,1.341,1.341,0,0,1-.384-.053.79.79,0,0,1-.309-.169.775.775,0,0,1-.2-.3,1.213,1.213,0,0,1-.075-.445v-2.074h-.478v-.451h.478v-1.035h.511v1.035h1.087v.451h-1.085Z" transform="translate(-73.476 -111.846)" fill="#fff"/>
    <path id="Path_7719" data-name="Path 7719" d="M146.678,112.228v-.564h.584v.564Zm.033,4.179v-3.43h.511v3.43Z" transform="translate(-75.498 -111.664)" fill="#fff"/>
    <path id="Path_7720" data-name="Path 7720" d="M150.2,114.286a3.052,3.052,0,0,0-.488.183l-.15-.419a3.455,3.455,0,0,1,.577-.209,2.661,2.661,0,0,1,.67-.075,1.539,1.539,0,0,1,1.081.348,1.334,1.334,0,0,1,.376,1.032v2.1h-.491v-.52a1.693,1.693,0,0,1-.482.412,1.469,1.469,0,0,1-.76.179,1.678,1.678,0,0,1-.467-.066,1.271,1.271,0,0,1-.411-.2,1.032,1.032,0,0,1-.292-.335.96.96,0,0,1-.11-.471,1.046,1.046,0,0,1,.107-.482.955.955,0,0,1,.3-.348,1.436,1.436,0,0,1,.464-.212,2.255,2.255,0,0,1,.594-.075,3.668,3.668,0,0,1,.577.039,4.129,4.129,0,0,1,.478.107v-.12a.883.883,0,0,0-.269-.7,1.111,1.111,0,0,0-.751-.234A2.051,2.051,0,0,0,150.2,114.286Zm-.164,1.41a.62.62,0,0,0-.258.526.6.6,0,0,0,.069.292.676.676,0,0,0,.189.216.859.859,0,0,0,.274.136,1.123,1.123,0,0,0,.328.047,1.415,1.415,0,0,0,.446-.069,1.188,1.188,0,0,0,.364-.192.912.912,0,0,0,.244-.292.788.788,0,0,0,.089-.376v-.331c-.128-.035-.274-.069-.44-.1a3.053,3.053,0,0,0-.566-.047,1.224,1.224,0,0,0-.739.19Z" transform="translate(-76.519 -112.497)" fill="#fff"/>
    <path id="Path_7721" data-name="Path 7721" d="M156.62,115.615a.536.536,0,0,0,.159.445.653.653,0,0,0,.419.126,1.1,1.1,0,0,0,.249-.026,1.128,1.128,0,0,0,.249-.093v.439a1.159,1.159,0,0,1-.283.108,1.391,1.391,0,0,1-.335.037,1.341,1.341,0,0,1-.384-.053.785.785,0,0,1-.309-.169.775.775,0,0,1-.2-.3,1.214,1.214,0,0,1-.075-.445v-2.074h-.478v-.451h.478v-1.035h.511v1.035h1.087v.451h-1.087Z" transform="translate(-79.051 -111.846)" fill="#fff"/>
    <path id="Path_7722" data-name="Path 7722" d="M160.725,112.228v-.564h.583v.564Zm.033,4.179v-3.43h.511v3.43Z" transform="translate(-81.073 -111.664)" fill="#fff"/>
    <path id="Path_7723" data-name="Path 7723" d="M166.048,113.843h.552l-1.493,3.457h-.451l-1.486-3.457h.564l1.154,2.846Z" transform="translate(-82.042 -112.529)" fill="#fff"/>
    <path id="Path_7724" data-name="Path 7724" d="M170.289,116.192a1.175,1.175,0,0,0,.272.365,1.137,1.137,0,0,0,.371.225,1.237,1.237,0,0,0,.431.075,1.3,1.3,0,0,0,.613-.133,1.8,1.8,0,0,0,.468-.352l.319.286a2.1,2.1,0,0,1-.591.467,1.746,1.746,0,0,1-.823.176,1.716,1.716,0,0,1-.664-.129,1.634,1.634,0,0,1-.546-.365,1.737,1.737,0,0,1-.376-.567,1.886,1.886,0,0,1-.138-.73,1.976,1.976,0,0,1,.123-.7,1.764,1.764,0,0,1,.341-.57,1.593,1.593,0,0,1,.521-.382,1.659,1.659,0,0,1,1.337,0,1.471,1.471,0,0,1,.5.389,1.681,1.681,0,0,1,.312.577,2.317,2.317,0,0,1,.106.709v.075a.643.643,0,0,1-.007.086h-2.713a1.391,1.391,0,0,0,.137.5Zm2.063-.872a1.75,1.75,0,0,0-.1-.444,1.173,1.173,0,0,0-.21-.371,1.023,1.023,0,0,0-.33-.255,1,1,0,0,0-.451-.1.958.958,0,0,0-.416.089,1.068,1.068,0,0,0-.336.246,1.277,1.277,0,0,0-.237.368,1.56,1.56,0,0,0-.119.464Z" transform="translate(-84.607 -112.48)" fill="#fff"/>
  </g>
</svg>
